<?xml version="1.0" standalone="no"?>
<!DOCTYPE svg PUBLIC "-//W3C//DTD SVG 1.1//EN" "http://www.w3.org/Graphics/SVG/1.1/DTD/svg11.dtd" >
<svg xmlns="http://www.w3.org/2000/svg" xmlns:xlink="http://www.w3.org/1999/xlink" version="1.1">
<metadata>
Created by FontForge 20170731 at Fri Aug 11 13:15:18 2017
 By Aleksey,,,
Copyright (c) 2017 by Dima Pole. All rights reserved.
</metadata>
<defs>
<font id="Getman" horiz-adv-x="0" >
  <font-face 
    font-family="Getman"
    font-weight="400"
    font-stretch="normal"
    units-per-em="1000"
    panose-1="2 0 5 5 0 0 0 2 0 4"
    ascent="701"
    descent="-299"
    x-height="500"
    cap-height="750"
    bbox="-214 -298 1121 1011"
    underline-thickness="50"
    underline-position="-250"
    unicode-range="U+0020-FB05"
  />
<missing-glyph horiz-adv-x="594" 
d="M108 225l148 144l-58 58l-156 -153q-16 -13 -31 3q-8 6 -9 15.5t5 15.5l167 173q24 23 47 0l72 -75l72 75q24 25 49 0l161 -163q22 -22 2 -39q-19 -19 -39 0l-148 150l-60 -60l150 -150q22 -22 0 -43l-164 -161q-14 -13 -23.5 -13t-22.5 13l-162 163q-24 24 0 47zM295 67
l127 132l-129 133l-133 -133z" />
    <glyph glyph-name="ff" unicode="ff" horiz-adv-x="459" 
d="M491 690l5 -4q-32 -47 -74 -61q-44 -15 -85 17v-142h110l-53 -47h-57v-359l36 -35l46 49l8 -8l-94 -100l-50 49l-46 -49l-8 8l46 48v397h-155v-359l36 -35l46 49l8 -8l-94 -100l-50 49l-46 -49l-8 8l46 48v397h-58l58 47v113l-49 70l8 8l49 -69l84 78q32 -27 65 -27
q28 0 59 17l5 -4q-32 -47 -74 -61q-44 -15 -85 17v-142h155v116l5 3l87 81q31 -27 65 -27q28 0 59 17z" />
    <glyph glyph-name="fi" unicode="fi" horiz-adv-x="438" 
d="M115 500h192l50 -48l48 47l8 -8l-75 -76v-321l36 -35l46 49l8 -8l-94 -100l-50 49l-46 -49l-8 8l46 48v398h-106l-55 -1v-359l36 -35l46 49l8 -8l-94 -100l-50 49l-46 -49l-8 8l46 48v397h-53l53 47v113l-49 70l8 8l49 -69l84 78q31 -27 65 -27q28 0 59 17l5 -4
q-32 -47 -74 -61q-44 -15 -85 17v-142z" />
    <glyph glyph-name="fl" unicode="fl" horiz-adv-x="415" 
d="M273 689l11 11l50 -48l48 47l8 -8l-75 -76v-521l36 -35l46 49l8 -8l-94 -100l-50 49l-46 -49l-8 8l46 48v580l-10 10q-21 -16 -38 -21q-44 -15 -85 17v-142h110l-53 -53h-57v-353l36 -35l46 49l8 -8l-94 -100l-50 49l-46 -49l-8 8l46 48v390h-58l58 54v113l-49 70l8 8
l49 -69l84 78q32 -27 65 -27q30 0 58 16z" />
    <glyph glyph-name="ffi" unicode="ffi" horiz-adv-x="648" 
d="M337 500h180l50 -48l48 47l8 -8l-75 -76v-321l36 -35l46 49l8 -8l-94 -100l-50 49l-46 -49l-8 8l46 48v397h-149v-359l36 -35l46 49l8 -8l-94 -100l-50 49l-46 -49l-8 8l46 48v397h-155v-359l36 -35l46 49l8 -8l-94 -100l-50 49l-46 -49l-8 8l46 48v397h-58l58 47v113
l-49 70l8 8l49 -69l84 78q32 -27 65 -27q28 0 59 17l5 -4q-32 -47 -74 -61q-44 -15 -85 17v-142h155v116l5 3l87 81q31 -27 65 -27q28 0 59 17l5 -4q-32 -47 -74 -61q-44 -15 -85 17v-142z" />
    <glyph glyph-name="ffl" unicode="ffl" horiz-adv-x="660" 
d="M491 690l5 -4q-32 -47 -74 -61q-44 -15 -85 17v-142h110l-53 -47h-57v-359l36 -35l46 49l8 -8l-94 -100l-50 49l-46 -49l-8 8l46 48v397h-155v-359l36 -35l46 49l8 -8l-94 -100l-50 49l-46 -49l-8 8l46 48v397h-58l58 47v113l-49 70l8 8l49 -69l84 78q32 -27 65 -27
q28 0 59 17l5 -4q-32 -47 -74 -61q-44 -15 -85 17v-142h155v116l5 3l87 81q31 -27 65 -27q28 0 59 17zM481 653l48 47l50 -48l48 47l8 -8l-75 -76v-521l36 -35l46 49l8 -8l-94 -100l-50 49l-46 -49l-8 8l46 48v580z" />
    <glyph glyph-name="f_f_j" unicode="ffj" horiz-adv-x="620" 
d="M337 500h183l50 -48l48 47l8 -8l-76 -77v-436q0 -68 -8 -130q-5 -33 -50 -62q-39 -26 -92 -43l-8 7l49 29q37 24 40 44q9 52 9 154v476h-153v-359l36 -35l46 49l8 -8l-94 -100l-50 49l-46 -49l-8 8l46 48v397h-155v-359l36 -35l46 49l8 -8l-94 -100l-50 49l-46 -49l-8 8
l46 48v397h-58l58 47v113l-49 70l8 8l49 -69l84 78q32 -27 65 -27q28 0 59 17l5 -4q-32 -47 -74 -61q-44 -15 -85 17v-142h155v116l5 3l87 81q31 -27 65 -27q28 0 59 17l5 -4q-32 -47 -74 -61q-44 -15 -85 17v-142z" />
    <glyph glyph-name="f_j" unicode="fj" horiz-adv-x="404" 
d="M116 500h188l50 -48l48 47l8 -8l-76 -77v-436q0 -68 -8 -130q-5 -33 -50 -62q-39 -26 -92 -43l-8 7l49 29q37 24 40 44q9 52 9 154v476h-158v-359l36 -35l46 49l8 -8l-94 -100l-50 49l-46 -49l-8 8l46 48v396h-54l54 48v113l-49 70l8 8l49 -69l84 78q31 -27 65 -27
q28 0 59 17l5 -4q-32 -47 -74 -61q-44 -15 -85 17v-142z" />
    <glyph glyph-name=".notdef" horiz-adv-x="594" 
d="M108 225l148 144l-58 58l-156 -153q-16 -13 -31 3q-8 6 -9 15.5t5 15.5l167 173q24 23 47 0l72 -75l72 75q24 25 49 0l161 -163q22 -22 2 -39q-19 -19 -39 0l-148 150l-60 -60l150 -150q22 -22 0 -43l-164 -161q-14 -13 -23.5 -13t-22.5 13l-162 163q-24 24 0 47zM295 67
l127 132l-129 133l-133 -133z" />
    <glyph glyph-name=".null" 
 />
    <glyph glyph-name="nonmarkingreturn" horiz-adv-x="333" 
 />
    <glyph glyph-name="space" unicode=" " horiz-adv-x="220" 
 />
    <glyph glyph-name="exclam" unicode="!" horiz-adv-x="267" 
d="M131 180l-59 66l25 23v355l-16 15l-31 -30l-8 8l82 83l55 -54l41 40l8 -8l-68 -67l-1 -355l23 -25zM129 0l-57 64l55 50l57 -63z" />
    <glyph glyph-name="quotedbl" unicode="&#x22;" horiz-adv-x="240" 
d="M82 700l-1 -145l-60 -47v145zM192 700l-1 -145l-60 -47v145z" />
    <glyph glyph-name="numbersign" unicode="#" horiz-adv-x="515" 
d="M139 294h-109l57 55h52v104l63 47l-1 -151h108v104l63 47l-1 -151h108l-52 -54h-56v-96h108l-52 -54h-56v-108l-62 -47v154h-108v-107l-62 -47v154h-109l57 55h52v95zM309 294h-108v-95h108v95z" />
    <glyph glyph-name="dollar" unicode="$" horiz-adv-x="317" 
d="M109 199l-59 66v130l6 4l82 76l3 4v56h15v-65q25 -16 49 -16q32 0 57 16l5 -4q-32 -46 -72 -59q-45 -14 -83 17v-122l45 -49l55 42l70 -63v-105l-125 -100v-62h-15v61q-49 48 -122 -6l-5 5q77 77 132 77q29 0 53 -15l18 8l2 2v100l-52 48z" />
    <glyph glyph-name="percent" unicode="%" horiz-adv-x="570" 
d="M397 700l-191 -712l-62 -50l190 705zM19 466l127 114l76 -54v-86l-127 -114l-76 54v86zM80 420l58 -42l25 22v84l-58 42l-25 -22v-84zM319 206l127 114l76 -54v-86l-127 -114l-76 54v86zM380 160l58 -42l25 22v84l-58 42l-25 -22v-84z" />
    <glyph glyph-name="ampersand" unicode="&#x26;" horiz-adv-x="476" 
d="M354 119l-173 -119l-132 94v154l97 87l-79 57v171l152 137l100 -90l58 81l8 -8l-57 -81l-39 -56l-106 97l-54 -50v-162l68 -50l4 4l11 -14l-101 -93v-145l112 -81l69 42l3 207l62 59h142l-57 -58l-85 -1z" />
    <glyph glyph-name="quotesingle" unicode="'" horiz-adv-x="130" 
d="M82 700l-1 -145l-60 -47v145z" />
    <glyph glyph-name="parenleft" unicode="(" horiz-adv-x="233" 
d="M119 0l83 -60l-39 -55l-106 76v602l152 137l11 -14l-101 -93v-593z" />
    <glyph glyph-name="parenright" unicode=")" horiz-adv-x="233" 
d="M88 585l-83 60l39 55l106 -76v-602l-152 -137l-11 14l101 93v593z" />
    <glyph glyph-name="asterisk" unicode="*" horiz-adv-x="382" 
d="M174 546l-153 90l11 17l146 -87v157h24v-157l146 87l11 -17l-150 -89l150 -88l-11 -16l-146 85v-156h-24v152l-145 -85l-12 16z" />
    <glyph glyph-name="plus" unicode="+" horiz-adv-x="377" 
d="M152 244h-154l57 55h97v132l63 47l-1 -179h163l-52 -54l-111 -1v-119l-62 -47v166z" />
    <glyph glyph-name="comma" unicode="," horiz-adv-x="224" 
d="M102 7l-50 57l55 50l57 -63l-2 -2h2l-87 -115l-14 11z" />
    <glyph glyph-name="hyphen" unicode="-" horiz-adv-x="290" 
d="M206 227l-187 -1l62 59h182z" />
    <glyph glyph-name="period" unicode="." horiz-adv-x="224" 
d="M109 0l-57 64l55 50l57 -63z" />
    <glyph glyph-name="slash" unicode="/" horiz-adv-x="285" 
d="M278 700l-191 -712l-62 -50l190 705z" />
    <glyph glyph-name="zero" unicode="0" horiz-adv-x="391" 
d="M135 -3l-99 93l4 370l149 124l156 -126l4 -321zM114 497l-2 -364l79 -76l83 54l-1 306l-124 108z" />
    <glyph glyph-name="one" unicode="1" horiz-adv-x="265" 
d="M-6 10l89 74v431l-61 -51l-9 11l138 120l-2 -475l39 -51l56 46l9 -10l-131 -105l-38 68l-82 -68z" />
    <glyph glyph-name="two" unicode="2" horiz-adv-x="369" 
d="M90 49q1 1 10 7.5t11 8t10 6t12 6t10.5 3t12.5 1.5q18 0 48 -13q32 -12 45 -12t30 11l28 23l8 -4q-78 -90 -122 -90q-14 0 -44 13t-50 13q-21 0 -44 -19q-15 44 12 88q34 58 172 166l4 123q-55 -55 -68 -64q-20 -14 -31 -14l-81 34v74q0 61 27 88l109 103l115 -101v-218
q-2 -1 -15.5 -10.5t-25.5 -18.5q-46 -33 -53 -38q-57 -40 -83 -73q-35 -44 -47 -93zM244 398v61l-91 77l-28 -27v-125l67 -33z" />
    <glyph glyph-name="three" unicode="3" horiz-adv-x="359" 
d="M199 79l22 26l4 224q-44 17 -58 14q-17 -3 -51 -31l-5 5l168 214h-132q-41 0 -75 -28q-1 -1 -4 2l-2 1q17 41 50 64.5t61 22.5l167 -4l-137 -174l89 -29l-6 -236q-14 -22 -71 -79q-61 -59 -77 -68q-27 43 -82 43q-47 0 -91 -40l-4 5q21 26 42 47q18 18 48.5 33.5
t58.5 15.5q44 0 85 -28z" />
    <glyph glyph-name="four" unicode="4" horiz-adv-x="407" 
d="M206 84l3 133l-188 -4l3 282l-32 27l62 69l69 -64l-38 -40l-4 -220l129 1l6 278l65 60l-9 -338l128 2l-61 -50l-68 -2l-2 -98l39 -51l59 46l9 -10l-131 -105l-38 68l-82 -69l-8 11z" />
    <glyph glyph-name="five" unicode="5" horiz-adv-x="357" 
d="M175 407l118 -88l-3 -169q-14 -22 -71 -79q-61 -59 -77 -68q-27 43 -82 43q-47 0 -91 -40l-4 5q21 26 42 47q18 18 48.5 33.5t58.5 15.5q44 0 85 -28l22 26l2 158l-88 74l-90 -78l92 339q80 -83 175 -6v-2q1 -2 1 -3q0 -46 -32.5 -77.5t-78.5 -31.5q-35 0 -69 28
l-54 -195z" />
    <glyph glyph-name="six" unicode="6" horiz-adv-x="355" 
d="M200 395l126 -89l-7 -129l-221 -177l-65 89l12 378l136 131l72 -67q-15 -42 -71 -81q-6 52 -54 77l-21 -20v-192zM101 125l51 -63l86 68l13 134l-101 67l-48 -44z" />
    <glyph glyph-name="seven" unicode="7" horiz-adv-x="328" 
d="M28 229l-7 7q65 62 77 70q9 6 22 7q22 32 43 57q24 30 54 66q10 12 25.5 31t20.5 25q-20 5 -73 13q-46 7 -66 12q-26 3 -43.5 -7.5t-34.5 -35.5l-5 3q17 37 57 84q30 33 77 24q121 -23 127 -23t15 3t20 7.5t16 6.5l5 -4q-22 -29 -61 -72l-56 -62q-56 -68 -88 -128
q48 -4 70 4l8 -10q-17 -20 -28 -31q-29 -29 -70 -29h-8q-16 -47 -16 -95q0 -43 23 -75q8 0 12.5 -1t10 1t8.5 3.5t7 5t6 6t6 7t6 6.5l6 -5q-18 -31 -55.5 -59.5t-72.5 -40.5q-21 69 -19 127q1 55 37 126l-3 -1h-4q-24 -5 -49 -23z" />
    <glyph glyph-name="eight" unicode="8" horiz-adv-x="394" 
d="M70 339l1 127l146 132l145 -167l-107 -106l-14 11l58 65l-126 134l-31 -28l1 -127l212 -175l-1 -107l-118 -94l-7 13l59 51v103zM118 218l1 -112l58 -35l49 31l10 -20l-117 -82l-72 62l2 123l92 72l12 -10z" />
    <glyph glyph-name="nine" unicode="9" horiz-adv-x="363" 
d="M107 527v-171l90 -40l49 47l-1 64l-122 114zM148 598l166 -155l-1 -296q-14 -22 -71 -79q-61 -59 -77 -68q-27 43 -82 43q-47 0 -91 -40l-4 5q21 26 42 47q18 18 48.5 33.5t58.5 15.5q44 0 85 -28l22 26l5 241l-96 -90l-118 51l5 177z" />
    <glyph glyph-name="colon" unicode=":" horiz-adv-x="224" 
d="M109 0l-57 64l55 50l57 -63zM109 385l-57 64l55 50l57 -63z" />
    <glyph glyph-name="semicolon" unicode=";" horiz-adv-x="224" 
d="M109 0l-57 64l55 50l57 -63l-1 -1l1 -1l-87 -115l-10 9zM105 386l-57 64l55 50l57 -64z" />
    <glyph glyph-name="less" unicode="&#x3c;" horiz-adv-x="296" 
d="M215 193l-47 -51l-139 111l161 145l10 -14l-109 -101z" />
    <glyph glyph-name="equal" unicode="=" horiz-adv-x="357" 
d="M265 182l-237 -1l62 59h232zM265 302l-237 -1l62 59h232z" />
    <glyph glyph-name="greater" unicode="&#x3e;" horiz-adv-x="296" 
d="M64 347l47 51l139 -111l-161 -145l-10 14l109 101z" />
    <glyph glyph-name="question" unicode="?" horiz-adv-x="311" 
d="M139 341l-1 -124l-62 -50v145l4 4l101 91v147l-98 89l-58 -46l-19 9l113 94l116 -104l48 67l8 -8l-48 -69v-149zM119 0l-57 64l55 50l57 -63z" />
    <glyph glyph-name="at" unicode="@" horiz-adv-x="657" 
d="M596 478v-193l-131 -115l-74 85l-103 -85l-106 76v147l148 134l113 -95v-134l65 -75l26 24v198l-222 201l-205 -185v-242l228 -167l90 76l13 -13l-139 -115l-254 182v249l300 269zM244 285l83 -60l54 45v127l-87 73l-50 -47v-138z" />
    <glyph glyph-name="A" unicode="A" horiz-adv-x="727" 
d="M-37 -12l1 12q89 96 159 104q7 1 30 1q27 37 27 61l-1 105q-19 46 -81 11q1 52 29 70q9 9 26.5 6t25.5 -15v51q-22 36 -78 4q1 51 29 71q8 7 24 6t25 -12q4 47 30.5 83t85.5 82l11 -8q-55 -58 -55 -153v-239q0 -62 -67 -129q34 -12 57 -35q55 61 55 95l-1 313
q0 74 36 114q30 34 99 94q52 43 95 70l97 -93l60 47l7 -7q-7 -8 -29 -30.5t-29 -30.5v-519q27 -30 54 -49l41 27l9 -10q-56 -42 -104 -85q-26 32 -54 53l-55 -47l-7 7q32 32 45 55l-1 294q-9 -13 -19 -43q-33 3 -83 1q-30 0 -47 -29l-12 8q37 67 37 93q0 8 -8 29l9 4l17 -28
q41 -5 106 -3v204l-88 86q-20 -7 -41 -25q-63 -59 -63 -169v-269q0 -50 -62 -118q-65 -71 -119 -103q-57 55 -116 49q-54 -8 -107 -61zM129 644l-9 6q5 7 33 40l38 42q21 18 48 18q26 0 68 -21q43 -21 66 -21q14 0 31 11l8 -7l-32 -33q-35 -35 -62 -35q-22 0 -65 20
q-41 21 -63 21q-19 0 -30 -10q-4 -3 -9.5 -8.5t-12.5 -13t-9 -9.5z" />
    <glyph glyph-name="B" unicode="B" horiz-adv-x="604" 
d="M136 -12l-7 12q106 97 187 104q75 9 128 -32l35 32v210l-91 84l-89 -70v-66q0 -42 -42 -96t-96 -96l-13 12q80 83 80 122l-1 268q0 74 36 114q28 33 98 93l1 1l82 70l97 -87v-116l-104 -96l95 -85l63 50l7 -7q-19 -19 -55 -58v-214l-147 -137q-70 55 -146 49
q-55 -4 -118 -61zM64 53l-13 11q61 67 61 102l-1 105q-19 46 -81 11q1 52 29 70q9 9 26.5 6t25.5 -15v51q-22 36 -78 4q1 51 29 71q8 7 24 6t25 -12q4 47 30.5 83t85.5 82l11 -8q-55 -58 -55 -153v-239q0 -80 -119 -175zM299 490v-137l7 7l166 154v110l-68 63l-59 -46
q-46 -55 -46 -151zM61 644l-9 6q4 7 33 40l38 42q21 18 48 18q26 0 68 -21q43 -21 66 -21q14 0 31 11l8 -7l-32 -33q-35 -35 -62 -35q-22 0 -65 20q-41 21 -63 21q-19 0 -30 -10q-4 -3 -9.5 -8.5t-12.5 -13t-9 -9.5z" />
    <glyph glyph-name="C" unicode="C" horiz-adv-x="593" 
d="M273 750h19q-120 -94 -168 -183t-48 -215q0 -111 79 -199q80 -89 195 -88q64 0 110 21q48 23 75 53q28 31 65 88l13 -26q-27 -70 -118 -136t-174 -66q-123 0 -218 84q-93 85 -93 215q0 144 60 250q59 105 203 202zM184 186l-13 12q61 64 61 101v17q-21 44 -82 10
q5 53 30 71q8 8 26 5t26 -16v75q-23 38 -79 6q5 54 30 70q8 7 24 5.5t25 -10.5q2 42 23 76t63 70l48 50q19 17 44 17q23 0 61 -20q37 -19 59 -19q12 0 28 11l7 -7l-29 -30q-32 -32 -61 -32q-21 0 -52 18q-32 18 -52 18q-13 0 -29 -9q-40 -52 -40 -134v-180q0 -81 -118 -175z
" />
    <glyph glyph-name="D" unicode="D" horiz-adv-x="592" 
d="M548 551v-330q0 -51 -61 -118q-65 -71 -119 -103q-85 55 -176 49q-68 -6 -142 -61l-7 12q122 96 217 104q46 4 90.5 -7t71.5 -34q56 61 56 96l-1 307q2 60 -3 101q-4 26 -16.5 36.5t-39.5 9.5q-56 0 -134 -1t-133 -1q-36 0 -63 9q-21 6 -27 22t6 33q9 14 64 73l14 1
l-12 -14q-15 -16 -12 -31.5t23 -19.5q32 -7 76 -7h244q84 0 84 -126zM64 93l-13 11q61 67 61 102v64q-20 48 -82 12q1 52 29 70q9 9 26.5 6t25.5 -15v51q-22 36 -78 4q1 51 29 71q9 9 27 5.5t26 -17.5q9 39 35.5 71t76.5 70l11 -8q-55 -58 -55 -153v-169q0 -80 -119 -175z
M178 103l-13 11q61 67 61 102l-1 203q0 53 27 92t89 87l11 -8q-55 -58 -55 -153v-159q0 -80 -119 -175z" />
    <glyph glyph-name="E" unicode="E" horiz-adv-x="593" 
d="M273 750h19q-120 -94 -168 -183t-48 -215q0 -111 79 -199q80 -89 195 -88q64 0 110 21q48 23 75 53q28 31 65 88l13 -26q-27 -70 -118 -136t-174 -66q-123 0 -218 84q-93 85 -93 215q0 144 60 250q59 105 203 202zM184 186l-13 12q61 64 61 101v17q-21 44 -82 10
q5 53 30 71q8 8 26 5t26 -16v75q-23 38 -79 6q5 54 30 70q8 7 24 5.5t25 -10.5q2 42 23 76t63 70l48 50q19 17 44 17q23 0 61 -20q37 -19 59 -19q12 0 28 11l7 -7l-29 -30q-32 -32 -61 -32q-21 0 -52 18q-32 18 -52 18q-13 0 -29 -9q-40 -52 -40 -134v-110l42 45
q16 16 43 16q24 0 59 -19q36 -18 57 -18q14 0 27 10l7 -7l-29 -29q-28 -31 -58 -31q-19 0 -51 17q-31 18 -50 18q-23 0 -47 -24v-48q0 -81 -118 -175z" />
    <glyph glyph-name="F" unicode="F" horiz-adv-x="568" 
d="M-37 -12l1 12q89 96 159 104q7 1 30 1q27 37 27 61l-1 105q-19 46 -81 11q1 52 29 70q9 9 26.5 6t25.5 -15v51q-22 36 -78 4q1 51 29 71q8 7 24 6t25 -12q4 47 30.5 83t85.5 82l11 -8q-56 -59 -56 -153v-239q0 -62 -66 -129q34 -12 57 -35q55 61 55 95l-1 269
q0 74 36 114q30 34 99 94l14 -8q-78 -63 -78 -182v-57q9 12 15 18q18 18 41 19q22 1 61 -15q39 -17 59 -15q14 2 27 12l6 -6l-26 -31q-28 -33 -52 -34q-22 -2 -58 14q-37 17 -57 15q-11 -2 -16 -5v-140q0 -51 -61 -118q-65 -71 -119 -103q-57 55 -116 49q-54 -8 -107 -61z
M112 602l-6 10q8 10 20 30q32 46 48 60q35 30 92 30q40 0 120 -9q86 -8 122 -8q63 0 98 35l7 -3q-12 -42 -42 -69t-70 -27q-47 0 -138 6t-138 6q-37 0 -63 -14q-24 -12 -50 -47z" />
    <glyph glyph-name="G" unicode="G" horiz-adv-x="681" 
d="M184 186l-13 12q61 64 61 101v17q-21 44 -82 10q5 53 30 71q8 8 26 5t26 -16v75q-23 38 -79 6q5 54 30 70q8 7 24 5.5t25 -10.5q2 42 23 76t63 70l48 50q19 17 44 17q23 0 61 -20q37 -19 59 -19q12 0 28 11l7 -7l-29 -30q-32 -32 -61 -32q-21 0 -52 18q-32 18 -52 18
q-13 0 -29 -9q-40 -52 -40 -134v-97l27 32q16 16 37 16t52 -19q33 -18 51 -18q13 0 24 10l20 -1q74 0 114 -48.5t40 -135.5q0 -110 -104 -196q-103 -85 -243 -85q-128 0 -219 88t-91 233q0 130 62 233t201 197h19q-121 -95 -168 -182q-48 -87 -48 -207q0 -115 80 -206
q80 -90 200 -90q234 0 234 215q0 56 -27 105t-64 49h-21l-4 -5q-25 -31 -52 -31q-17 0 -45 17q-27 18 -44 18q-14 0 -31 -14v-58q0 -81 -118 -175z" />
    <glyph glyph-name="H" unicode="H" horiz-adv-x="717" 
d="M-37 -12l1 12q89 96 159 104q7 1 30 1q27 37 27 61l-1 105q-19 46 -81 11q1 52 29 70q9 9 26.5 6t25.5 -15v51q-22 36 -78 4q1 51 29 71q8 7 24 6t25 -12q4 47 30.5 83t85.5 82l11 -8q-55 -58 -55 -153v-239q0 -62 -67 -129q34 -12 57 -35q55 61 55 95l-1 313
q0 74 36 114q30 34 99 94l14 -8q-77 -62 -77 -182v-269q0 -50 -62 -118q-65 -71 -119 -103q-57 55 -116 49q-54 -8 -107 -61zM544 68l-1 250q-30 4 -86 2q-30 0 -47 -29l-12 8q37 67 37 93q0 8 -8 29l9 4l17 -28q35 -4 90 -4v150q0 73 36 113q32 39 99 94q22 -45 63 -45
q29 0 81 35l5 -6q-30 -30 -68 -55q-38 -26 -63 -26q-39 0 -61 16q-20 -46 -20 -108v-444q30 -31 55 -49l40 27l9 -10q-56 -42 -104 -85q-24 29 -53 53l-56 -47l-7 7q32 32 45 55zM129 644l-9 6q5 7 33 40l38 42q21 18 48 18q26 0 68 -21q43 -21 66 -21q14 0 31 11l8 -7
l-32 -33q-35 -35 -62 -35q-22 0 -65 20q-41 21 -63 21q-19 0 -30 -10q-4 -3 -9.5 -8.5t-12.5 -13t-9 -9.5z" />
    <glyph glyph-name="I" unicode="I" horiz-adv-x="421" 
d="M67 644l-9 6q4 7 33 40l38 42q21 18 48 18q26 0 68 -21q43 -21 66 -21q14 0 31 11l8 -7l-32 -33q-15 -15 -25 -23q-52 -55 -52 -149v-279q0 -62 -65 -127q40 -11 65 -37q55 61 55 95l-1 371q0 70 36 117q54 71 113 103l5 -11q-49 -43 -66 -85q-16 -39 -16 -114v-319
q0 -50 -62 -118q-65 -71 -119 -103q-57 55 -116 49q-54 -8 -107 -61l1 12q89 96 159 104q4 1 20 1q27 37 27 61l-1 105q-19 46 -81 11q1 52 29 70q9 9 26.5 6t25.5 -15v56q-22 36 -78 4q1 51 29 71q8 7 24 5.5t25 -11.5v21q0 81 86 155q-22 0 -65 20q-41 21 -62 21
q-19 0 -30 -10q-4 -3 -9.5 -8.5t-12.5 -13t-9 -9.5z" />
    <glyph glyph-name="J" unicode="J" horiz-adv-x="406" 
d="M-55 -152l1 12q89 96 159 104q71 11 118 -40q55 62 55 95l-1 511q0 70 36 117q54 71 113 103l5 -11q-49 -43 -66 -85q-16 -39 -16 -114v-459q0 -50 -62 -118q-65 -71 -119 -103q-57 55 -116 49q-54 -8 -107 -61zM104 33l-13 11q61 67 61 102l-1 125q-19 46 -81 11
q1 52 29 70q9 9 26.5 6t25.5 -15v56q-22 36 -78 4q1 51 29 71q8 7 24 5.5t25 -11.5v21q0 81 86 155q-22 0 -65 20q-40 21 -62 21q-19 0 -30 -10q-4 -3 -9.5 -8.5t-12.5 -13t-9 -9.5l-9 6q4 7 33 40l38 42q21 18 48 18q26 0 68 -21q43 -21 66 -21q14 0 31 11l8 -7l-32 -33
q-18 -18 -25 -22q-52 -55 -52 -150v-299q0 -80 -119 -175z" />
    <glyph glyph-name="K" unicode="K" horiz-adv-x="680" 
d="M-37 -12l1 12q89 96 159 104q7 1 30 1q27 37 27 61l-1 105q-19 46 -81 11q1 52 29 70q9 9 26.5 6t25.5 -15v51q-22 36 -78 4q1 51 29 71q8 7 24 6t25 -12q4 47 30.5 83t85.5 82l11 -8q-55 -58 -55 -153v-239q0 -62 -67 -129q34 -12 57 -35q55 61 55 95l-1 313
q0 74 36 114q28 33 98 93l1 1l82 70l97 -87v-116l-125 -116l91 -87l60 47l7 -7q-7 -8 -29 -30.5t-29 -30.5v-206q27 -30 54 -49l41 27l9 -10q-56 -42 -104 -85q-26 32 -54 53l-55 -47l-7 7q32 32 45 55l-1 217l-88 86q-23 -9 -57 -35v-115q0 -50 -62 -118q-65 -71 -119 -103
q-57 55 -116 49q-54 -8 -107 -61zM367 490v-137l3 3l3 3l167 155v110l-68 63l-59 -46q-46 -55 -46 -151zM129 644l-9 6q5 7 33 40l38 42q21 18 48 18q26 0 68 -21q43 -21 66 -21q14 0 31 11l8 -7l-32 -33q-35 -35 -62 -35q-22 0 -65 20q-41 21 -63 21q-19 0 -30 -10
q-4 -3 -9.5 -8.5t-12.5 -13t-9 -9.5z" />
    <glyph glyph-name="L" unicode="L" horiz-adv-x="526" 
d="M16 -7l-6 10q40 56 77 90q7 7 14 11q28 37 28 62l-1 105q-19 46 -81 11q1 52 29 70q9 9 26.5 6t25.5 -15v51q-22 36 -78 4q1 51 29 71q8 7 24 6t25 -12q4 47 30.5 83t85.5 82l11 -8q-55 -58 -55 -153v-239q0 -51 -46 -106q5 1 23 1q17 0 35 -3q33 42 33 69l-1 283
q0 74 36 114q30 34 99 94l14 -8q-77 -62 -77 -182v-239q0 -57 -79 -137q4 -1 86 -26q78 -24 114 -24q63 0 98 35l8 -4q-13 -41 -43 -68t-70 -27q-46 0 -151 27q-103 27 -150 27q-37 0 -63 -14q-24 -12 -50 -47zM78 644l-9 6q4 7 33 40l38 42q21 18 48 18q26 0 68 -21
q44 -21 66 -21q14 0 31 11l8 -7l-32 -33q-35 -35 -62 -35q-22 0 -65 20q-40 21 -63 21q-19 0 -30 -10q-4 -3 -9.5 -8.5t-12.5 -13t-9 -9.5z" />
    <glyph glyph-name="M" unicode="M" horiz-adv-x="1021" 
d="M738 395q30 0 48 46l12 -7q-5 -10 -12 -25q-5 -10 -14 -31q-14 -36 -14 -59q-29 1 -124 1v-203q27 -30 54 -49l41 27l9 -10q-56 -42 -104 -85q-26 32 -54 53l-55 -47l-7 7q32 32 45 55l-1 252h-93q-30 0 -47 -29l-12 8q37 67 37 93q0 8 -8 29l9 4l17 -28q51 -3 97 -3v204
l-88 86q-20 -7 -41 -25q-66 -61 -66 -172v-266q0 -50 -62 -118q-65 -71 -119 -103q-57 55 -116 49q-54 -8 -107 -61l1 12q89 96 159 104q7 1 30 1q27 37 27 61l-1 105q-19 46 -81 11q1 52 29 70q9 9 26.5 6t25.5 -15v51q-22 36 -78 4q1 51 29 71q8 7 24 6t25 -12
q4 47 30.5 83t85.5 82l11 -8q-55 -58 -55 -153v-239q0 -62 -67 -129q34 -12 57 -35q55 61 55 95l-1 310q0 73 36 114q32 37 79 77q72 62 118 90l106 -115v-1q67 50 175 116l97 -93l60 47l7 -7q-7 -8 -29 -30.5t-29 -30.5v-519q27 -30 54 -49l41 27l9 -10q-56 -42 -104 -85
q-26 32 -54 53l-55 -47l-7 7q32 32 45 55l-1 530l-88 86q-50 -19 -121 -70v-221q6 0 104 2zM139 644l-9 6q4 7 33 40l38 42q21 18 48 18q26 0 68 -21q43 -21 66 -21q14 0 31 11l8 -7l-32 -33q-35 -35 -62 -35q-22 0 -65 20q-41 21 -63 21q-19 0 -30 -10q-4 -3 -9.5 -8.5
t-12.5 -13t-9 -9.5z" />
    <glyph glyph-name="N" unicode="N" horiz-adv-x="737" 
d="M-37 -12l1 12q89 96 159 104q7 1 30 1q27 37 27 61l-1 105q-19 46 -81 11q1 52 29 70q9 9 26.5 6t25.5 -15v51q-22 36 -78 4q1 51 29 71q8 7 24 6t25 -12q4 47 30.5 83t85.5 82l11 -8q-55 -58 -55 -153v-239q0 -62 -67 -129q34 -12 57 -35q55 61 55 95l-1 313
q0 74 36 114q30 34 99 94q52 43 95 70l97 -93l60 47l7 -7q-7 -8 -29 -30.5t-29 -30.5v-519q27 -30 54 -49l41 27l9 -10q-56 -42 -104 -85q-26 32 -54 53l-55 -47l-7 7q32 32 45 55l-1 530l-88 86q-20 -7 -42 -26q-62 -59 -62 -168v-269q0 -50 -62 -118q-65 -71 -119 -103
q-57 55 -116 49q-54 -8 -107 -61zM129 644l-9 6q5 7 33 40l38 42q21 18 48 18q26 0 68 -21q43 -21 66 -21q14 0 31 11l8 -7l-32 -33q-35 -35 -62 -35q-22 0 -65 20q-41 21 -63 21q-19 0 -30 -10q-4 -3 -9.5 -8.5t-12.5 -13t-9 -9.5z" />
    <glyph glyph-name="O" unicode="O" horiz-adv-x="707" 
d="M267 438l-4 -62q-20 48 -82 12q1 51 29 71q8 7 24 6t25 -12v67q0 41 14 63q12 21 81 77q39 36 122 90q102 -13 160 -106q57 -91 57 -220q0 -184 -103 -305q-104 -120 -270 -120q-128 0 -219 88t-91 233q0 130 62 233t201 197h19q-121 -95 -168 -182q-48 -87 -48 -207
q0 -116 80 -207q81 -91 200 -89q138 2 207 91q69 90 69 242q0 101 -64 195q-65 95 -140 95q-5 0 -34 -20q-31 -21 -42 -31q-15 -13 -18.5 -19t-3.5 -21v-229q0 -81 -118 -175l-13 11q61 67 61 102l-1 77v70q5 -5 8 -15z" />
    <glyph glyph-name="P" unicode="P" horiz-adv-x="497" 
d="M32 -12l-7 12q54 50 96 73q0 23 2 167q-20 48 -82 12q1 52 29 70q9 10 27 6.5t26 -17.5q0 8 0.5 33.5t0.5 31.5q-20 48 -82 12q1 51 29 71q8 8 26.5 5t26.5 -16v10q0 154 -60 154h-23q-36 0 -63 9q-20 6 -26.5 22t5.5 33q7 11 64 73l14 1l-12 -14q-15 -16 -11.5 -31.5
t23.5 -19.5q32 -7 75 -7q70 0 82 -87l131 109l106 -96l63 50l7 -7q-44 -44 -56 -59v-451l-147 -137q-53 40 -105 47q0 -37 -1 -66v-62q0 -73 -35 -114q-37 -43 -99 -93l-14 7q78 63 78 182q0 109 1 142q-40 -12 -89 -55zM375 553l-91 84l-89 -70v-15q0 -2 -2 -230
q-1 -114 -1 -221l20 3q75 9 128 -32l35 32v449z" />
    <glyph glyph-name="Q" unicode="Q" horiz-adv-x="717" 
d="M267 438l-4 -62q-20 48 -82 12q1 51 29 71q8 7 24 6t25 -12v67q0 41 14 63q12 21 81 77q39 36 122 90q102 -13 160 -106q57 -91 57 -220q0 -184 -103 -305q-104 -120 -270 -120q-128 0 -219 88t-91 233q0 130 62 233t201 197h19q-121 -95 -168 -182q-48 -87 -48 -207
q0 -116 80 -207q81 -91 200 -89q138 2 207 91q69 90 69 242q0 101 -64 195q-65 95 -140 95q-5 0 -34 -20q-31 -21 -42 -31q-15 -13 -18.5 -19t-3.5 -21v-229q0 -81 -118 -175l-13 11q61 67 61 102l-1 77v70q5 -5 8 -15zM399 -103l-20 -17l-13 12q34 32 61 54
q20 19 36.5 18.5t51.5 -21.5q11 -7 45.5 -33t47.5 -35q21 -15 33.5 -16.5t37.5 10.5l27 18l9 -10q-5 -5 -19 -19.5t-25.5 -26t-19.5 -18.5q-21 -17 -50 -13t-55 27q-11 11 -26 25q-37 34 -68 54q-19 9 -27 7.5t-26 -16.5z" />
    <glyph glyph-name="R" unicode="R" horiz-adv-x="712" 
d="M547 68v238l-72 65l-108 -85v-65q0 -50 -62 -118q-65 -71 -119 -103q-57 55 -116 49q-54 -8 -107 -61l1 12q89 96 159 104q4 1 20 1q27 37 27 61l-1 105q-19 46 -81 11q1 52 29 70q9 9 26.5 6t25.5 -15v56q-22 36 -78 4q1 51 29 71q8 7 24 5.5t25 -11.5v21q0 81 86 155
q-22 0 -65 20q-41 21 -62 21q-19 0 -30 -10q-4 -3 -9.5 -8.5t-12.5 -13t-9 -9.5l-9 6q4 7 33 40l38 42q21 18 48 18q26 0 68 -21q43 -21 66 -21q14 0 31 11l8 -7l-32 -33q-18 -18 -25 -22q-52 -55 -52 -150v-279q0 -62 -65 -127q40 -11 65 -37q55 61 55 95l-1 345
q0 70 36 117q37 46 70 74q41 34 81 34q58 0 100 -39q43 -37 43 -94q0 -76 -95 -177l71 -64l62 50l7 -7q-19 -19 -55 -58v-223q27 -28 55 -49l41 27l9 -10q-44 -31 -105 -85q-24 29 -53 53l-55 -47l-7 7q38 38 47 55zM367 514v-204l113 96l4 3q83 74 83 148q0 51 -40 91
q-41 41 -90 41q-12 0 -15 -1q-32 -35 -43.5 -72.5t-11.5 -101.5z" />
    <glyph glyph-name="S" unicode="S" horiz-adv-x="467" 
d="M416 762l-1 -12q-89 -96 -160 -104q-61 -7 -104 27q-21 -47 -21 -112v-111q54 -57 67 -67l93 78l105 -95l63 50l7 -7q-19 -19 -55 -58v-214l-147 -137q-70 55 -146 49q-55 -4 -118 -61l-7 12q104 95 187 104q76 7 128 -32l35 32v210l-90 83q-93 -71 -107 -84
q-41 48 -65 69l-21 -14v3l-68 -58l-8 7q59 59 76 83l-1 140q0 69 36 113q40 47 99 94q57 -57 116 -49q52 6 107 61z" />
    <glyph glyph-name="T" unicode="T" horiz-adv-x="510" 
d="M-20 -12l1 12q89 96 159 104q7 1 30 1q27 37 27 61l-1 105q-19 46 -81 11q1 52 29 70q9 9 26.5 6t25.5 -15v51q-22 36 -78 4q1 51 29 71q8 7 24 6t25 -12q4 47 30.5 83t85.5 82l11 -8q-56 -59 -56 -153v-239q0 -62 -66 -129q34 -12 57 -35q55 61 55 95l-1 303q0 53 27 92
t89 87l11 -8q-56 -59 -56 -153v-259q0 -51 -61 -118q-65 -71 -119 -103q-57 55 -116 49q-54 -8 -107 -61zM-11 602l-6 10q8 10 20 30q32 46 48 60q34 30 92 30q65 0 211 -9q155 -8 211 -8q63 0 98 35l7 -3q-12 -42 -42 -69t-70 -27q-70 0 -228 6t-228 6q-37 0 -63 -14
q-24 -12 -50 -47z" />
    <glyph glyph-name="U" unicode="U" horiz-adv-x="604" 
d="M119 91q0 35 2 179q-20 48 -82 12q1 52 29 70q9 10 28.5 6t25.5 -19q1 10 1 48q-19 46 -81 11q1 51 29 71q8 8 26.5 5t26.5 -16v29q0 154 -60 154h-23q-36 0 -63 9q-20 6 -26.5 22t5.5 33q7 11 64 73l14 1l-12 -14q-14 -18 -11.5 -35.5t23.5 -21.5q2 -1 75 -1
q85 0 85 -126q0 -85 -3 -222q-2 -180 -2 -222q56 -60 70 -69l167 111v445q-29 23 -53 38q34 26 81 68q41 -61 93 -86q-30 -24 -50 -41v-486q30 -31 55 -49l40 27l9 -10q-47 -34 -104 -85q-24 29 -53 53l-56 -47l-7 7q32 32 45 55v95q-130 -86 -222 -163q-39 50 -68 73
l-86 -73l-8 7q54 54 76 84z" />
    <glyph glyph-name="V" unicode="V" horiz-adv-x="504" 
d="M119 121q0 119 1 150q-21 47 -81 11q1 52 29 70q9 10 28.5 6t25.5 -19q1 11 1 48q-19 46 -81 11q1 51 29 71q8 8 26.5 5t26.5 -16v29q0 154 -60 154h-23q-36 0 -63 9q-20 6 -26.5 22t5.5 33q7 11 64 73l14 1l-12 -14q-14 -18 -11.5 -35.5t23.5 -21.5q2 -1 75 -1
q85 0 85 -126q0 -89 -3 -215q-2 -166 -2 -199q47 -50 121 -99l112 79v445q-28 31 -86 70q34 26 81 68q41 -61 93 -86q-33 -25 -67 -56v-442q-117 -77 -192 -146q-29 35 -115 103l-86 -73l-8 7q54 54 76 84z" />
    <glyph glyph-name="W" unicode="W" horiz-adv-x="744" 
d="M119 121q0 119 1 150q-21 47 -81 11q1 52 29 70q9 10 28.5 6t25.5 -19q1 11 1 48q-19 46 -81 11q1 51 29 71q8 8 26.5 5t26.5 -16v29q0 154 -60 154h-23q-36 0 -63 9q-20 6 -26.5 22t5.5 33q7 11 64 73l14 1l-12 -14q-14 -18 -11.5 -35.5t23.5 -21.5q2 -1 75 -1
q85 0 85 -126q0 -89 -3 -215q-2 -166 -2 -199q47 -50 121 -99l76 54v210h-84q-30 0 -47 -29l-12 8q37 67 37 93q0 8 -8 29l9 4l17 -28q48 -3 88 -3v238q-29 23 -53 38q34 26 81 68q41 -61 93 -86q-30 -24 -50 -41v-218l88 2q30 0 48 46l12 -7q-5 -10 -12 -25q-5 -10 -14 -31
q-14 -36 -14 -59q-26 1 -108 1v-183q52 -49 100 -80l105 77v446q-28 31 -86 70q34 26 81 68q41 -61 93 -86q-33 -25 -67 -56v-442q-80 -52 -182 -146q-20 24 -118 105q-74 -49 -132 -105q-29 35 -115 103l-86 -73l-8 7q54 54 76 84z" />
    <glyph glyph-name="X" unicode="X" horiz-adv-x="571" 
d="M-50 -12l1 12q89 96 159 104q30 4 68 -7l106 274l-74 204q-10 28 -32 47t-45 19h-24q-35 0 -62 9q-21 6 -27 22t6 33q6 9 63 73l15 1l-13 -14q-15 -18 -11.5 -35.5t23.5 -21.5q3 -1 76 -1q61 0 89 -76l56 -156l98 253q8 17 44 17q23 0 60 -20q37 -19 60 -19q12 0 28 11
l7 -7l-29 -30q-32 -32 -61 -32q-21 0 -51 18q-28 19 -46 21l-95 -251l113 -309q55 -35 86 -48l52 62l12 -9q-53 -68 -98 -133q-57 40 -86 51l-35 -53l-15 4q21 42 29 62l-98 268l-126 -331q-57 55 -116 49q-54 -8 -107 -61z" />
    <glyph glyph-name="Y" unicode="Y" horiz-adv-x="447" 
d="M271 682q3 2 81 68q40 -59 93 -86q-25 -20 -48 -39v-404q0 -50 -62 -118q-65 -71 -119 -103l2 3l-3 -3q-57 55 -116 49q-54 -8 -107 -61l1 12q89 96 160 104q33 4 64.5 -6.5t52.5 -33.5q56 62 56 95l-1 268q-102 -71 -168 -127q-39 48 -69 73l-86 -73l-7 7q54 54 76 84
q0 51 1 85q0 14 0.5 29t1 23t0.5 11q-9 102 -58 102h-24q-35 0 -62 9q-21 6 -27 22t6 33q6 9 63 73l15 1l-13 -14q-15 -18 -11.5 -35.5t23.5 -21.5q3 -1 76 -1q85 0 85 -126q0 -29 -3 -72q-2 -58 -2 -72q49 -55 70 -69l113 76v199q-21 17 -54 39z" />
    <glyph glyph-name="Z" unicode="Z" horiz-adv-x="529" 
d="M402 395q30 0 48 46l12 -7q-5 -10 -12 -25q-5 -10 -14 -31q-14 -36 -14 -59q-38 1 -162 1l-136 -195q18 5 43 5q39 0 129 -33t129 -33q63 0 98 35l8 -4q-13 -41 -43 -68t-70 -27q-46 0 -150 30q-102 31 -149 31q-37 0 -63 -14q-24 -12 -50 -47l-6 10l6 8l215 302h-88
q-30 0 -47 -29l-12 8q37 67 37 93q0 8 -8 29l9 4l17 -28q92 -4 144 -4l184 260q-18 -2 -22 -2q-47 0 -138 6t-138 6q-37 0 -63 -14q-24 -12 -50 -47l-6 10q8 10 20 30q32 46 48 60q34 30 92 30q40 0 121 -9q86 -8 121 -8q63 0 98 35l7 -3q-7 -25 -25 -51l-211 -303q5 0 91 2
z" />
    <glyph glyph-name="bracketleft" unicode="[" horiz-adv-x="248" 
d="M226 -61l-177 -1v703l62 59h172l-57 -58l-114 -1l-1 -644h172z" />
    <glyph glyph-name="backslash" unicode="\" horiz-adv-x="285" 
d="M47 700l209 -712l-62 -50l-210 705z" />
    <glyph glyph-name="bracketright" unicode="]" horiz-adv-x="248" 
d="M-4 699l177 1v-703l-62 -59h-172l57 58l114 1l1 644h-172z" />
    <glyph glyph-name="asciicircum" unicode="^" horiz-adv-x="413" 
d="M167 641l-142 -141l-16 13l192 187l162 -154l-50 -46z" />
    <glyph glyph-name="underscore" unicode="_" horiz-adv-x="580" 
d="M501 -54l-497 -1l58 55h492z" />
    <glyph glyph-name="grave" unicode="`" horiz-adv-x="142" 
d="M31 696l111 -81l-39 -55l-120 86z" />
    <glyph glyph-name="a" unicode="a" horiz-adv-x="423" 
d="M429 99l-93 -99l-74 85l-103 -85l-97 69l-53 -69l-8 8l52 69v286l152 137l100 -90l58 81l8 -8l-57 -81v-274l61 -70l46 49zM115 115l83 -60l54 45v267l-83 76l-54 -50v-278z" />
    <glyph glyph-name="b" unicode="b" horiz-adv-x="371" 
d="M-4 603l98 97l50 -48l48 47l8 -8l-83 -84v-188l90 81l101 -91l54 75l8 -8l-54 -77v-271l-155 -128l-97 69l-45 -59l-8 8l44 58v568l-51 -49zM117 115l83 -60l54 45v267l-83 76l-54 -50v-278z" />
    <glyph glyph-name="c" unicode="c" horiz-adv-x="272" 
d="M266 490l5 -4q-32 -47 -74 -61q-46 -16 -89 20v-342l51 -47l43 34l9 -8l-96 -82l-61 58l-45 -58l-8 8l45 60v343l96 89q31 -27 65 -27q28 0 59 17z" />
    <glyph glyph-name="d" unicode="d" horiz-adv-x="423" 
d="M185 603l98 97l50 -48l48 47l8 -8l-75 -76v-487l61 -70l46 49l8 -8l-93 -99l-74 85l-103 -85l-97 69l-53 -69l-8 8l52 69v286l152 137l47 -48v184l-8 8l-51 -49zM115 115l83 -60l54 45v269l-83 74l-54 -50v-278z" />
    <glyph glyph-name="e" unicode="e" horiz-adv-x="274" 
d="M192 500l66 -120l-150 -120v-157l51 -47l43 34l9 -8l-96 -82l-61 58l-45 -58l-8 8l45 60v290zM105 401l3 2v-127l91 74l-52 92z" />
    <glyph glyph-name="f" unicode="f" horiz-adv-x="242" 
d="M274 690l5 -4q-32 -47 -74 -61q-44 -15 -85 17v-142h110l-53 -53h-57v-353l36 -35l46 49l8 -8l-94 -100l-50 49l-46 -49l-8 8l46 48v390h-58l58 54v113l-49 70l8 8l49 -69l84 78q32 -27 65 -27q28 0 59 17z" />
    <glyph glyph-name="g" unicode="g" horiz-adv-x="376" 
d="M1 29l51 68v266l152 137l101 -91l45 63l8 -8l-45 -64v-4l-1 -272l-1 -1l-1 -279q-30 -52 -78 -93q-48 -42 -90 -42q-35 0 -62 21t-28 55q-1 82 49.5 143t147.5 113v42l-112 -73l-77 78l-51 -67zM168 443l-54 -50v-262l68 -71l67 44l2 263zM176 -247q31 0 67 33q8 18 8 41
v196q-69 -43 -103 -89t-34 -111q0 -33 17 -51.5t45 -18.5z" />
    <glyph glyph-name="h" unicode="h" horiz-adv-x="424" 
d="M108 0l-59 66l21 19v551l-8 8l-51 -49l-8 8l98 97l50 -48l48 47l8 -8l-75 -76v-252l141 137l66 -54v-354l35 -34l48 47l8 -8l-95 -97l-50 49l-50 -49l-8 8l50 50v350l-42 36l-103 -98v-266l27 -29z" />
    <glyph glyph-name="i" unicode="i" horiz-adv-x="227" 
d="M-2 403l98 97l50 -48l48 47l8 -8l-75 -76v-321l36 -35l46 49l8 -8l-94 -100l-50 49l-46 -49l-8 8l46 48v380l-8 8l-51 -49z" />
    <glyph glyph-name="j" unicode="j" horiz-adv-x="203" 
d="M5 403l98 97l50 -48l48 47l8 -8l-76 -77v-436q0 -68 -8 -130q-5 -33 -50 -62q-39 -26 -92 -43l-8 7l49 29q37 24 40 44q9 53 9 154v458l-9 9l-51 -49z" />
    <glyph glyph-name="k" unicode="k" horiz-adv-x="397" 
d="M92 0l-59 66l25 23v535l-16 15l-31 -30l-8 8l82 83l55 -54l41 40l8 -8l-68 -67l-1 -238l131 127l66 -120l-66 -50l66 -66v-178l30 -28l48 47l8 -8l-95 -97l-54 52v176l-59 56l-75 -59v-149l23 -25zM258 350l-52 92l-86 -84v-119z" />
    <glyph glyph-name="l" unicode="l" horiz-adv-x="219" 
d="M-10 603l98 97l50 -48l48 47l8 -8l-75 -76v-521l36 -35l46 49l8 -8l-94 -100l-50 49l-46 -49l-8 8l46 48v580l-8 8l-51 -49z" />
    <glyph glyph-name="m" unicode="m" horiz-adv-x="609" 
d="M106 0l-59 66l25 23v335l-16 15l-31 -30l-8 8l82 83l55 -54l41 40l8 -8l-68 -67v-39l132 128l58 -47v-67l117 114l58 -47l48 47l8 -8l-48 -47v-353l35 -34l48 47l8 -8l-95 -97l-50 49l-50 -49l-8 8l50 50v350l-42 36l-79 -75v-280l35 -38l-51 -51l-59 66l13 12v336
l-34 30l-94 -89l-1 -279l23 -25z" />
    <glyph glyph-name="n" unicode="n" horiz-adv-x="435" 
d="M106 0l-59 66l25 23v335l-16 15l-31 -30l-8 8l82 83l55 -54l41 40l8 -8l-68 -67v-40l133 129l66 -54v-354l35 -34l48 47l8 -8l-95 -97l-50 49l-50 -49l-8 8l50 50v350l-42 36l-95 -90l-1 -278l23 -25z" />
    <glyph glyph-name="o" unicode="o" horiz-adv-x="372" 
d="M314 128l-155 -128l-97 69l-53 -69l-8 8l52 69v286l152 137l100 -90l58 81l8 -8l-57 -81v-274zM115 115l83 -60l54 45v267l-83 76l-54 -50v-278z" />
    <glyph glyph-name="p" unicode="p" horiz-adv-x="396" 
d="M-19 403l98 97l66 -70l84 70l100 -90l58 81l8 -8l-57 -81v-278l-134 -124q-32 38 -57 51v-212q0 -26 10 -47q11 -23 35 -53q26 -32 27 -35q-13 -4 -49 21q-37 26 -50 45q-17 -23 -46 -46q-30 -23 -41 -19q2 5 17 28.5t19 31.5q18 34 18 74v221q-38 -9 -81 -52l-16 7
q53 56 97 74v305l-47 50l-51 -49zM276 367l-83 76l-46 -37v-307q55 -4 87 -43l42 38v273z" />
    <glyph glyph-name="q" unicode="q" horiz-adv-x="370" 
d="M279 -230q-17 -23 -46 -46q-30 -23 -41 -19q2 5 17 28.5t19 31.5q18 34 18 74v239l-95 -78l-97 69l-45 -59l-8 8l44 58v287l152 137l101 -91l42 60l8 -8l-42 -60v-562q0 -26 10 -47q11 -23 35 -53q26 -32 27 -35q-13 -4 -49 21q-37 26 -50 45zM107 115l83 -60l54 45v267
l-83 76l-54 -50v-278z" />
    <glyph glyph-name="r" unicode="r" horiz-adv-x="288" 
d="M216 500l62 -60l-56 -56l-54 50l-38 -38v-302l36 -35l46 49l8 -8l-94 -100l-50 49l-46 -49l-8 8l46 48v380l-8 8l-51 -49l-8 8l98 97l60 -57z" />
    <glyph glyph-name="s" unicode="s" horiz-adv-x="315" 
d="M248 490l5 -4q-32 -46 -72 -59q-45 -14 -83 17v-142l45 -49l55 42l70 -63v-124l55 -73l-8 -8l-56 73l-125 -100q-51 57 -128 0l-5 5q77 77 132 77q29 0 53 -15l18 8l2 2v120l-52 48l-59 -46l-59 66v149l-48 69l8 8l49 -70l79 74l4 5v-1l1 1v-2q30 -24 62 -24t57 16z" />
    <glyph glyph-name="t" unicode="t" horiz-adv-x="257" 
d="M247 500l-53 -53h-57v-343l46 -45l46 49l8 -8l-94 -100l-60 59l-46 -49l-8 8l46 48v380h-58l120 112v-58h110z" />
    <glyph glyph-name="u" unicode="u" horiz-adv-x="418" 
d="M286 500l62 -60l-30 -30l-3 -290l55 -62l46 49l8 -8l-93 -99l-79 91l-108 -91l-89 76v348l-16 15l-31 -30l-8 8l82 83l55 -54l41 40l8 -8l-68 -67l-1 -298l71 -57l65 53l2 309l-26 25z" />
    <glyph glyph-name="v" unicode="v" horiz-adv-x="362" 
d="M282 500l62 -60l-50 -50v-281l-109 -109l-105 89l-46 -49l-8 8l46 48v312l-36 36l-51 -49l-8 8l98 97l59 -57v-307l91 -77l54 51v282l-54 51z" />
    <glyph glyph-name="w" unicode="w" horiz-adv-x="551" 
d="M471 500l62 -60l-49 -49v-285l-107 -106l-104 88l-88 -88l-105 89l-46 -49l-8 8l46 48v312l-36 36l-51 -49l-8 8l98 97l59 -57v-307l91 -77l39 37v310l-39 37l57 57l62 -60l-18 -18v-286l91 -77l52 48v284l-55 52z" />
    <glyph glyph-name="x" unicode="x" horiz-adv-x="398" 
d="M185 496l9 -7l-57 -69l61 -117l73 197q41 -34 73 -29q27 5 40 19l6 -2q-45 -66 -82 -70q-20 -3 -45 9l-54 -146l100 -189l38 -30l41 54l9 -7l-84 -109l-55 44l-40 -54l-9 7l47 61l-75 146l-76 -204q-37 34 -73 29q-27 -5 -40 -19l-6 2q44 65 82 70q21 2 44 -9l57 153
l-100 196l-18 13l-27 -33l-9 7l73 91l60 -48z" />
    <glyph glyph-name="y" unicode="y" horiz-adv-x="381" 
d="M281 500l62 -60l-30 -30l-3 -569q-32 -56 -80 -96q-49 -43 -92 -43q-36 0 -63 21t-27 55q0 82 52 143.5t149 114.5v57l-103 -88l-80 68l-57 -73l-8 8l56 74v342l-16 15l-31 -30l-8 8l82 83l55 -54l41 40l8 -8l-68 -67l-1 -293l71 -57l59 48l2 309l-27 25zM172 -254
q33 0 71 37q8 18 8 41v194q-70 -42 -105 -89t-36 -113q0 -33 17 -51.5t45 -18.5z" />
    <glyph glyph-name="z" unicode="z" horiz-adv-x="322" 
d="M286 412l-251 -376q22 17 64 37q37 19 64 19q65 0 98 -33l53 52l10 -11l-111 -109q-47 42 -97 42q-33 0 -115 -33l-12 15l264 395l-196 -2q-15 0 -27 8.5t-12 20.5q0 17 23 43q23 24 36 29l6 -6q-10 -19 -10 -24q0 -16 23 -16l178 1q27 0 27 -22q0 -10 -15 -30z" />
    <glyph glyph-name="braceleft" unicode="{" horiz-adv-x="242" 
d="M148 0l83 -60l-39 -55l-106 76v246l-80 66l90 81v209l152 137l11 -14l-101 -93v-207l-90 -83l80 -58v-245z" />
    <glyph glyph-name="bar" unicode="|" horiz-adv-x="237" 
d="M145 700l-1 -712l-62 -50v705z" />
    <glyph glyph-name="braceright" unicode="}" horiz-adv-x="242" 
d="M83 585l-83 60l39 55l106 -76v-246l80 -66l-90 -81v-209l-152 -137l-11 14l101 93v207l90 83l-80 58v245z" />
    <glyph glyph-name="asciitilde" unicode="~" horiz-adv-x="286" 
d="M106 318q19 0 48 -16t47 -16q19 0 47 19l7 -7q-62 -57 -73 -64q-13 -10 -30 -10q-19 0 -48 16t-48 16q-20 0 -46 -19l-7 8q71 61 73 63q13 10 30 10z" />
    <glyph glyph-name="exclamdown" unicode="&#xa1;" horiz-adv-x="267" 
d="M139 520l59 -66l-25 -23v-355l16 -15l31 30l8 -8l-82 -83l-55 54l-41 -40l-8 8l68 67l1 355l-23 25zM141 700l57 -64l-55 -50l-57 63z" />
    <glyph glyph-name="cent" unicode="&#xa2;" horiz-adv-x="295" 
d="M126 42l-67 64v255l84 78v96h15v-88q30 -24 62 -24q28 0 59 17l5 -4q-32 -47 -74 -61q-46 -16 -89 20v-252l51 -47l43 34l9 -8l-83 -71v-86h-15v77z" />
    <glyph glyph-name="sterling" unicode="&#xa3;" horiz-adv-x="330" 
d="M295 490l5 -4q-32 -47 -74 -61q-44 -15 -85 17v-145h110l-53 -53h-57v-153q21 9 45 9q68 0 105 -52l-37 -48q-50 62 -101 62q-43 0 -97 -54l-16 7q21 21 39 37v191h-58l58 54v116l-49 70l8 8l49 -69l84 78q31 -27 65 -27q28 0 59 17z" />
    <glyph glyph-name="currency" unicode="&#xa4;" horiz-adv-x="363" 
d="M265 170l54 -76l-11 -9l-54 78l-102 -67l-69 49l-46 -49l-8 8l47 48v114l-53 77l8 8l54 -77l118 106l95 -87l48 53l7 -9l-46 -51v-88zM137 304v-114l58 -42l50 31v72l-83 75z" />
    <glyph glyph-name="yen" unicode="&#xa5;" horiz-adv-x="382" 
d="M287 396l-50 56l52 48l58 -63l-45 -45v-61l-79 -77l-1 -39h87l-50 -50h-37v-90l17 -16l46 49l8 -8l-95 -100l-50 49l-46 -49l-8 8l66 69v87h-83l55 51h28v37l-72 59v96l-35 37l-51 -49l-8 8l98 97l58 -61v-88l83 -70l54 52v63z" />
    <glyph glyph-name="brokenbar" unicode="&#xa6;" horiz-adv-x="237" 
d="M145 700l-1 -312l-62 -50v305zM145 300l-1 -312l-62 -50v305z" />
    <glyph glyph-name="section" unicode="&#xa7;" horiz-adv-x="372" 
d="M245 147l-216 215l102 80l-77 82v84l96 88l4 4v-1l1 1v-2q30 -24 62 -24t57 16l5 -4q-32 -46 -72 -59q-45 -13 -85 18l-6 -4v-80l217 -226l-101 -80l75 -73v-65l-147 -117q-51 57 -128 0l-5 5q77 77 132 77q31 0 57 -17l29 22v60zM268 298l-130 136l-48 -38l134 -133z
" />
    <glyph glyph-name="dieresis" unicode="&#xa8;" 
d="M134 554l-57 64l55 50l57 -63zM264 554l-57 64l55 50l57 -63z" />
    <glyph glyph-name="copyright" unicode="&#xa9;" horiz-adv-x="657" 
d="M596 478v-231l-283 -247l-268 192v239l300 269zM107 461v-232l242 -177l185 164v229l-222 201zM302 167l-76 59v205l99 89q35 -38 67 -38q27 0 44 14l5 -3q-53 -59 -90 -59q-16 0 -63 16v-187l58 -40l43 34l9 -8z" />
    <glyph glyph-name="ordfeminine" unicode="&#xaa;" horiz-adv-x="411" 
d="M138 343l-106 76v147l148 134l113 -95v-134l60 -69l29 26l9 -9l-81 -70l-69 79zM94 458l83 -60l54 45v127l-87 73l-50 -47v-138z" />
    <glyph glyph-name="guillemotleft" unicode="&#xab;" horiz-adv-x="430" 
d="M25 222l166 155l13 -11l-111 -109l128 -103l-44 -51zM185 232l166 155l13 -11l-111 -109l128 -103l-44 -51z" />
    <glyph glyph-name="logicalnot" unicode="&#xac;" horiz-adv-x="391" 
d="M260 442l-241 -1l62 59h242l-1 -163l-62 -47v152z" />
    <glyph glyph-name="registered" unicode="&#xae;" horiz-adv-x="657" 
d="M596 478v-231l-283 -247l-268 192v239l300 269zM107 461v-232l242 -177l185 164v229l-222 201zM305 165l-63 49v222l-8 8l-51 -49l-8 8l98 97l60 -57l57 57l62 -60l-56 -56l-54 50l-38 -38v-145l45 -30l43 34l9 -8z" />
    <glyph glyph-name="overscore" unicode="&#xaf;" 
d="M264 579l-177 -1l62 59h172z" />
    <glyph glyph-name="degree" unicode="&#xb0;" horiz-adv-x="258" 
d="M27 606l127 114l76 -54v-86l-127 -114l-76 54v86zM88 560l58 -42l25 22v84l-58 42l-25 -22v-84z" />
    <glyph glyph-name="plusminus" unicode="&#xb1;" horiz-adv-x="403" 
d="M176 305h-159l57 55h102v93l63 47l-1 -140h158l-52 -54l-106 -1v-90l-62 -47v137zM334 55l-307 -1l57 55h302z" />
    <glyph glyph-name="twosuperior" unicode="&#xb2;" horiz-adv-x="340" 
d="M39 280l-13 15l190 194v74l-98 -80l-69 49l-46 -49l-8 8l47 48v114l143 127l84 -76l48 53l7 -9l-47 -52h1v-175l-178 -177q43 28 81 28q55 0 92 -42l60 61l9 -10l-105 -109q-50 62 -101 62q-43 0 -97 -54zM103 691v-114l58 -42l55 45v81l-72 65z" />
    <glyph glyph-name="threesuperior" unicode="&#xb3;" horiz-adv-x="350" 
d="M260 477l-83 76l100 137l-196 -2q-15 0 -27 8.5t-12 20.5q0 17 23 43q23 24 36 29l6 -6q-10 -19 -10 -24q0 -18 23 -16l178 1q27 0 27 -22q0 -10 -15 -30l-75 -102l78 -70l58 81l8 -8l-57 -81v-108l-134 -124q-50 62 -101 62q-43 0 -97 -54l-16 7q81 85 146 85
q60 0 98 -44l42 38v103z" />
    <glyph glyph-name="acute" unicode="&#xb4;" 
d="M122 556l133 124l14 -14l-133 -123z" />
    <glyph glyph-name="paragraph" unicode="&#xb6;" horiz-adv-x="478" 
d="M272 470l-1 -482l-62 -50v433l-165 118v107l115 104l113 -95v-135zM402 700l-1 -712l-62 -50v705z" />
    <glyph glyph-name="middot" unicode="&#xb7;" horiz-adv-x="254" 
d="M129 200l-57 64l55 50l57 -63z" />
    <glyph glyph-name="cedilla" unicode="&#xb8;" 
d="M179 5l5 4q23 -21 51 -65q31 -46 31 -73q0 -29 -51 -58l-44 64q1 1 6.5 5t7.5 5.5t6.5 5.5t7 6.5t5.5 6.5t5 7.5t3 8t1 9.5q0 22 -34 74z" />
    <glyph glyph-name="onesuperior" unicode="&#xb9;" horiz-adv-x="255" 
d="M-2 683l98 97l54 -52v-354l36 -35l46 49l8 -8l-94 -100l-50 49l-46 -49l-8 8l46 48v357l-31 31l-51 -49z" />
    <glyph glyph-name="ordmasculine" unicode="&#xba;" horiz-adv-x="330" 
d="M138 343l-106 76v147l148 134l113 -95v-134zM94 458l83 -60l54 45v127l-87 73l-50 -47v-138z" />
    <glyph glyph-name="guillemotright" unicode="&#xbb;" horiz-adv-x="430" 
d="M245 258l-166 -155l-13 11l111 109l-128 103l44 51zM405 268l-166 -155l-13 11l111 109l-128 103l44 51z" />
    <glyph glyph-name="onequarter" unicode="&#xbc;" horiz-adv-x="751" 
d="M590 384l-25 28l52 48l63 -68l-29 -29l-3 -309l37 -35l46 49l8 -8l-95 -100l-50 49l-46 -49l-8 8l46 48l2 185q-42 -38 -45 -41q-14 -8 -23 -8q-14 0 -36 13t-36 13q-12 0 -34 -15l-5 6v215l-16 15l-31 -30l-8 8l82 83l55 -54l41 40l8 -8l-68 -67l-1 -148q4 4 15 4
q14 0 36 -13t35 -13q14 0 31 11zM-2 683l98 97l54 -52v-354l36 -35l46 49l8 -8l-94 -100l-50 49l-46 -49l-8 8l46 48v357l-31 31l-51 -49zM547 685l-497 -694l-9 9l496 691z" />
    <glyph glyph-name="onehalf" unicode="&#xbd;" horiz-adv-x="662" 
d="M361 -40l-13 15l190 194v74l-98 -80l-69 49l-46 -49l-8 8l47 48v114l143 127l84 -76l48 53l7 -9l-47 -52h1v-175l-178 -177q43 28 81 28q55 0 92 -42l60 61l9 -10l-105 -109q-50 62 -101 62q-43 0 -97 -54zM-2 683l98 97l54 -52v-354l36 -35l46 49l8 -8l-94 -100l-50 49
l-46 -49l-8 8l46 48v357l-31 31l-51 -49zM425 371v-114l58 -42l55 45v81l-72 65zM547 685l-497 -694l-9 9l496 691z" />
    <glyph glyph-name="threequarters" unicode="&#xbe;" horiz-adv-x="846" 
d="M685 384l-25 28l52 48l63 -68l-29 -29l-3 -309l37 -35l46 49l8 -8l-95 -100l-50 49l-46 -49l-8 8l46 48l2 185q-42 -38 -45 -41q-14 -8 -23 -8q-14 0 -36 13t-36 13q-11 0 -34 -15l-5 6v215l-16 15l-31 -30l-8 8l82 83l55 -54l41 40l8 -8l-68 -67l-1 -148q4 4 15 4
q14 0 36 -13t35 -13q14 0 31 11zM260 477l-83 76l100 137l-196 -2q-15 0 -27 8.5t-12 20.5q0 17 23 43q23 24 36 29l6 -6q-10 -19 -10 -24q0 -18 23 -16l178 1q27 0 27 -22q0 -10 -15 -30l-75 -102l78 -70l58 81l8 -8l-57 -81v-108l-134 -124q-50 62 -101 62q-43 0 -97 -54
l-16 7q81 85 146 85q60 0 98 -44l42 38v103zM642 685l-497 -694l-9 9l496 691z" />
    <glyph glyph-name="questiondown" unicode="&#xbf;" horiz-adv-x="311" 
d="M224 57l58 46l19 -9l-113 -94l-116 104l-48 -67l-8 8l48 68v150l104 96l1 124l62 50v-145l-4 -4l-101 -91v-147zM188 700l57 -64l-55 -50l-57 63z" />
    <glyph glyph-name="Agrave" unicode="&#xc0;" horiz-adv-x="727" 
d="M-37 -12l1 12q89 96 159 104q7 1 30 1q27 37 27 61l-1 105q-19 46 -81 11q1 52 29 70q9 9 26.5 6t25.5 -15v51q-22 36 -78 4q1 51 29 71q8 7 24 6t25 -12q4 47 30.5 83t85.5 82l11 -8q-55 -58 -55 -153v-239q0 -62 -67 -129q34 -12 57 -35q55 61 55 95l-1 313
q0 74 36 114q27 32 94 90q63 52 100 74l97 -93l60 47l7 -7q-7 -8 -29 -30.5t-29 -30.5v-519q27 -30 54 -49l41 27l9 -10q-56 -42 -104 -85q-26 32 -54 53l-55 -47l-7 7q32 32 45 55l-1 294q-9 -13 -19 -43q-33 3 -83 1q-30 0 -47 -29l-12 8q37 67 37 93q0 8 -8 29l9 4
l17 -28q41 -5 106 -3v204l-88 86q-20 -7 -41 -25q-63 -59 -63 -169v-269q0 -50 -62 -118q-65 -71 -119 -103q-57 55 -116 49q-54 -8 -107 -61zM129 644l-9 6q5 7 33 40l38 42q21 18 48 18q26 0 68 -21q43 -21 66 -21q14 0 31 11l8 -7l-32 -33q-35 -35 -62 -35q-22 0 -65 20
q-41 21 -63 21q-19 0 -30 -10q-4 -3 -9.5 -8.5t-12.5 -13t-9 -9.5zM429 946l111 -81l-39 -55l-120 86z" />
    <glyph glyph-name="Aacute" unicode="&#xc1;" horiz-adv-x="727" 
d="M-37 -12l1 12q89 96 159 104q7 1 30 1q27 37 27 61l-1 105q-19 46 -81 11q1 52 29 70q9 9 26.5 6t25.5 -15v51q-22 36 -78 4q1 51 29 71q8 7 24 6t25 -12q4 47 30.5 83t85.5 82l11 -8q-55 -58 -55 -153v-239q0 -62 -67 -129q34 -12 57 -35q55 61 55 95l-1 313
q0 74 36 114q27 32 94 90q63 52 100 74l97 -93l60 47l7 -7q-7 -8 -29 -30.5t-29 -30.5v-519q27 -30 54 -49l41 27l9 -10q-56 -42 -104 -85q-26 32 -54 53l-55 -47l-7 7q32 32 45 55l-1 294q-9 -13 -19 -43q-33 3 -83 1q-30 0 -47 -29l-12 8q37 67 37 93q0 8 -8 29l9 4
l17 -28q41 -5 106 -3v204l-88 86q-20 -7 -41 -25q-63 -59 -63 -169v-269q0 -50 -62 -118q-65 -71 -119 -103q-57 55 -116 49q-54 -8 -107 -61zM129 644l-9 6q5 7 33 40l38 42q21 18 48 18q26 0 68 -21q43 -21 66 -21q14 0 31 11l8 -7l-32 -33q-35 -35 -62 -35q-22 0 -65 20
q-41 21 -63 21q-19 0 -30 -10q-4 -3 -9.5 -8.5t-12.5 -13t-9 -9.5zM390 806l133 124l14 -14l-133 -123z" />
    <glyph glyph-name="Acircumflex" unicode="&#xc2;" horiz-adv-x="727" 
d="M-37 -12l1 12q89 96 159 104q7 1 30 1q27 37 27 61l-1 105q-19 46 -81 11q1 52 29 70q9 9 26.5 6t25.5 -15v51q-22 36 -78 4q1 51 29 71q8 7 24 6t25 -12q4 47 30.5 83t85.5 82l11 -8q-55 -58 -55 -153v-239q0 -62 -67 -129q34 -12 57 -35q55 61 55 95l-1 313
q0 74 36 114q27 32 94 90q63 52 100 74l97 -93l60 47l7 -7q-7 -8 -29 -30.5t-29 -30.5v-519q27 -30 54 -49l41 27l9 -10q-56 -42 -104 -85q-26 32 -54 53l-55 -47l-7 7q32 32 45 55l-1 294q-9 -13 -19 -43q-33 3 -83 1q-30 0 -47 -29l-12 8q37 67 37 93q0 8 -8 29l9 4
l17 -28q41 -5 106 -3v204l-88 86q-20 -7 -42 -26q-62 -59 -62 -168v-269q0 -50 -62 -118q-65 -71 -119 -103q-57 55 -116 49q-54 -8 -107 -61zM129 644l-9 6q5 7 33 40l38 42q21 18 48 18q26 0 68 -21q43 -21 66 -21q14 0 31 11l8 -7l-32 -33q-35 -35 -62 -35q-22 0 -65 20
q-41 21 -63 21q-19 0 -30 -10q-4 -3 -9.5 -8.5t-12.5 -13t-9 -9.5zM450 873l-87 -80l-16 12l139 125l105 -94l-50 -46z" />
    <glyph glyph-name="Atilde" unicode="&#xc3;" horiz-adv-x="727" 
d="M-37 -12l1 12q89 96 159 104q7 1 30 1q27 37 27 61l-1 105q-19 46 -81 11q1 52 29 70q9 9 26.5 6t25.5 -15v51q-22 36 -78 4q1 51 29 71q8 7 24 6t25 -12q4 47 30.5 83t85.5 82l11 -8q-55 -58 -55 -153v-239q0 -62 -67 -129q34 -12 57 -35q55 61 55 95l-1 313
q0 74 36 114q27 32 94 90q63 52 100 74l97 -93l60 47l7 -7q-7 -8 -29 -30.5t-29 -30.5v-519q27 -30 54 -49l41 27l9 -10q-56 -42 -104 -85q-26 32 -54 53l-55 -47l-7 7q32 32 45 55l-1 294q-9 -13 -19 -43q-33 3 -83 1q-30 0 -47 -29l-12 8q37 67 37 93q0 8 -8 29l9 4
l17 -28q41 -5 106 -3v204l-88 86q-20 -7 -42 -26q-62 -59 -62 -168v-269q0 -50 -62 -118q-65 -71 -119 -103q-57 55 -116 49q-54 -8 -107 -61zM129 644l-9 6q5 7 33 40l38 42q21 18 48 18q26 0 68 -21q43 -21 66 -21q14 0 31 11l8 -7l-32 -33q-35 -35 -62 -35q-22 0 -65 20
q-41 21 -63 21q-19 0 -30 -10q-4 -3 -9.5 -8.5t-12.5 -13t-9 -9.5zM443 897q19 0 48 -16t47 -16q19 0 47 19l7 -7q-62 -57 -73 -64q-13 -10 -30 -10t-48 16t-48 16q-20 0 -46 -19l-7 8q71 61 73 63q13 10 30 10z" />
    <glyph glyph-name="Adieresis" unicode="&#xc4;" horiz-adv-x="727" 
d="M-37 -12l1 12q89 96 159 104q7 1 30 1q27 37 27 61l-1 105q-19 46 -81 11q1 52 29 70q9 9 26.5 6t25.5 -15v51q-22 36 -78 4q1 51 29 71q8 7 24 6t25 -12q4 47 30.5 83t85.5 82l11 -8q-55 -58 -55 -153v-239q0 -62 -67 -129q34 -12 57 -35q55 61 55 95l-1 313
q0 74 36 114q27 32 94 90q63 52 100 74l97 -93l60 47l7 -7q-7 -8 -29 -30.5t-29 -30.5v-519q27 -30 54 -49l41 27l9 -10q-56 -42 -104 -85q-26 32 -54 53l-55 -47l-7 7q32 32 45 55l-1 294q-9 -13 -19 -43q-33 3 -83 1q-30 0 -47 -29l-12 8q37 67 37 93q0 8 -8 29l9 4
l17 -28q41 -5 106 -3v204l-88 86q-20 -7 -42 -26q-62 -59 -62 -168v-269q0 -50 -62 -118q-65 -71 -119 -103q-57 55 -116 49q-54 -8 -107 -61zM129 644l-9 6q5 7 33 40l38 42q21 18 48 18q26 0 68 -21q43 -21 66 -21q14 0 31 11l8 -7l-32 -33q-35 -35 -62 -35q-22 0 -65 20
q-41 21 -63 21q-19 0 -30 -10q-4 -3 -9.5 -8.5t-12.5 -13t-9 -9.5zM402 804l-57 64l55 50l57 -63zM532 804l-57 64l55 50l57 -63z" />
    <glyph glyph-name="Aring" unicode="&#xc5;" horiz-adv-x="727" 
d="M-37 -12l1 12q89 96 159 104q7 1 30 1q27 37 27 61l-1 105q-19 46 -81 11q1 52 29 70q9 9 26.5 6t25.5 -15v51q-22 36 -78 4q1 51 29 71q8 7 24 6t25 -12q4 47 30.5 83t85.5 82l11 -8q-55 -58 -55 -153v-239q0 -62 -67 -129q34 -12 57 -35q55 61 55 95l-1 313
q0 74 36 114q30 34 99 94q52 43 95 70l97 -93l60 47l7 -7q-7 -8 -29 -30.5t-29 -30.5v-519q27 -30 54 -49l41 27l9 -10q-56 -42 -104 -85q-26 32 -54 53l-55 -47l-7 7q32 32 45 55l-1 294q-9 -13 -19 -43q-33 3 -83 1q-30 0 -47 -29l-12 8q37 67 37 93q0 8 -8 29l9 4l17 -28
q41 -5 106 -3v204l-88 86q-20 -7 -41 -25q-63 -59 -63 -169v-269q0 -50 -62 -118q-65 -71 -119 -103q-57 55 -116 49q-54 -8 -107 -61zM129 644l-9 6q5 7 33 40l38 42q21 18 48 18q26 0 68 -21q43 -21 66 -21q14 0 31 11l8 -7l-32 -33q-35 -35 -62 -35q-22 0 -65 20
q-41 21 -63 21q-19 0 -30 -10q-4 -3 -9.5 -8.5t-12.5 -13t-9 -9.5zM416 826q-19 18 -19 43t19 42q20 18 48 18t47 -18q20 -17 20 -42t-20 -43q-19 -17 -47 -17t-48 17zM464 829q18 0 30 12t12 28t-12 27.5t-30 11.5q-17 0 -29.5 -11.5t-12.5 -27.5t12.5 -28t29.5 -12z" />
    <glyph glyph-name="AE" unicode="&#xc6;" horiz-adv-x="719" 
d="M-37 -12l1 12q89 96 159 104q7 1 30 1q27 37 27 61l-1 105q-19 46 -81 11q1 52 29 70q9 9 26.5 6t25.5 -15v51q-22 36 -78 4q1 51 29 71q8 7 24 6t25 -12q4 47 30.5 83t85.5 82l11 -8q-55 -58 -55 -153v-239q0 -62 -67 -129q34 -12 57 -35q55 61 55 95l-1 313
q0 74 36 114q27 32 94 90q63 52 100 74l69 -74q28 31 81 74q23 -45 63 -45q29 0 81 35l5 -6q-30 -30 -68 -55q-38 -26 -63 -26q-39 0 -61 16q-20 -46 -20 -108v-168q1 0 81 2q32 2 48 46l12 -7q-5 -10 -12 -25q-5 -10 -14 -31q-14 -36 -14 -59h-53q-22 1 -48 1v-203
q30 -31 55 -49l40 27l9 -10q-56 -42 -104 -85q-24 29 -53 53l-56 -47l-7 7q32 32 45 55l-1 252h-86q-30 0 -47 -29l-12 8q37 67 37 93q0 8 -8 29l9 4l17 -28q48 -3 90 -3v149q0 43 11 71l-80 70q-20 -7 -41 -25q-63 -59 -63 -169v-269q0 -50 -62 -118q-65 -71 -119 -103
q-57 55 -116 49q-54 -8 -107 -61zM129 644l-9 6q5 7 33 40l38 42q21 18 48 18q26 0 68 -21q43 -21 66 -21q14 0 31 11l8 -7l-32 -33q-35 -35 -62 -35q-22 0 -65 20q-41 21 -63 21q-19 0 -30 -10q-4 -3 -9.5 -8.5t-12.5 -13t-9 -9.5z" />
    <glyph glyph-name="Ccedilla" unicode="&#xc7;" horiz-adv-x="593" 
d="M307 20l-5 -4l11 -17q-120 1 -212 86q-91 85 -91 213q0 144 60 250q59 105 203 202h19q-120 -94 -168 -183t-48 -215q0 -111 79 -199q80 -89 195 -88q64 0 110 21q48 23 75 53q28 31 65 88l13 -26q-27 -68 -116 -135q-90 -66 -171 -67q-10 12 -19 21zM184 186l-13 12
q61 64 61 101v17q-21 44 -82 10q5 53 30 71q8 8 26 5t26 -16v75q-23 38 -79 6q5 54 30 70q8 7 24 5.5t25 -10.5q2 42 23 76t63 70l48 50q19 17 44 17q23 0 61 -20q37 -19 59 -19q12 0 28 11l7 -7l-29 -30q-32 -32 -61 -32q-21 0 -52 18q-32 18 -52 18q-13 0 -29 -9
q-40 -52 -40 -134v-180q0 -81 -118 -175zM313 -1h8h5q63 -75 63 -117q0 -30 -51 -58l-44 64q1 1 6.5 5t7.5 5.5t6.5 5.5t7 6.5t5.5 6.5t5 7.5t3 8t1 9.5q0 23 -23 57z" />
    <glyph glyph-name="Egrave" unicode="&#xc8;" horiz-adv-x="593" 
d="M273 750h19q-120 -94 -168 -183t-48 -215q0 -111 79 -199q80 -89 195 -88q64 0 110 21q48 23 75 53q28 31 65 88l13 -26q-27 -70 -118 -136t-174 -66q-123 0 -218 84q-93 85 -93 215q0 144 60 250q59 105 203 202zM184 186l-13 12q61 64 61 101v17q-21 44 -82 10
q5 53 30 71q8 8 26 5t26 -16v75q-23 38 -79 6q5 54 30 70q8 7 24 5.5t25 -10.5q2 42 23 76t63 70l48 50q19 17 44 17q23 0 61 -20q37 -19 59 -19q12 0 28 11l7 -7l-29 -30q-32 -32 -61 -32q-21 0 -52 18q-32 18 -52 18q-13 0 -29 -9q-40 -52 -40 -134v-110l42 45
q16 16 43 16q24 0 59 -19q36 -18 57 -18q14 0 27 10l7 -7l-29 -29q-28 -31 -58 -31q-19 0 -51 17q-31 18 -50 18q-23 0 -47 -24v-48q0 -81 -118 -175zM318 946l111 -81l-39 -55l-120 86z" />
    <glyph glyph-name="Eacute" unicode="&#xc9;" horiz-adv-x="593" 
d="M273 750h19q-120 -94 -168 -183t-48 -215q0 -111 79 -199q80 -89 195 -88q64 0 110 21q48 23 75 53q28 31 65 88l13 -26q-27 -70 -118 -136t-174 -66q-123 0 -218 84q-93 85 -93 215q0 144 60 250q59 105 203 202zM184 186l-13 12q61 64 61 101v17q-21 44 -82 10
q5 53 30 71q8 8 26 5t26 -16v75q-23 38 -79 6q5 54 30 70q8 7 24 5.5t25 -10.5q2 42 23 76t63 70l48 50q19 17 44 17q23 0 61 -20q37 -19 59 -19q12 0 28 11l7 -7l-29 -30q-32 -32 -61 -32q-21 0 -52 18q-32 18 -52 18q-13 0 -29 -9q-40 -52 -40 -134v-110l42 45
q16 16 43 16q24 0 59 -19q36 -18 57 -18q14 0 27 10l7 -7l-29 -29q-28 -31 -58 -31q-19 0 -51 17q-31 18 -50 18q-23 0 -47 -24v-48q0 -81 -118 -175zM279 806l133 124l14 -14l-133 -123z" />
    <glyph glyph-name="Ecircumflex" unicode="&#xca;" horiz-adv-x="593" 
d="M273 750h19q-120 -94 -168 -183t-48 -215q0 -111 79 -199q80 -89 195 -88q64 0 110 21q48 23 75 53q28 31 65 88l13 -26q-27 -70 -118 -136t-174 -66q-123 0 -218 84q-93 85 -93 215q0 144 60 250q59 105 203 202zM184 186l-13 12q61 64 61 101v17q-21 44 -82 10
q5 53 30 71q8 8 26 5t26 -16v75q-23 38 -79 6q5 54 30 70q8 7 24 5.5t25 -10.5q2 42 23 76t63 70l48 50q19 17 44 17q23 0 61 -20q37 -19 59 -19q12 0 28 11l7 -7l-29 -30q-32 -32 -61 -32q-21 0 -52 18q-32 18 -52 18q-13 0 -29 -9q-40 -52 -40 -134v-110l42 45
q16 16 43 16q24 0 59 -19q36 -18 57 -18q14 0 27 10l7 -7l-29 -29q-28 -31 -58 -31q-19 0 -51 17q-31 18 -50 18q-23 0 -47 -24v-48q0 -81 -118 -175zM339 873l-87 -80l-16 12l139 125l105 -94l-50 -46z" />
    <glyph glyph-name="Edieresis" unicode="&#xcb;" horiz-adv-x="593" 
d="M273 750h19q-120 -94 -168 -183t-48 -215q0 -111 79 -199q80 -89 195 -88q64 0 110 21q48 23 75 53q28 31 65 88l13 -26q-27 -70 -118 -136t-174 -66q-123 0 -218 84q-93 85 -93 215q0 144 60 250q59 105 203 202zM184 186l-13 12q61 64 61 101v17q-21 44 -82 10
q5 53 30 71q8 8 26 5t26 -16v75q-23 38 -79 6q5 54 30 70q8 7 24 5.5t25 -10.5q2 42 23 76t63 70l48 50q19 17 44 17q23 0 61 -20q37 -19 59 -19q12 0 28 11l7 -7l-29 -30q-32 -32 -61 -32q-21 0 -52 18q-32 18 -52 18q-13 0 -29 -9q-40 -52 -40 -134v-110l42 45
q16 16 43 16q24 0 59 -19q36 -18 57 -18q14 0 27 10l7 -7l-29 -29q-28 -31 -58 -31q-19 0 -51 17q-31 18 -50 18q-23 0 -47 -24v-48q0 -81 -118 -175zM421 804l-57 64l55 50l57 -63zM291 804l-57 64l55 50l57 -63z" />
    <glyph glyph-name="Igrave" unicode="&#xcc;" horiz-adv-x="421" 
d="M67 644l-9 6q4 7 33 40l38 42q21 18 48 18q26 0 68 -21q43 -21 66 -21q14 0 31 11l8 -7l-32 -33q-18 -18 -25 -22q-52 -55 -52 -150v-279q0 -62 -65 -127q40 -11 65 -37q55 61 55 95l-1 371q0 70 36 117q54 71 113 103l5 -11q-49 -43 -66 -85q-16 -39 -16 -114v-319
q0 -50 -62 -118q-65 -71 -119 -103q-57 55 -116 49q-54 -8 -107 -61l1 12q89 96 159 104q4 1 20 1q27 37 27 61l-1 105q-19 46 -81 11q1 52 29 70q9 9 26.5 6t25.5 -15v56q-22 36 -78 4q1 51 29 71q8 7 24 5.5t25 -11.5v21q0 81 86 155q-22 0 -65 20q-41 21 -62 21
q-19 0 -30 -10q-4 -3 -9.5 -8.5t-12.5 -13t-9 -9.5zM238 946l111 -81l-39 -55l-120 86z" />
    <glyph glyph-name="Iacute" unicode="&#xcd;" horiz-adv-x="421" 
d="M67 644l-9 6q4 7 33 40l38 42q21 18 48 18q26 0 68 -21q43 -21 66 -21q14 0 31 11l8 -7l-32 -33q-18 -18 -25 -22q-52 -55 -52 -150v-279q0 -62 -65 -127q40 -11 65 -37q55 61 55 95l-1 371q0 70 36 117q54 71 113 103l5 -11q-49 -43 -66 -85q-16 -39 -16 -114v-319
q0 -50 -62 -118q-65 -71 -119 -103q-57 55 -116 49q-54 -8 -107 -61l1 12q89 96 159 104q4 1 20 1q27 37 27 61l-1 105q-19 46 -81 11q1 52 29 70q9 9 26.5 6t25.5 -15v56q-22 36 -78 4q1 51 29 71q8 7 24 5.5t25 -11.5v21q0 81 86 155q-22 0 -65 20q-41 21 -62 21
q-19 0 -30 -10q-4 -3 -9.5 -8.5t-12.5 -13t-9 -9.5zM199 806l133 124l14 -14l-133 -123z" />
    <glyph glyph-name="Icircumflex" unicode="&#xce;" horiz-adv-x="421" 
d="M67 644l-9 6q4 7 33 40l38 42q21 18 48 18q26 0 68 -21q43 -21 66 -21q14 0 31 11l8 -7l-32 -33q-18 -18 -25 -22q-52 -55 -52 -150v-279q0 -62 -65 -127q40 -11 65 -37q55 61 55 95l-1 371q0 70 36 117q54 71 113 103l5 -11q-49 -43 -66 -85q-16 -39 -16 -114v-319
q0 -50 -62 -118q-65 -71 -119 -103q-57 55 -116 49q-54 -8 -107 -61l1 12q89 96 159 104q4 1 20 1q27 37 27 61l-1 105q-19 46 -81 11q1 52 29 70q9 9 26.5 6t25.5 -15v56q-22 36 -78 4q1 51 29 71q8 7 24 5.5t25 -11.5v21q0 81 86 155q-22 0 -65 20q-41 21 -62 21
q-19 0 -30 -10q-4 -3 -9.5 -8.5t-12.5 -13t-9 -9.5zM259 873l-87 -80l-16 12l139 125l105 -94l-50 -46z" />
    <glyph glyph-name="Idieresis" unicode="&#xcf;" horiz-adv-x="421" 
d="M67 644l-9 6q4 7 33 40l38 42q21 18 48 18q26 0 68 -21q43 -21 66 -21q14 0 31 11l8 -7l-32 -33q-18 -18 -25 -22q-52 -55 -52 -150v-279q0 -62 -65 -127q40 -11 65 -37q55 61 55 95l-1 371q0 70 36 117q54 71 113 103l5 -11q-49 -43 -66 -85q-16 -39 -16 -114v-319
q0 -50 -62 -118q-65 -71 -119 -103q-57 55 -116 49q-54 -8 -107 -61l1 12q89 96 159 104q4 1 20 1q27 37 27 61l-1 105q-19 46 -81 11q1 52 29 70q9 9 26.5 6t25.5 -15v56q-22 36 -78 4q1 51 29 71q8 7 24 5.5t25 -11.5v21q0 81 86 155q-22 0 -65 20q-41 21 -62 21
q-19 0 -30 -10q-4 -3 -9.5 -8.5t-12.5 -13t-9 -9.5zM341 804l-57 64l55 50l57 -63zM211 804l-57 64l55 50l57 -63z" />
    <glyph glyph-name="Eth" unicode="&#xd0;" horiz-adv-x="592" 
d="M548 551v-330q0 -51 -61 -118q-65 -71 -119 -103q-85 55 -176 49q-68 -6 -142 -61l-7 12q122 96 217 104q46 4 90.5 -7t71.5 -34q56 61 56 96l-1 307q2 60 -3 101q-4 26 -16.5 36.5t-39.5 9.5q-56 0 -134 -1t-133 -1q-36 0 -63 9q-21 6 -27 22t6 33q9 14 64 73l14 1
l-12 -14q-15 -16 -12 -31.5t23 -19.5q32 -7 76 -7h244q84 0 84 -126zM178 103l-13 11q61 67 61 102l-1 110h-42v-58q0 -80 -119 -175l-13 11q61 67 61 102l-1 120h-117l62 59h55v34q0 53 27 92t89 87l11 -8q-55 -58 -55 -153v-52h42v34q0 53 27 92t89 87l11 -8
q-55 -58 -55 -153v-52h121l-57 -58h-64v-49q0 -80 -119 -175z" />
    <glyph glyph-name="Ntilde" unicode="&#xd1;" horiz-adv-x="737" 
d="M-37 -12l1 12q89 96 159 104q7 1 30 1q27 37 27 61l-1 105q-19 46 -81 11q1 52 29 70q9 9 26.5 6t25.5 -15v51q-22 36 -78 4q1 51 29 71q8 7 24 6t25 -12q4 47 30.5 83t85.5 82l11 -8q-55 -58 -55 -153v-239q0 -62 -67 -129q34 -12 57 -35q55 61 55 95l-1 313
q0 74 36 114q27 32 94 90q63 52 100 74l97 -93l60 47l7 -7q-7 -8 -29 -30.5t-29 -30.5v-519q27 -30 54 -49l41 27l9 -10q-56 -42 -104 -85q-26 32 -54 53l-55 -47l-7 7q32 32 45 55l-1 530l-88 86q-20 -7 -42 -26q-62 -59 -62 -168v-269q0 -50 -62 -118q-65 -71 -119 -103
q-57 55 -116 49q-54 -8 -107 -61zM129 644l-9 6q5 7 33 40l38 42q21 18 48 18q26 0 68 -21q43 -21 66 -21q14 0 31 11l8 -7l-32 -33q-35 -35 -62 -35q-22 0 -65 20q-41 21 -63 21q-19 0 -30 -10q-4 -3 -9.5 -8.5t-12.5 -13t-9 -9.5zM413 897q19 0 48 -16t47 -16q19 0 47 19
l7 -7q-62 -57 -73 -64q-13 -10 -30 -10t-48 16t-48 16q-20 0 -46 -19l-7 8q71 61 73 63q13 10 30 10z" />
    <glyph glyph-name="Ograve" unicode="&#xd2;" horiz-adv-x="707" 
d="M267 438l-4 -62q-20 48 -82 12q1 51 29 71q8 7 24 6t25 -12v67q0 41 14 63q12 21 81 77q39 36 122 90q102 -13 160 -106q57 -91 57 -220q0 -184 -103 -305q-104 -120 -270 -120q-128 0 -219 88t-91 233q0 130 62 233t201 197h19q-121 -95 -168 -182q-48 -87 -48 -207
q0 -116 80 -207q81 -91 200 -89q138 2 207 91q69 90 69 242q0 101 -64 195q-65 95 -140 95q-5 0 -34 -20q-31 -21 -42 -31q-15 -13 -18.5 -19t-3.5 -21v-229q0 -81 -118 -175l-13 11q61 67 61 102l-1 77v70q5 -5 8 -15zM348 946l111 -81l-39 -55l-120 86z" />
    <glyph glyph-name="Oacute" unicode="&#xd3;" horiz-adv-x="707" 
d="M267 438l-4 -62q-20 48 -82 12q1 51 29 71q8 7 24 6t25 -12v67q0 41 14 63q12 21 81 77q39 36 122 90q102 -13 160 -106q57 -91 57 -220q0 -184 -103 -305q-104 -120 -270 -120q-128 0 -219 88t-91 233q0 130 62 233t201 197h19q-121 -95 -168 -182q-48 -87 -48 -207
q0 -116 80 -207q81 -91 200 -89q138 2 207 91q69 90 69 242q0 101 -64 195q-65 95 -140 95q-5 0 -34 -20q-31 -21 -42 -31q-15 -13 -18.5 -19t-3.5 -21v-229q0 -81 -118 -175l-13 11q61 67 61 102l-1 77v70q5 -5 8 -15zM309 806l133 124l14 -14l-133 -123z" />
    <glyph glyph-name="Ocircumflex" unicode="&#xd4;" horiz-adv-x="707" 
d="M267 438l-4 -62q-20 48 -82 12q1 51 29 71q8 7 24 6t25 -12v67q0 41 14 63q12 21 81 77q39 36 122 90q102 -13 160 -106q57 -91 57 -220q0 -184 -103 -305q-104 -120 -270 -120q-128 0 -219 88t-91 233q0 130 62 233t201 197h19q-121 -95 -168 -182q-48 -87 -48 -207
q0 -116 80 -207q81 -91 200 -89q138 2 207 91q69 90 69 242q0 101 -64 195q-65 95 -140 95q-5 0 -34 -20q-31 -21 -42 -31q-15 -13 -18.5 -19t-3.5 -21v-229q0 -81 -118 -175l-13 11q61 67 61 102l-1 77v70q5 -5 8 -15zM369 873l-87 -80l-16 12l139 125l105 -94l-50 -46z
" />
    <glyph glyph-name="Otilde" unicode="&#xd5;" horiz-adv-x="707" 
d="M267 438l-4 -62q-20 48 -82 12q1 51 29 71q8 7 24 6t25 -12v67q0 41 14 63q12 21 81 77q39 36 122 90q102 -13 160 -106q57 -91 57 -220q0 -184 -103 -305q-104 -120 -270 -120q-128 0 -219 88t-91 233q0 130 62 233t201 197h19q-121 -95 -168 -182q-48 -87 -48 -207
q0 -116 80 -207q81 -91 200 -89q138 2 207 91q69 90 69 242q0 101 -64 195q-65 95 -140 95q-5 0 -34 -20q-31 -21 -42 -31q-15 -13 -18.5 -19t-3.5 -21v-229q0 -81 -118 -175l-13 11q61 67 61 102l-1 77v70q5 -5 8 -15zM362 897q19 0 48 -16t47 -16q19 0 47 19l7 -7
q-62 -57 -73 -64q-13 -10 -30 -10q-19 0 -48 16t-48 16q-20 0 -46 -19l-7 8q71 61 73 63q13 10 30 10z" />
    <glyph glyph-name="Odieresis" unicode="&#xd6;" horiz-adv-x="707" 
d="M267 438l-4 -62q-20 48 -82 12q1 51 29 71q8 7 24 6t25 -12v67q0 41 14 63q12 21 81 77q39 36 122 90q102 -13 160 -106q57 -91 57 -220q0 -184 -103 -305q-104 -120 -270 -120q-128 0 -219 88t-91 233q0 130 62 233t201 197h19q-121 -95 -168 -182q-48 -87 -48 -207
q0 -116 80 -207q81 -91 200 -89q138 2 207 91q69 90 69 242q0 101 -64 195q-65 95 -140 95q-5 0 -34 -20q-31 -21 -42 -31q-15 -13 -18.5 -19t-3.5 -21v-229q0 -81 -118 -175l-13 11q61 67 61 102l-1 77v70q5 -5 8 -15zM451 804l-57 64l55 50l57 -63zM321 804l-57 64l55 50
l57 -63z" />
    <glyph glyph-name="multiply" unicode="&#xd7;" horiz-adv-x="389" 
d="M181 260l-99 -93l-13 13l98 91l-108 86l44 49l114 -89l103 95l11 -13l-100 -93l115 -88l-48 -51z" />
    <glyph glyph-name="Oslash" unicode="&#xd8;" horiz-adv-x="707" 
d="M267 438l-4 -62q-20 48 -82 12q1 51 29 71q8 7 24 6t25 -12v67q0 41 14 63q12 21 81 77q39 36 122 90q1 0 8.5 -1.5t14.5 -3.5l20 66l31 20l-28 -92q82 -30 126 -116q45 -86 45 -199q0 -184 -103 -305q-104 -120 -270 -120q-2 0 -12 0.5t-13 0.5l-22 -73l-33 -21l30 97
q-111 17 -186 102q-74 86 -74 215q0 130 62 233t201 197h19q-121 -95 -168 -182q-48 -87 -48 -207q0 -99 60 -182t155 -107l186 604q-24 12 -49 12q-5 0 -34 -20q-31 -21 -42 -31q-15 -13 -18.5 -19t-3.5 -21v-229q0 -81 -118 -175l-13 11q61 67 61 102l-1 77v70q5 -5 8 -15
zM632 398q0 74 -39 151q-39 78 -94 115l-183 -597q18 -2 40 -2q138 2 207 91q69 90 69 242z" />
    <glyph glyph-name="Ugrave" unicode="&#xd9;" horiz-adv-x="604" 
d="M119 91q0 35 2 179q-20 48 -82 12q1 52 29 70q9 10 28.5 6t25.5 -19q1 10 1 48q-19 46 -81 11q1 51 29 71q8 8 26.5 5t26.5 -16v29q0 154 -60 154h-23q-36 0 -63 9q-20 6 -26.5 22t5.5 33q7 11 64 73l14 1l-12 -14q-14 -18 -11.5 -35.5t23.5 -21.5q2 -1 75 -1
q85 0 85 -126q0 -85 -3 -222q-2 -180 -2 -222q56 -60 70 -69l167 111v445q-29 23 -53 38q34 26 81 68q41 -61 93 -86q-30 -24 -50 -41v-486q30 -31 55 -49l40 27l9 -10q-47 -34 -104 -85q-24 29 -53 53l-56 -47l-7 7q32 32 45 55v95q-130 -86 -222 -163q-39 50 -68 73
l-86 -73l-8 7q54 54 76 84zM255 926l111 -81l-39 -55l-120 86z" />
    <glyph glyph-name="Uacute" unicode="&#xda;" horiz-adv-x="604" 
d="M119 91q0 35 2 179q-20 48 -82 12q1 52 29 70q9 10 28.5 6t25.5 -19q1 10 1 48q-19 46 -81 11q1 51 29 71q8 8 26.5 5t26.5 -16v29q0 154 -60 154h-23q-36 0 -63 9q-20 6 -26.5 22t5.5 33q7 11 64 73l14 1l-12 -14q-14 -18 -11.5 -35.5t23.5 -21.5q2 -1 75 -1
q85 0 85 -126q0 -85 -3 -222q-2 -180 -2 -222q56 -60 70 -69l167 111v445q-29 23 -53 38q34 26 81 68q41 -61 93 -86q-30 -24 -50 -41v-486q30 -31 55 -49l40 27l9 -10q-47 -34 -104 -85q-24 29 -53 53l-56 -47l-7 7q32 32 45 55v95q-130 -86 -222 -163q-39 50 -68 73
l-86 -73l-8 7q54 54 76 84zM216 786l133 124l14 -14l-133 -123z" />
    <glyph glyph-name="Ucircumflex" unicode="&#xdb;" horiz-adv-x="604" 
d="M119 91q0 35 2 179q-20 48 -82 12q1 52 29 70q9 10 28.5 6t25.5 -19q1 10 1 48q-19 46 -81 11q1 51 29 71q8 8 26.5 5t26.5 -16v29q0 154 -60 154h-23q-36 0 -63 9q-20 6 -26.5 22t5.5 33q7 11 64 73l14 1l-12 -14q-14 -18 -11.5 -35.5t23.5 -21.5q2 -1 75 -1
q85 0 85 -126q0 -85 -3 -222q-2 -180 -2 -222q56 -60 70 -69l167 111v445q-29 23 -53 38q34 26 81 68q41 -61 93 -86q-30 -24 -50 -41v-486q30 -31 55 -49l40 27l9 -10q-47 -34 -104 -85q-24 29 -53 53l-56 -47l-7 7q32 32 45 55v95q-130 -86 -222 -163q-39 50 -68 73
l-86 -73l-8 7q54 54 76 84zM276 853l-87 -80l-16 12l139 125l105 -94l-50 -46z" />
    <glyph glyph-name="Udieresis" unicode="&#xdc;" horiz-adv-x="604" 
d="M119 91q0 35 2 179q-20 48 -82 12q1 52 29 70q9 10 28.5 6t25.5 -19q1 10 1 48q-19 46 -81 11q1 51 29 71q8 8 26.5 5t26.5 -16v29q0 154 -60 154h-23q-36 0 -63 9q-20 6 -26.5 22t5.5 33q7 11 64 73l14 1l-12 -14q-14 -18 -11.5 -35.5t23.5 -21.5q2 -1 75 -1
q85 0 85 -126q0 -85 -3 -222q-2 -180 -2 -222q56 -60 70 -69l167 111v445q-29 23 -53 38q34 26 81 68q41 -61 93 -86q-30 -24 -50 -41v-486q30 -31 55 -49l40 27l9 -10q-47 -34 -104 -85q-24 29 -53 53l-56 -47l-7 7q32 32 45 55v95q-130 -86 -222 -163q-39 50 -68 73
l-86 -73l-8 7q54 54 76 84zM358 784l-57 64l55 50l57 -63zM228 784l-57 64l55 50l57 -63z" />
    <glyph glyph-name="Yacute" unicode="&#xdd;" horiz-adv-x="447" 
d="M271 682q3 2 81 68q40 -59 93 -86q-25 -20 -48 -39v-404q0 -50 -62 -118q-65 -71 -119 -103l2 3l-3 -3q-57 55 -116 49q-54 -8 -107 -61l1 12q89 96 160 104q33 4 64.5 -6.5t52.5 -33.5q56 62 56 95l-1 268q-102 -71 -168 -127q-39 48 -69 73l-86 -73l-7 7q54 54 76 84
q0 51 1 85q0 14 0.5 29t1 23t0.5 11q-9 102 -58 102h-24q-35 0 -62 9q-21 6 -27 22t6 33q6 9 63 73l15 1l-13 -14q-15 -18 -11.5 -35.5t23.5 -21.5q3 -1 76 -1q85 0 85 -126q0 -29 -3 -72q-2 -58 -2 -72q49 -55 70 -69l113 76v199q-21 17 -54 39zM132 784l133 124l14 -14
l-133 -123z" />
    <glyph glyph-name="Thorn" unicode="&#xde;" horiz-adv-x="667" 
d="M67 644l-9 6q4 7 33 40l38 42q21 18 48 18q26 0 68 -21q43 -21 66 -21q14 0 31 11l8 -7l-32 -33q-15 -15 -25 -23q-52 -55 -52 -149v-276q25 19 54 36v263q0 70 36 117q54 71 113 103l5 -11q-49 -43 -66 -85q-16 -39 -16 -114v-63l124 103l106 -96l63 50l7 -7
q-44 -44 -56 -59v-141l-147 -137q-47 37 -97 46v-15q0 -50 -62 -118q-65 -71 -119 -103q-57 55 -116 49q-54 -8 -107 -61l1 12q89 96 159 104q4 1 20 1q27 37 27 61l-1 223q-22 36 -78 4q1 51 29 71q8 7 24 5.5t25 -11.5v31q0 81 86 155q-22 0 -65 20q-41 21 -62 21
q-19 0 -30 -10q-4 -3 -9.5 -8.5t-12.5 -13t-9 -9.5zM543 433l-91 84l-85 -67v-158q1 0 2.5 0.5t4.5 1t6 0.5q76 7 128 -32l35 32v139zM296 159l-1 76q-27 -8 -56 -26q-7 -53 -63 -108q40 -11 65 -37q55 61 55 95z" />
    <glyph glyph-name="germandbls" unicode="&#xdf;" horiz-adv-x="383" 
d="M-10 8l-16 7q56 59 99 75v523l-49 70l8 8l49 -69l84 78q32 -27 65 -27q28 0 59 17l5 -4v-259l-79 -65h115v-231l-7 -7l62 -82l-8 -8l-63 82l-126 -116q-50 62 -101 62q-43 0 -97 -54zM218 56l50 45v218h-119l83 75v235l-12 -4q-44 -15 -85 17v-543q54 -8 83 -43z" />
    <glyph glyph-name="agrave" unicode="&#xe0;" horiz-adv-x="423" 
d="M429 99l-93 -99l-74 85l-103 -85l-97 69l-53 -69l-8 8l52 69v286l152 137l100 -90l58 81l8 -8l-57 -81v-274l61 -70l46 49zM115 115l83 -60l54 45v267l-83 76l-54 -50v-278zM170 696l111 -81l-39 -55l-120 86z" />
    <glyph glyph-name="aacute" unicode="&#xe1;" horiz-adv-x="423" 
d="M429 99l-93 -99l-74 85l-103 -85l-97 69l-53 -69l-8 8l52 69v286l152 137l100 -90l58 81l8 -8l-57 -81v-274l61 -70l46 49zM115 115l83 -60l54 45v267l-83 76l-54 -50v-278zM131 556l133 124l14 -14l-133 -123z" />
    <glyph glyph-name="acircumflex" unicode="&#xe2;" horiz-adv-x="423" 
d="M429 99l-93 -99l-74 85l-103 -85l-97 69l-53 -69l-8 8l52 69v286l152 137l100 -90l58 81l8 -8l-57 -81v-274l61 -70l46 49zM115 115l83 -60l54 45v267l-83 76l-54 -50v-278zM191 623l-87 -80l-16 12l139 125l105 -94l-50 -46z" />
    <glyph glyph-name="atilde" unicode="&#xe3;" horiz-adv-x="423" 
d="M429 99l-93 -99l-74 85l-103 -85l-97 69l-53 -69l-8 8l52 69v286l152 137l100 -90l58 81l8 -8l-57 -81v-274l61 -70l46 49zM115 115l83 -60l54 45v267l-83 76l-54 -50v-278zM184 647q19 0 48 -16t47 -16q19 0 47 19l7 -7q-62 -57 -73 -64q-13 -10 -30 -10q-19 0 -48 16
t-48 16q-20 0 -46 -19l-7 8q71 61 73 63q13 10 30 10z" />
    <glyph glyph-name="adieresis" unicode="&#xe4;" horiz-adv-x="423" 
d="M429 99l-93 -99l-74 85l-103 -85l-97 69l-53 -69l-8 8l52 69v286l152 137l100 -90l58 81l8 -8l-57 -81v-274l61 -70l46 49zM115 115l83 -60l54 45v267l-83 76l-54 -50v-278zM273 554l-57 64l55 50l57 -63zM143 554l-57 64l55 50l57 -63z" />
    <glyph glyph-name="aring" unicode="&#xe5;" horiz-adv-x="423" 
d="M429 99l-93 -99l-74 85l-103 -85l-97 69l-53 -69l-8 8l52 69v286l152 137l100 -90l58 81l8 -8l-57 -81v-274l61 -70l46 49zM115 115l83 -60l54 45v267l-83 76l-54 -50v-278zM157 576q-19 18 -19 43t19 42q20 18 48 18t47 -18q20 -17 20 -42t-20 -43q-19 -17 -47 -17
t-48 17zM205 579q18 0 30 12t12 28t-12 27.5t-30 11.5q-17 0 -29.5 -11.5t-12.5 -27.5t12.5 -28t29.5 -12z" />
    <glyph glyph-name="ae" unicode="&#xe6;" horiz-adv-x="439" 
d="M354 500l66 -120l-153 -122v-130l61 -70l46 49l8 -8l-93 -99l-74 85l-103 -85l-70 50l-33 -44l-8 8l33 44v145l73 65q-40 4 -53 33t-0.5 65.5t40.5 65.5q37 38 76 68l95 -86zM114 275l23 -2l-41 -38v-140l55 -40l54 45v278l-77 71l-37 -37q-18 -17 -24 -47t6 -57t41 -33z
M361 350l-52 92l-42 -41v-128z" />
    <glyph glyph-name="ccedilla" unicode="&#xe7;" horiz-adv-x="272" 
d="M266 490l5 -4q-32 -47 -74 -61q-46 -16 -89 20v-342l51 -47l43 34l9 -8l-88 -75q24 -27 45 -63q21 -38 21 -58q0 -30 -51 -58l-44 64q1 1 6.5 5t7.5 5.5t6.5 5.5t7 6.5t5.5 6.5t5 7.5t3 8t1 9.5q0 18 -21 54l-61 58l-45 -58l-8 8l45 60v343l96 89q31 -27 65 -27
q28 0 59 17z" />
    <glyph glyph-name="egrave" unicode="&#xe8;" horiz-adv-x="274" 
d="M192 500l66 -120l-150 -120v-157l51 -47l43 34l9 -8l-96 -82l-61 58l-45 -58l-8 8l45 60v290zM116 696l111 -81l-39 -55l-120 86zM105 401l3 2v-127l91 74l-52 92z" />
    <glyph glyph-name="eacute" unicode="&#xe9;" horiz-adv-x="274" 
d="M192 500l66 -120l-150 -120v-157l51 -47l43 34l9 -8l-96 -82l-61 58l-45 -58l-8 8l45 60v290zM105 401l3 2v-127l91 74l-52 92zM77 556l133 124l14 -14l-133 -123z" />
    <glyph glyph-name="ecircumflex" unicode="&#xea;" horiz-adv-x="294" 
d="M192 500l66 -120l-150 -120v-157l51 -47l43 34l9 -8l-96 -82l-61 58l-45 -58l-8 8l45 60v290zM137 623l-87 -80l-16 12l139 125l105 -94l-50 -46zM105 401l3 2v-127l91 74l-52 92z" />
    <glyph glyph-name="edieresis" unicode="&#xeb;" horiz-adv-x="290" 
d="M192 500l66 -120l-150 -120v-157l51 -47l43 34l9 -8l-96 -82l-61 58l-45 -58l-8 8l45 60v290zM105 401l3 2v-127l91 74l-52 92zM219 554l-57 64l55 50l57 -63zM89 554l-57 64l55 50l57 -63z" />
    <glyph glyph-name="igrave" unicode="&#xec;" horiz-adv-x="227" 
d="M-2 403l98 97l50 -48l48 47l8 -8l-75 -76v-321l36 -35l46 49l8 -8l-94 -100l-50 49l-46 -49l-8 8l46 48v380l-8 8l-51 -49zM81 696l111 -81l-39 -55l-120 86z" />
    <glyph glyph-name="iacute" unicode="&#xed;" horiz-adv-x="227" 
d="M-2 403l98 97l50 -48l48 47l8 -8l-75 -76v-321l36 -35l46 49l8 -8l-94 -100l-50 49l-46 -49l-8 8l46 48v380l-8 8l-51 -49zM42 556l133 124l14 -14l-133 -123z" />
    <glyph glyph-name="icircumflex" unicode="&#xee;" horiz-adv-x="267" 
d="M-2 403l98 97l50 -48l48 47l8 -8l-75 -76v-321l36 -35l46 49l8 -8l-94 -100l-50 49l-46 -49l-8 8l46 48v380l-8 8l-51 -49zM102 623l-87 -80l-16 12l139 125l105 -94l-50 -46z" />
    <glyph glyph-name="idieresis" unicode="&#xef;" horiz-adv-x="268" 
d="M-1 403l98 97l50 -48l48 47l8 -8l-75 -76v-321l36 -35l46 49l8 -8l-94 -100l-50 49l-46 -49l-8 8l46 48v380l-8 8l-51 -49zM185 554l-57 64l55 50l57 -63zM55 554l-57 64l55 50l57 -63z" />
    <glyph glyph-name="eth" unicode="&#xf0;" horiz-adv-x="369" 
d="M324 447v-40l1 -293l-175 -114l-79 80l-62 -80l-8 8l62 82v305l113 96l-58 39l-40 -39l-7 12l35 35l-81 54l11 59l108 -77l41 41l8 -14l-37 -35zM191 482l-66 -57v-303l70 -72l67 44v341z" />
    <glyph glyph-name="ntilde" unicode="&#xf1;" horiz-adv-x="435" 
d="M106 0l-59 66l25 23v335l-16 15l-31 -30l-8 8l82 83l55 -54l41 40l8 -8l-68 -67v-40l133 129l66 -54v-354l35 -34l48 47l8 -8l-95 -97l-50 49l-50 -49l-8 8l50 50v350l-42 36l-95 -90l-1 -278l23 -25zM184 647q19 0 48 -16t47 -16q19 0 47 19l7 -7q-62 -57 -73 -64
q-13 -10 -30 -10q-19 0 -48 16t-48 16q-20 0 -46 -19l-7 8q71 61 73 63q13 10 30 10z" />
    <glyph glyph-name="ograve" unicode="&#xf2;" horiz-adv-x="372" 
d="M314 128l-155 -128l-97 69l-53 -69l-8 8l52 69v286l152 137l100 -90l58 81l8 -8l-57 -81v-274zM115 115l83 -60l54 45v267l-83 76l-54 -50v-278zM169 696l111 -81l-39 -55l-120 86z" />
    <glyph glyph-name="oacute" unicode="&#xf3;" horiz-adv-x="372" 
d="M314 128l-155 -128l-97 69l-53 -69l-8 8l52 69v286l152 137l100 -90l58 81l8 -8l-57 -81v-274zM115 115l83 -60l54 45v267l-83 76l-54 -50v-278zM130 556l133 124l14 -14l-133 -123z" />
    <glyph glyph-name="ocircumflex" unicode="&#xf4;" horiz-adv-x="372" 
d="M314 128l-155 -128l-97 69l-53 -69l-8 8l52 69v286l152 137l100 -90l58 81l8 -8l-57 -81v-274zM115 115l83 -60l54 45v267l-83 76l-54 -50v-278zM190 623l-87 -80l-16 12l139 125l105 -94l-50 -46z" />
    <glyph glyph-name="otilde" unicode="&#xf5;" horiz-adv-x="372" 
d="M314 128l-155 -128l-97 69l-53 -69l-8 8l52 69v286l152 137l100 -90l58 81l8 -8l-57 -81v-274zM115 115l83 -60l54 45v267l-83 76l-54 -50v-278zM183 647q19 0 48 -16t47 -16q19 0 47 19l7 -7q-62 -57 -73 -64q-13 -10 -30 -10t-48 16t-48 16q-20 0 -46 -19l-7 8
q71 61 73 63q13 10 30 10z" />
    <glyph glyph-name="odieresis" unicode="&#xf6;" horiz-adv-x="372" 
d="M314 128l-155 -128l-97 69l-53 -69l-8 8l52 69v286l152 137l100 -90l58 81l8 -8l-57 -81v-274zM115 115l83 -60l54 45v267l-83 76l-54 -50v-278zM142 554l-57 64l55 50l57 -63zM272 554l-57 64l55 50l57 -63z" />
    <glyph glyph-name="divide" unicode="&#xf7;" horiz-adv-x="337" 
d="M279 228l-287 -1l59 56h282zM159 0l-57 64l55 50l57 -63zM159 386l-57 64l55 50l57 -63z" />
    <glyph glyph-name="oslash" unicode="&#xf8;" horiz-adv-x="372" 
d="M189 -88h-15v100l-15 -12l-97 69l-53 -69l-8 8l52 69v286l121 109v126h15v-113l16 15l100 -90l58 81l8 -8l-57 -81v-274l-125 -103v-113zM189 61l9 -6l54 45v267l-63 57v-363zM169 443l-54 -50v-278l59 -43v366z" />
    <glyph glyph-name="ugrave" unicode="&#xf9;" horiz-adv-x="418" 
d="M286 500l62 -60l-30 -30l-3 -290l55 -62l46 49l8 -8l-93 -99l-79 91l-108 -91l-89 76v348l-16 15l-31 -30l-8 8l82 83l55 -54l41 40l8 -8l-68 -67l-1 -298l71 -57l65 53l2 309l-26 25zM162 696l111 -81l-39 -55l-120 86z" />
    <glyph glyph-name="uacute" unicode="&#xfa;" horiz-adv-x="418" 
d="M286 500l62 -60l-30 -30l-3 -290l55 -62l46 49l8 -8l-93 -99l-79 91l-108 -91l-89 76v348l-16 15l-31 -30l-8 8l82 83l55 -54l41 40l8 -8l-68 -67l-1 -298l71 -57l65 53l2 309l-26 25zM123 556l133 124l14 -14l-133 -123z" />
    <glyph glyph-name="ucircumflex" unicode="&#xfb;" horiz-adv-x="418" 
d="M286 500l62 -60l-30 -30l-3 -290l55 -62l46 49l8 -8l-93 -99l-79 91l-108 -91l-89 76v348l-16 15l-31 -30l-8 8l82 83l55 -54l41 40l8 -8l-68 -67l-1 -298l71 -57l65 53l2 309l-26 25zM183 623l-87 -80l-16 12l139 125l105 -94l-50 -46z" />
    <glyph glyph-name="udieresis" unicode="&#xfc;" horiz-adv-x="418" 
d="M286 500l62 -60l-30 -30l-3 -290l55 -62l46 49l8 -8l-93 -99l-79 91l-108 -91l-89 76v348l-16 15l-31 -30l-8 8l82 83l55 -54l41 40l8 -8l-68 -67l-1 -298l71 -57l65 53l2 309l-26 25zM135 554l-57 64l55 50l57 -63zM265 554l-57 64l55 50l57 -63z" />
    <glyph glyph-name="yacute" unicode="&#xfd;" horiz-adv-x="381" 
d="M281 500l62 -60l-30 -30l-3 -569q-32 -56 -80 -96q-49 -43 -92 -43q-36 0 -63 21t-27 55q0 82 52 143.5t149 114.5v57l-103 -88l-80 68l-57 -73l-8 8l56 74v342l-16 15l-31 -30l-8 8l82 83l55 -54l41 40l8 -8l-68 -67l-1 -293l71 -57l59 48l2 309l-27 25zM172 -254
q33 0 71 37q8 18 8 41v194q-70 -42 -105 -89t-36 -113q0 -33 17 -51.5t45 -18.5zM112 556l133 124l14 -14l-133 -123z" />
    <glyph glyph-name="thorn" unicode="&#xfe;" horiz-adv-x="387" 
d="M-3 8l-16 7q53 56 97 74v547l-8 8l-51 -49l-8 8l98 97l50 -48l48 47l8 -8l-76 -77v-202l81 68l100 -90l58 81l8 -8l-57 -81v-258l-134 -124q-31 38 -57 51v-212q0 -26 10 -47q11 -23 35 -53q26 -32 27 -35q-13 -4 -49 21q-37 26 -50 45q-17 -23 -46 -46q-30 -23 -41 -19
q2 5 17 28.5t19 31.5q18 34 18 74v221q-38 -9 -81 -52zM267 347l-83 76l-45 -36v-288q50 -4 86 -43l42 38v253z" />
    <glyph glyph-name="ydieresis" unicode="&#xff;" horiz-adv-x="381" 
d="M281 500l62 -60l-30 -30l-3 -569q-32 -56 -80 -96q-49 -43 -92 -43q-36 0 -63 21t-27 55q0 82 52 143.5t149 114.5v57l-103 -88l-80 68l-57 -73l-8 8l56 74v342l-16 15l-31 -30l-8 8l82 83l55 -54l41 40l8 -8l-68 -67l-1 -293l71 -57l59 48l2 309l-27 25zM172 -254
q33 0 71 37q8 18 8 41v194q-70 -42 -105 -89t-36 -113q0 -33 17 -51.5t45 -18.5zM124 554l-57 64l55 50l57 -63zM254 554l-57 64l55 50l57 -63z" />
    <glyph glyph-name="Amacron" unicode="&#x100;" horiz-adv-x="727" 
d="M-37 -12l1 12q89 96 159 104q7 1 30 1q27 37 27 61l-1 105q-19 46 -81 11q1 52 29 70q9 9 26.5 6t25.5 -15v51q-22 36 -78 4q1 51 29 71q8 7 24 6t25 -12q4 47 30.5 83t85.5 82l11 -8q-55 -58 -55 -153v-239q0 -62 -67 -129q34 -12 57 -35q55 61 55 95l-1 313
q0 74 36 114q27 32 94 90q63 52 100 74l97 -93l60 47l7 -7q-7 -8 -29 -30.5t-29 -30.5v-519q27 -30 54 -49l41 27l9 -10q-56 -42 -104 -85q-26 32 -54 53l-55 -47l-7 7q32 32 45 55l-1 294q-9 -13 -19 -43q-33 3 -83 1q-30 0 -47 -29l-12 8q37 67 37 93q0 8 -8 29l9 4
l17 -28q41 -5 106 -3v204l-88 86q-20 -7 -41 -25q-63 -59 -63 -169v-269q0 -50 -62 -118q-65 -71 -119 -103q-57 55 -116 49q-54 -8 -107 -61zM129 644l-9 6q5 7 33 40l38 42q21 18 48 18q26 0 68 -21q43 -21 66 -21q14 0 31 11l8 -7l-32 -33q-35 -35 -62 -35q-22 0 -65 20
q-41 21 -63 21q-19 0 -30 -10q-4 -3 -9.5 -8.5t-12.5 -13t-9 -9.5zM527 829l-177 -1l62 59h172z" />
    <glyph glyph-name="amacron" unicode="&#x101;" horiz-adv-x="423" 
d="M429 99l-93 -99l-74 85l-103 -85l-97 69l-53 -69l-8 8l52 69v286l152 137l100 -90l58 81l8 -8l-57 -81v-274l61 -70l46 49zM115 115l83 -60l54 45v267l-83 76l-54 -50v-278zM268 579l-177 -1l62 59h172z" />
    <glyph glyph-name="Abreve" unicode="&#x102;" horiz-adv-x="727" 
d="M-37 -12l1 12q89 96 159 104q7 1 30 1q27 37 27 61l-1 105q-19 46 -81 11q1 52 29 70q9 9 26.5 6t25.5 -15v51q-22 36 -78 4q1 51 29 71q8 7 24 6t25 -12q4 47 30.5 83t85.5 82l11 -8q-55 -58 -55 -153v-239q0 -62 -67 -129q34 -12 57 -35q55 61 55 95l-1 313
q0 74 36 114q30 34 99 94q52 43 95 70l97 -93l60 47l7 -7q-7 -8 -29 -30.5t-29 -30.5v-519q27 -30 54 -49l41 27l9 -10q-56 -42 -104 -85q-26 32 -54 53l-55 -47l-7 7q32 32 45 55l-1 294q-9 -13 -19 -43q-33 3 -83 1q-30 0 -47 -29l-12 8q37 67 37 93q0 8 -8 29l9 4l17 -28
q41 -5 106 -3v204l-88 86q-20 -7 -42 -26q-62 -59 -62 -168v-269q0 -50 -62 -118q-65 -71 -119 -103q-57 55 -116 49q-54 -8 -107 -61zM129 644l-9 6q5 7 33 40l38 42q21 18 48 18q26 0 68 -21q43 -21 66 -21q14 0 31 11l8 -7l-32 -33q-35 -35 -62 -35q-22 0 -65 20
q-41 21 -63 21q-19 0 -30 -10q-4 -3 -9.5 -8.5t-12.5 -13t-9 -9.5zM349 855l62 39q49 -25 91 -25q30 0 84 25l5 -5q-91 -72 -150 -72q-48 0 -92 38z" />
    <glyph glyph-name="abreve" unicode="&#x103;" horiz-adv-x="423" 
d="M429 99l-93 -99l-74 85l-103 -85l-97 69l-53 -69l-8 8l52 69v286l152 137l100 -90l58 81l8 -8l-57 -81v-274l61 -70l46 49zM115 115l83 -60l54 45v267l-83 76l-54 -50v-278zM90 605l62 39q49 -25 91 -25q30 0 84 25l5 -5q-92 -72 -150 -72q-48 0 -92 38z" />
    <glyph glyph-name="Aogonek" unicode="&#x104;" horiz-adv-x="727" 
d="M651 -145l-38 -71q-26 6 -42 27t-16 48q0 49 71 147q-26 30 -49 47l-55 -47l-7 7q32 32 45 55l-1 294q-9 -13 -19 -43q-33 3 -83 1q-30 0 -47 -29l-12 8q37 67 37 93q0 8 -8 29l9 4l17 -28q41 -5 106 -3v204l-88 86q-20 -7 -42 -26q-62 -59 -62 -168v-269q0 -50 -62 -118
q-65 -71 -119 -103q-57 55 -116 49q-54 -8 -107 -61l1 12q89 96 159 104q7 1 30 1q27 37 27 61l-1 105q-19 46 -81 11q1 52 29 70q9 9 26.5 6t25.5 -15v51q-22 36 -78 4q1 51 29 71q8 7 24 6t25 -12q4 47 30.5 83t85.5 82l11 -8q-55 -58 -55 -153v-239q0 -62 -67 -129
q34 -12 57 -35q55 61 55 95l-1 313q0 74 36 114q27 32 94 90q63 52 100 74l97 -93l60 47l7 -7q-7 -8 -29 -30.5t-29 -30.5v-519q27 -30 54 -49l41 27l9 -10q-56 -42 -104 -85q-1 -2 -10 -19t-12 -23q-9 -27 -8 -44q3 -39 50 -59zM129 644l-9 6q5 7 33 40l38 42q21 18 48 18
q26 0 68 -21q43 -21 66 -21q14 0 31 11l8 -7l-32 -33q-35 -35 -62 -35q-22 0 -65 20q-41 21 -63 21q-19 0 -30 -10q-4 -3 -9.5 -8.5t-12.5 -13t-9 -9.5z" />
    <glyph glyph-name="aogonek" unicode="&#x105;" horiz-adv-x="423" 
d="M356 -145l-38 -71q-26 6 -42 27t-16 48q0 49 71 147l-69 79l-103 -85l-97 69l-53 -69l-8 8l52 69v286l152 137l100 -90l58 81l8 -8l-57 -81v-274l61 -70l46 49l8 -8l-93 -99q-1 -2 -10 -19t-12 -23q-9 -27 -8 -44q3 -39 50 -59zM115 115l83 -60l54 45v267l-83 76l-54 -50
v-278z" />
    <glyph glyph-name="Cacute" unicode="&#x106;" horiz-adv-x="593" 
d="M292 750q-120 -94 -168 -183t-48 -215q0 -111 79 -199q80 -89 195 -88q118 0 185 74q28 31 65 88l13 -26q-27 -70 -118 -136t-174 -66q-123 0 -218 84q-93 85 -93 215q0 144 60 250q59 105 203 202h19zM171 198q61 64 61 101v17q-21 44 -82 10q5 53 30 71q8 8 26 5
t26 -16v75q-23 38 -79 6q5 54 30 70q8 7 24 5.5t25 -10.5q2 42 23 76t63 70l48 50q19 17 44 17q23 0 61 -20q37 -19 59 -19q12 0 28 11l7 -7l-29 -30q-32 -32 -61 -32q-21 0 -52 18q-32 18 -52 18q-13 0 -29 -9q-40 -52 -40 -134v-180q0 -81 -118 -175zM262 806l133 124
l14 -14l-133 -123z" />
    <glyph glyph-name="cacute" unicode="&#x107;" horiz-adv-x="272" 
d="M266 490l5 -4q-32 -47 -74 -61q-46 -16 -89 20v-342l51 -47l43 34l9 -8l-96 -82l-61 58l-45 -58l-8 8l45 60v343l96 89q31 -27 65 -27q28 0 59 17zM91 556l133 124l14 -14l-133 -123z" />
    <glyph glyph-name="Ccircumflex" unicode="&#x108;" horiz-adv-x="593" 
d="M273 750h19q-120 -94 -168 -183t-48 -215q0 -111 79 -199q80 -89 195 -88q64 0 110 21q48 23 75 53q28 31 65 88l13 -26q-27 -70 -118 -136t-174 -66q-123 0 -218 84q-93 85 -93 215q0 144 60 250q59 105 203 202zM184 186l-13 12q61 64 61 101v17q-21 44 -82 10
q5 53 30 71q8 8 26 5t26 -16v75q-23 38 -79 6q5 54 30 70q8 7 24 5.5t25 -10.5q2 42 23 76t63 70l48 50q19 17 44 17q23 0 61 -20q37 -19 59 -19q12 0 28 11l7 -7l-29 -30q-32 -32 -61 -32q-21 0 -52 18q-32 18 -52 18q-13 0 -29 -9q-40 -52 -40 -134v-180q0 -81 -118 -175z
M322 873l-87 -80l-16 12l139 125l105 -94l-50 -46z" />
    <glyph glyph-name="ccircumflex" unicode="&#x109;" horiz-adv-x="293" 
d="M266 490l5 -4q-32 -47 -74 -61q-46 -16 -89 20v-342l51 -47l43 34l9 -8l-96 -82l-61 58l-45 -58l-8 8l45 60v343l96 89q31 -27 65 -27q28 0 59 17zM151 623l-87 -80l-16 12l139 125l105 -94l-50 -46z" />
    <glyph glyph-name="Cdotaccent" unicode="&#x10a;" horiz-adv-x="593" 
d="M292 750q-120 -94 -168 -183t-48 -215q0 -111 79 -199q80 -89 195 -88q118 0 185 74q28 31 65 88l13 -26q-27 -70 -118 -136t-174 -66q-123 0 -218 84q-93 85 -93 215q0 144 60 250q59 105 203 202h19zM171 198q61 64 61 101v17q-21 44 -82 10q5 53 30 71q8 8 26 5
t26 -16v75q-23 38 -79 6q5 54 30 70q8 7 24 5.5t25 -10.5q2 42 23 76t63 70l48 50q19 17 44 17q23 0 61 -20q37 -19 59 -19q12 0 28 11l7 -7l-29 -30q-32 -32 -61 -32q-21 0 -52 18q-32 18 -52 18q-13 0 -29 -9q-40 -52 -40 -134v-180q0 -81 -118 -175zM337 811l-57 64
l55 50l57 -63z" />
    <glyph glyph-name="cdotaccent" unicode="&#x10b;" horiz-adv-x="272" 
d="M266 490l5 -4q-32 -47 -74 -61q-46 -16 -89 20v-342l51 -47l43 34l9 -8l-96 -82l-61 58l-45 -58l-8 8l45 60v343l96 89q31 -27 65 -27q28 0 59 17zM166 561l-57 64l55 50l57 -63z" />
    <glyph glyph-name="Ccaron" unicode="&#x10c;" horiz-adv-x="593" 
d="M292 750q-120 -94 -168 -183t-48 -215q0 -111 79 -199q80 -89 195 -88q118 0 185 74q28 31 65 88l13 -26q-27 -70 -118 -136t-174 -66q-123 0 -218 84q-93 85 -93 215q0 144 60 250q59 105 203 202h19zM171 198q61 64 61 101v17q-21 44 -82 10q5 53 30 71q8 8 26 5
t26 -16v75q-23 38 -79 6q5 54 30 70q8 7 24 5.5t25 -10.5q2 42 23 76t63 70l48 50q19 17 44 17q23 0 61 -20q37 -19 59 -19q12 0 28 11l7 -7l-29 -30q-32 -32 -61 -32q-21 0 -52 18q-32 18 -52 18q-13 0 -29 -9q-40 -52 -40 -134v-180q0 -81 -118 -175zM317 780l-127 91
l55 45l111 -81l102 85l14 -12z" />
    <glyph glyph-name="ccaron" unicode="&#x10d;" horiz-adv-x="302" 
d="M266 490l5 -4q-32 -47 -74 -61q-46 -16 -89 20v-342l51 -47l43 34l9 -8l-96 -82l-61 58l-45 -58l-8 8l45 60v343l96 89q31 -27 65 -27q28 0 59 17zM146 530l-127 91l55 45l111 -81l102 85l14 -12z" />
    <glyph glyph-name="Dcaron" unicode="&#x10e;" horiz-adv-x="592" 
d="M548 551v-330q0 -51 -61 -118q-65 -71 -119 -103q-85 55 -176 49q-68 -6 -142 -61l-7 12q122 96 217 104q46 4 90.5 -7t71.5 -34q56 61 56 96l-1 307q2 60 -3 101q-4 26 -16.5 36.5t-39.5 9.5q-56 0 -134 -1t-133 -1q-36 0 -63 9q-21 6 -27 22t6 33q9 14 64 73l14 1
l-12 -14q-15 -16 -12 -31.5t23 -19.5q32 -7 76 -7h244q84 0 84 -126zM64 93l-13 11q61 67 61 102v64q-20 48 -82 12q1 52 29 70q9 9 26.5 6t25.5 -15v51q-22 36 -78 4q1 51 29 71q9 9 27 5.5t26 -17.5q9 39 35.5 71t76.5 70l11 -8q-55 -58 -55 -153v-169q0 -80 -119 -175z
M178 103l-13 11q61 67 61 102l-1 203q0 53 27 92t89 87l11 -8q-55 -58 -55 -153v-159q0 -80 -119 -175zM287 760l-127 91l55 45l111 -81l102 85l14 -12z" />
    <glyph glyph-name="dcaron" unicode="&#x10f;" horiz-adv-x="445" 
d="M185 603l98 97l50 -48l48 47l8 -8l-75 -76v-487l61 -70l46 49l8 -8l-93 -99l-74 85l-103 -85l-97 69l-53 -69l-8 8l52 69v286l152 137l47 -48v184l-8 8l-51 -49zM115 115l83 -60l54 45v269l-83 74l-54 -50v-278zM450 688q34 -19 34 -45q0 -35 -66 -109l-14 -1
q21 37 21 55q-2 21 -29 51z" />
    <glyph glyph-name="Dcroat" unicode="&#x110;" horiz-adv-x="592" 
d="M548 551v-330q0 -51 -61 -118q-65 -71 -119 -103q-85 55 -176 49q-68 -6 -142 -61l-7 12q122 96 217 104q46 4 90.5 -7t71.5 -34q56 61 56 96l-1 307q2 60 -3 101q-4 26 -16.5 36.5t-39.5 9.5q-56 0 -134 -1t-133 -1q-36 0 -63 9q-21 6 -27 22t6 33q9 14 64 73l14 1
l-12 -14q-15 -16 -12 -31.5t23 -19.5q32 -7 76 -7h244q84 0 84 -126zM178 103l-13 11q61 67 61 102l-1 110h-42v-58q0 -80 -119 -175l-13 11q61 67 61 102l-1 120h-117l62 59h55v34q0 53 27 92t89 87l11 -8q-55 -58 -55 -153v-52h42v34q0 53 27 92t89 87l11 -8
q-55 -58 -55 -153v-52h121l-57 -58h-64v-49q0 -80 -119 -175z" />
    <glyph glyph-name="dslash" unicode="&#x111;" horiz-adv-x="423" 
d="M185 603l98 97l50 -48l48 47l8 -8l-75 -76v-60h61v-13h-61v-414l61 -70l46 49l8 -8l-93 -99l-74 85l-103 -85l-97 69l-53 -69l-8 8l52 69v286l152 137l47 -48v90h-138v13h138v81l-8 8l-51 -49zM115 115l83 -60l54 45v269l-83 74l-54 -50v-278z" />
    <glyph glyph-name="Emacron" unicode="&#x112;" horiz-adv-x="593" 
d="M273 750h19q-120 -94 -168 -183t-48 -215q0 -111 79 -199q80 -89 195 -88q64 0 110 21q48 23 75 53q28 31 65 88l13 -26q-27 -70 -118 -136t-174 -66q-123 0 -218 84q-93 85 -93 215q0 144 60 250q59 105 203 202zM184 186l-13 12q61 64 61 101v17q-21 44 -82 10
q5 53 30 71q8 8 26 5t26 -16v75q-23 38 -79 6q5 54 30 70q8 7 24 5.5t25 -10.5q2 42 23 76t63 70l48 50q19 17 44 17q23 0 61 -20q37 -19 59 -19q12 0 28 11l7 -7l-29 -30q-32 -32 -61 -32q-21 0 -52 18q-32 18 -52 18q-13 0 -29 -9q-40 -52 -40 -134v-110l42 45
q16 16 43 16q24 0 59 -19q36 -18 57 -18q14 0 27 10l7 -7l-29 -29q-28 -31 -58 -31q-19 0 -51 17q-31 18 -50 18q-23 0 -47 -24v-48q0 -81 -118 -175zM416 829l-177 -1l62 59h172z" />
    <glyph glyph-name="emacron" unicode="&#x113;" horiz-adv-x="287" 
d="M192 500l66 -120l-150 -120v-157l51 -47l43 34l9 -8l-96 -82l-61 58l-45 -58l-8 8l45 60v290zM214 579l-177 -1l62 59h172zM105 401l3 2v-127l91 74l-52 92z" />
    <glyph glyph-name="Ebreve" unicode="&#x114;" horiz-adv-x="593" 
d="M273 750h19q-120 -94 -168 -183t-48 -215q0 -111 79 -199q80 -89 195 -88q64 0 110 21q48 23 75 53q28 31 65 88l13 -26q-27 -70 -118 -136t-174 -66q-123 0 -218 84q-93 85 -93 215q0 144 60 250q59 105 203 202zM184 186l-13 12q61 64 61 101v17q-21 44 -82 10
q5 53 30 71q8 8 26 5t26 -16v75q-23 38 -79 6q5 54 30 70q8 7 24 5.5t25 -10.5q2 42 23 76t63 70l48 50q19 17 44 17q23 0 61 -20q37 -19 59 -19q12 0 28 11l7 -7l-29 -30q-32 -32 -61 -32q-21 0 -52 18q-32 18 -52 18q-13 0 -29 -9q-40 -52 -40 -134v-110l42 45
q16 16 43 16q24 0 59 -19q36 -18 57 -18q14 0 27 10l7 -7l-29 -29q-28 -31 -58 -31q-19 0 -51 17q-31 18 -50 18q-23 0 -47 -24v-48q0 -81 -118 -175zM238 855l62 39q49 -25 91 -25q30 0 84 25l5 -5q-92 -72 -150 -72q-48 0 -92 38z" />
    <glyph glyph-name="ebreve" unicode="&#x115;" horiz-adv-x="294" 
d="M192 500l66 -120l-150 -120v-157l51 -47l43 34l9 -8l-96 -82l-61 58l-45 -58l-8 8l45 60v290zM36 605l62 39q49 -25 91 -25q30 0 84 25l5 -5q-92 -72 -150 -72q-48 0 -92 38zM105 401l3 2v-127l91 74l-52 92z" />
    <glyph glyph-name="Edotaccent" unicode="&#x116;" horiz-adv-x="593" 
d="M273 750h19q-120 -94 -168 -183t-48 -215q0 -111 79 -199q80 -89 195 -88q64 0 110 21q48 23 75 53q28 31 65 88l13 -26q-27 -70 -118 -136t-174 -66q-123 0 -218 84q-93 85 -93 215q0 144 60 250q59 105 203 202zM184 186l-13 12q61 64 61 101v17q-21 44 -82 10
q5 53 30 71q8 8 26 5t26 -16v75q-23 38 -79 6q5 54 30 70q8 7 24 5.5t25 -10.5q2 42 23 76t63 70l48 50q19 17 44 17q23 0 61 -20q37 -19 59 -19q12 0 28 11l7 -7l-29 -30q-32 -32 -61 -32q-21 0 -52 18q-32 18 -52 18q-13 0 -29 -9q-40 -52 -40 -134v-110l42 45
q16 16 43 16q24 0 59 -19q36 -18 57 -18q14 0 27 10l7 -7l-29 -29q-28 -31 -58 -31q-19 0 -51 17q-31 18 -50 18q-23 0 -47 -24v-48q0 -81 -118 -175zM354 811l-57 64l55 50l57 -63z" />
    <glyph glyph-name="edotaccent" unicode="&#x117;" horiz-adv-x="274" 
d="M192 500l66 -120l-150 -120v-157l51 -47l43 34l9 -8l-96 -82l-61 58l-45 -58l-8 8l45 60v290zM105 401l3 2v-127l91 74l-52 92zM152 561l-57 64l55 50l57 -63z" />
    <glyph glyph-name="Eogonek" unicode="&#x118;" horiz-adv-x="593" 
d="M420 -128l-38 -71q-26 6 -42 27t-16 48q0 49 60 133q-29 -10 -63 -10q-123 0 -218 84q-93 85 -93 215q0 144 60 250q59 105 203 202h19q-120 -94 -168 -183t-48 -215q0 -111 79 -199q80 -89 195 -88q64 0 110 21q48 23 75 53q28 31 65 88l13 -26q-21 -52 -83 -108
q-60 -54 -132 -80q-6 -10 -17 -32q-12 -37 -11 -50q3 -39 50 -59zM184 186l-13 12q61 64 61 101v17q-21 44 -82 10q5 53 30 71q8 8 26 5t26 -16v75q-23 38 -79 6q5 54 30 70q8 7 24 5.5t25 -10.5q2 42 23 76t63 70l48 50q19 17 44 17q23 0 61 -20q37 -19 59 -19q12 0 28 11
l7 -7l-29 -30q-32 -32 -61 -32q-21 0 -52 18q-32 18 -52 18q-13 0 -29 -9q-40 -52 -40 -134v-110l42 45q16 16 43 16q24 0 59 -19q36 -18 57 -18q14 0 27 10l7 -7l-29 -29q-28 -31 -58 -31q-19 0 -51 17q-31 18 -50 18q-23 0 -47 -24v-48q0 -81 -118 -175z" />
    <glyph glyph-name="eogonek" unicode="&#x119;" horiz-adv-x="274" 
d="M192 500l66 -120l-150 -120v-157l51 -47l43 34l9 -8l-96 -82q-1 -2 -10 -19t-12 -23q-9 -27 -8 -44q3 -39 50 -59l-38 -71q-26 6 -42 27t-16 48q0 55 70 146l-55 53l-45 -58l-8 8l45 60v290zM105 401l3 2v-127l91 74l-52 92z" />
    <glyph glyph-name="Ecaron" unicode="&#x11a;" horiz-adv-x="593" 
d="M273 750h19q-120 -94 -168 -183t-48 -215q0 -111 79 -199q80 -89 195 -88q64 0 110 21q48 23 75 53q28 31 65 88l13 -26q-27 -70 -118 -136t-174 -66q-123 0 -218 84q-93 85 -93 215q0 144 60 250q59 105 203 202zM184 186l-13 12q61 64 61 101v17q-21 44 -82 10
q5 53 30 71q8 8 26 5t26 -16v75q-23 38 -79 6q5 54 30 70q8 7 24 5.5t25 -10.5q2 42 23 76t63 70l48 50q19 17 44 17q23 0 61 -20q37 -19 59 -19q12 0 28 11l7 -7l-29 -30q-32 -32 -61 -32q-21 0 -52 18q-32 18 -52 18q-13 0 -29 -9q-40 -52 -40 -134v-110l42 45
q16 16 43 16q24 0 59 -19q36 -18 57 -18q14 0 27 10l7 -7l-29 -29q-28 -31 -58 -31q-19 0 -51 17q-31 18 -50 18q-23 0 -47 -24v-48q0 -81 -118 -175zM334 780l-127 91l55 45l111 -81l102 85l14 -12z" />
    <glyph glyph-name="ecaron" unicode="&#x11b;" horiz-adv-x="303" 
d="M192 500l66 -120l-150 -120v-157l51 -47l43 34l9 -8l-96 -82l-61 58l-45 -58l-8 8l45 60v290zM132 530l-127 91l55 45l111 -81l102 85l14 -12zM105 401l3 2v-127l91 74l-52 92z" />
    <glyph glyph-name="Gcircumflex" unicode="&#x11c;" horiz-adv-x="681" 
d="M184 186l-13 12q61 64 61 101v17q-21 44 -82 10q5 53 30 71q8 8 26 5t26 -16v75q-23 38 -79 6q5 54 30 70q8 7 24 5.5t25 -10.5q2 42 23 76t63 70l48 50q19 17 44 17q23 0 61 -20q37 -19 59 -19q12 0 28 11l7 -7l-29 -30q-32 -32 -61 -32q-21 0 -52 18q-32 18 -52 18
q-13 0 -29 -9q-40 -52 -40 -134v-97l27 32q16 16 37 16t52 -19q33 -18 51 -18q13 0 24 10l20 -1q74 0 114 -48.5t40 -135.5q0 -110 -104 -196q-103 -85 -243 -85q-128 0 -219 88t-91 233q0 130 62 233t201 197h19q-121 -95 -168 -182q-48 -87 -48 -207q0 -115 80 -206
q80 -90 200 -90q234 0 234 215q0 56 -27 105t-64 49h-21l-4 -5q-25 -31 -52 -31q-17 0 -45 17q-27 18 -44 18q-14 0 -31 -14v-58q0 -81 -118 -175zM350 873l-87 -80l-16 12l139 125l105 -94l-50 -46z" />
    <glyph glyph-name="gcircumflex" unicode="&#x11d;" horiz-adv-x="376" 
d="M1 29l51 68v266l152 137l101 -91l45 63l8 -8l-45 -64v-4l-1 -272l-1 -1l-1 -279q-30 -52 -78 -93q-48 -42 -90 -42q-35 0 -62 21t-28 55q-1 82 49.5 143t147.5 113v42l-112 -73l-77 78l-51 -67zM168 443l-54 -50v-262l68 -71l67 44l2 263zM176 -247q31 0 67 33q8 18 8 41
v196q-69 -43 -103 -89t-34 -111q0 -33 17 -51.5t45 -18.5zM189 623l-87 -80l-16 12l139 125l105 -94l-50 -46z" />
    <glyph glyph-name="Gbreve" unicode="&#x11e;" horiz-adv-x="681" 
d="M184 186l-13 12q61 64 61 101v17q-21 44 -82 10q5 53 30 71q8 8 26 5t26 -16v75q-23 38 -79 6q5 54 30 70q8 7 24 5.5t25 -10.5q2 42 23 76t63 70l48 50q19 17 44 17q23 0 61 -20q37 -19 59 -19q12 0 28 11l7 -7l-29 -30q-32 -32 -61 -32q-21 0 -52 18q-32 18 -52 18
q-13 0 -29 -9q-40 -52 -40 -134v-97l27 32q16 16 37 16t52 -19q33 -18 51 -18q13 0 24 10l20 -1q74 0 114 -48.5t40 -135.5q0 -110 -104 -196q-103 -85 -243 -85q-128 0 -219 88t-91 233q0 130 62 233t201 197h19q-121 -95 -168 -182q-48 -87 -48 -207q0 -115 80 -206
q80 -90 200 -90q234 0 234 215q0 56 -27 105t-64 49h-21l-4 -5q-25 -31 -52 -31q-17 0 -45 17q-27 18 -44 18q-14 0 -31 -14v-58q0 -81 -118 -175zM249 855l62 39q49 -25 91 -25q30 0 84 25l5 -5q-91 -72 -150 -72q-48 0 -92 38z" />
    <glyph glyph-name="gbreve" unicode="&#x11f;" horiz-adv-x="376" 
d="M1 29l51 68v266l152 137l101 -91l45 63l8 -8l-45 -64v-4l-1 -272l-1 -1l-1 -279q-30 -52 -78 -93q-48 -42 -90 -42q-35 0 -62 21t-28 55q-1 82 49.5 143t147.5 113v42l-112 -73l-77 78l-51 -67zM168 443l-54 -50v-262l68 -71l67 44l2 263zM176 -247q31 0 67 33q8 18 8 41
v196q-69 -43 -103 -89t-34 -111q0 -33 17 -51.5t45 -18.5zM88 605l62 39q49 -25 91 -25q30 0 84 25l5 -5q-92 -72 -150 -72q-48 0 -92 38z" />
    <glyph glyph-name="Gdotaccent" unicode="&#x120;" horiz-adv-x="681" 
d="M184 186l-13 12q61 64 61 101v17q-21 44 -82 10q5 53 30 71q8 8 26 5t26 -16v75q-23 38 -79 6q5 54 30 70q8 7 24 5.5t25 -10.5q2 42 23 76t63 70l48 50q19 17 44 17q23 0 61 -20q37 -19 59 -19q12 0 28 11l7 -7l-29 -30q-32 -32 -61 -32q-21 0 -52 18q-32 18 -52 18
q-13 0 -29 -9q-40 -52 -40 -134v-97l27 32q16 16 37 16t52 -19q33 -18 51 -18q13 0 24 10l20 -1q74 0 114 -48.5t40 -135.5q0 -110 -104 -196q-103 -85 -243 -85q-128 0 -219 88t-91 233q0 130 62 233t201 197h19q-121 -95 -168 -182q-48 -87 -48 -207q0 -115 80 -206
q80 -90 200 -90q234 0 234 215q0 56 -27 105t-64 49h-21l-4 -5q-25 -31 -52 -31q-17 0 -45 17q-27 18 -44 18q-14 0 -31 -14v-58q0 -81 -118 -175zM365 811l-57 64l55 50l57 -63z" />
    <glyph glyph-name="gdotaccent" unicode="&#x121;" horiz-adv-x="376" 
d="M1 29l51 68v266l152 137l101 -91l45 63l8 -8l-45 -64v-4l-1 -272l-1 -1l-1 -279q-30 -52 -78 -93q-48 -42 -90 -42q-35 0 -62 21t-28 55q-1 82 49.5 143t147.5 113v42l-112 -73l-77 78l-51 -67zM168 443l-54 -50v-262l68 -71l67 44l2 263zM176 -247q31 0 67 33q8 18 8 41
v196q-69 -43 -103 -89t-34 -111q0 -33 17 -51.5t45 -18.5zM204 561l-57 64l55 50l57 -63z" />
    <glyph glyph-name="Gcommaaccent" unicode="&#x122;" horiz-adv-x="681" 
d="M184 186l-13 12q61 64 61 101v17q-21 44 -82 10q5 53 30 71q8 8 26 5t26 -16v75q-23 38 -79 6q5 54 30 70q8 7 24 5.5t25 -10.5q2 42 23 76t63 70l48 50q19 17 44 17q23 0 61 -20q37 -19 59 -19q12 0 28 11l7 -7l-29 -30q-32 -32 -61 -32q-21 0 -52 18q-32 18 -52 18
q-13 0 -29 -9q-40 -52 -40 -134v-97l27 32q16 16 37 16t52 -19q33 -18 51 -18q13 0 24 10l20 -1q74 0 114 -48.5t40 -135.5q0 -110 -104 -196q-103 -85 -243 -85q-128 0 -219 88t-91 233q0 130 62 233t201 197h19q-121 -95 -168 -182q-48 -87 -48 -207q0 -115 80 -206
q80 -90 200 -90q234 0 234 215q0 56 -27 105t-64 49h-21l-4 -5q-25 -31 -52 -31q-17 0 -45 17q-27 18 -44 18q-14 0 -31 -14v-58q0 -81 -118 -175zM348 -53q34 -19 34 -45q0 -36 -66 -109l-14 -1q21 37 21 55q-2 21 -29 51z" />
    <glyph glyph-name="gcommaaccent" unicode="&#x123;" horiz-adv-x="376" 
d="M1 29l51 68v266l152 137l101 -91l45 63l8 -8l-45 -64v-4l-1 -272l-1 -1l-1 -279q-30 -52 -78 -93q-48 -42 -90 -42q-35 0 -62 21t-28 55q-1 82 49.5 143t147.5 113v42l-112 -73l-77 78l-51 -67zM168 443l-54 -50v-262l68 -71l67 44l2 263zM176 -247q31 0 67 33q8 18 8 41
v196q-69 -43 -103 -89t-34 -111q0 -33 17 -51.5t45 -18.5zM244 602l-54 -49q-34 19 -34 45q0 36 66 109l14 1q-21 -38 -21 -55q2 -21 29 -51z" />
    <glyph glyph-name="Hcircumflex" unicode="&#x124;" horiz-adv-x="717" 
d="M-37 -12l1 12q89 96 159 104q7 1 30 1q27 37 27 61l-1 105q-19 46 -81 11q1 52 29 70q9 9 26.5 6t25.5 -15v51q-22 36 -78 4q1 51 29 71q8 7 24 6t25 -12q4 47 30.5 83t85.5 82l11 -8q-55 -58 -55 -153v-239q0 -62 -67 -129q34 -12 57 -35q55 61 55 95l-1 313
q0 74 36 114q30 34 99 94l14 -8q-77 -62 -77 -182v-269q0 -50 -62 -118q-65 -71 -119 -103q-57 55 -116 49q-54 -8 -107 -61zM544 68l-1 250q-30 4 -86 2q-30 0 -47 -29l-12 8q37 67 37 93q0 8 -8 29l9 4l17 -28q35 -4 90 -4v150q0 73 36 113q32 39 99 94q22 -45 63 -45
q29 0 81 35l5 -6q-30 -30 -68 -55q-38 -26 -63 -26q-39 0 -61 16q-20 -46 -20 -108v-444q30 -31 55 -49l40 27l9 -10q-56 -42 -104 -85q-24 29 -53 53l-56 -47l-7 7q32 32 45 55zM129 644l-9 6q5 7 33 40l38 42q21 18 48 18q26 0 68 -21q43 -21 66 -21q14 0 31 11l8 -7
l-32 -33q-35 -35 -62 -35q-22 0 -65 20q-41 21 -63 21q-19 0 -30 -10q-4 -3 -9.5 -8.5t-12.5 -13t-9 -9.5zM470 842l-87 -80l-16 12l139 125l105 -94l-50 -46z" />
    <glyph glyph-name="hcircumflex" unicode="&#x125;" horiz-adv-x="424" 
d="M108 0l-59 66l21 19v551l-8 8l-51 -49l-8 8l98 97l50 -48l48 47l8 -8l-75 -76v-252l141 137l66 -54v-354l35 -34l48 47l8 -8l-95 -97l-50 49l-50 -49l-8 8l50 50v350l-42 36l-103 -98v-266l27 -29zM201 812l-87 -80l-16 12l139 125l105 -94l-50 -46z" />
    <glyph glyph-name="Hbar" unicode="&#x126;" horiz-adv-x="717" 
d="M427 391l9 4l17 -28q35 -4 90 -4v85h-176v-227q0 -50 -62 -118q-65 -71 -119 -103q-57 55 -116 49q-54 -8 -107 -61l1 12q89 96 159 104q7 1 30 1q27 37 27 61l-1 282h-96l57 47h45q11 36 36 65.5t74 67.5l11 -8q-50 -53 -54 -125h44q4 57 35 91q30 34 99 94l14 -8
q-76 -60 -77 -177h176v48q0 73 36 113q32 39 99 94q22 -45 63 -45q29 0 81 35l5 -6q-30 -30 -68 -55q-38 -26 -63 -26q-39 0 -61 16q-20 -46 -20 -108v-66h107l-52 -46h-55v-332q30 -31 55 -49l40 27l9 -10q-56 -42 -104 -85q-24 29 -53 53l-56 -47l-7 7q32 32 45 55l-1 220
q-30 4 -86 2q-30 0 -47 -29l-12 8q37 67 37 93q0 8 -8 29zM296 159l-1 289h-44v-220q0 -62 -67 -129q34 -12 57 -35q55 61 55 95zM129 644l-9 6q5 7 33 40l38 42q21 18 48 18q26 0 68 -21q43 -21 66 -21q14 0 31 11l8 -7l-32 -33q-35 -35 -62 -35q-22 0 -65 20
q-41 21 -63 21q-19 0 -30 -10q-4 -3 -9.5 -8.5t-12.5 -13t-9 -9.5z" />
    <glyph glyph-name="hbar" unicode="&#x127;" horiz-adv-x="424" 
d="M3 603l98 97l50 -48l48 47l8 -8l-75 -76v-63h110l-53 -53h-57v-136l141 137l66 -54v-354l35 -34l48 47l8 -8l-95 -97l-50 49l-50 -49l-8 8l50 50v350l-42 36l-103 -98v-266l27 -29l-51 -51l-59 66l21 19v413h-58l58 54v84l-8 8l-51 -49z" />
    <glyph glyph-name="Itilde" unicode="&#x128;" horiz-adv-x="421" 
d="M67 644l-9 6q4 7 33 40l38 42q21 18 48 18q26 0 68 -21q43 -21 66 -21q14 0 31 11l8 -7l-32 -33q-15 -15 -25 -23q-52 -55 -52 -149v-279q0 -62 -65 -127q40 -11 65 -37q55 61 55 95l-1 371q0 70 36 117q54 71 113 103l5 -11q-49 -43 -66 -85q-16 -39 -16 -114v-319
q0 -50 -62 -118q-65 -71 -119 -103q-57 55 -116 49q-54 -8 -107 -61l1 12q89 96 159 104q4 1 20 1q27 37 27 61l-1 105q-19 46 -81 11q1 52 29 70q9 9 26.5 6t25.5 -15v56q-22 36 -78 4q1 51 29 71q8 7 24 5.5t25 -11.5v21q0 81 86 155q-22 0 -65 20q-41 21 -62 21
q-19 0 -30 -10q-4 -3 -9.5 -8.5t-12.5 -13t-9 -9.5zM252 897q19 0 48 -16t47 -16q19 0 47 19l7 -7q-62 -57 -73 -64q-13 -10 -30 -10q-19 0 -48 16t-48 16q-20 0 -46 -19l-7 8q71 61 73 63q13 10 30 10z" />
    <glyph glyph-name="itilde" unicode="&#x129;" horiz-adv-x="289" 
d="M20 403l98 97l50 -48l48 47l8 -8l-75 -76v-321l36 -35l46 49l8 -8l-94 -100l-50 49l-46 -49l-8 8l46 48v380l-8 8l-51 -49zM117 647q19 0 48 -16t47 -16q19 0 47 19l7 -7q-62 -57 -73 -64q-13 -10 -30 -10t-48 16t-48 16q-20 0 -46 -19l-7 8q71 61 73 63q13 10 30 10z
" />
    <glyph glyph-name="Imacron" unicode="&#x12a;" horiz-adv-x="421" 
d="M67 644l-9 6q4 7 33 40l38 42q21 18 48 18q26 0 68 -21q43 -21 66 -21q14 0 31 11l8 -7l-32 -33q-18 -18 -25 -22q-52 -55 -52 -150v-279q0 -62 -65 -127q40 -11 65 -37q55 61 55 95l-1 371q0 70 36 117q54 71 113 103l5 -11q-49 -43 -66 -85q-16 -39 -16 -114v-319
q0 -50 -62 -118q-65 -71 -119 -103q-57 55 -116 49q-54 -8 -107 -61l1 12q89 96 159 104q4 1 20 1q27 37 27 61l-1 105q-19 46 -81 11q1 52 29 70q9 9 26.5 6t25.5 -15v56q-22 36 -78 4q1 51 29 71q8 7 24 5.5t25 -11.5v21q0 81 86 155q-22 0 -65 20q-41 21 -62 21
q-19 0 -30 -10q-4 -3 -9.5 -8.5t-12.5 -13t-9 -9.5zM336 829l-177 -1l62 59h172z" />
    <glyph glyph-name="imacron" unicode="&#x12b;" horiz-adv-x="267" 
d="M-2 403l98 97l50 -48l48 47l8 -8l-75 -76v-321l36 -35l46 49l8 -8l-94 -100l-50 49l-46 -49l-8 8l46 48v380l-8 8l-51 -49zM179 579l-177 -1l62 59h172z" />
    <glyph glyph-name="Ibreve" unicode="&#x12c;" horiz-adv-x="421" 
d="M67 644l-9 6q4 7 33 40l38 42q21 18 48 18q26 0 68 -21q43 -21 66 -21q14 0 31 11l8 -7l-32 -33q-18 -18 -25 -22q-52 -55 -52 -150v-279q0 -62 -65 -127q40 -11 65 -37q55 61 55 95l-1 371q0 70 36 117q54 71 113 103l5 -11q-49 -43 -66 -85q-16 -39 -16 -114v-319
q0 -50 -62 -118q-65 -71 -119 -103q-57 55 -116 49q-54 -8 -107 -61l1 12q89 96 159 104q4 1 20 1q27 37 27 61l-1 105q-19 46 -81 11q1 52 29 70q9 9 26.5 6t25.5 -15v56q-22 36 -78 4q1 51 29 71q8 7 24 5.5t25 -11.5v21q0 81 86 155q-22 0 -65 20q-41 21 -62 21
q-19 0 -30 -10q-4 -3 -9.5 -8.5t-12.5 -13t-9 -9.5zM158 855l62 39q49 -25 91 -25q30 0 84 25l5 -5q-92 -72 -150 -72q-48 0 -92 38z" />
    <glyph glyph-name="ibreve" unicode="&#x12d;" horiz-adv-x="267" 
d="M-2 403l98 97l50 -48l48 47l8 -8l-75 -76v-321l36 -35l46 49l8 -8l-94 -100l-50 49l-46 -49l-8 8l46 48v380l-8 8l-51 -49zM1 605l62 39q49 -25 91 -25q30 0 84 25l5 -5q-91 -72 -150 -72q-48 0 -92 38z" />
    <glyph glyph-name="Iogonek" unicode="&#x12e;" horiz-adv-x="421" 
d="M67 644l-9 6q4 7 33 40l38 42q21 18 48 18q26 0 68 -21q43 -21 66 -21q14 0 31 11l8 -7l-32 -33q-18 -18 -25 -22q-52 -55 -52 -150v-279q0 -62 -65 -127q40 -11 65 -37q55 61 55 95l-1 371q0 70 36 117q54 71 113 103l5 -11q-49 -43 -66 -85q-16 -39 -16 -114v-319
q0 -50 -62 -118q-65 -71 -119 -103q-1 -2 -10 -19t-12 -23q-9 -27 -8 -44q3 -39 50 -59l-38 -71q-26 6 -42 27t-16 48q0 55 70 146q-56 50 -110 44q-54 -8 -107 -61l1 12q89 96 159 104q4 1 20 1q27 37 27 61l-1 105q-19 46 -81 11q1 52 29 70q9 9 26.5 6t25.5 -15v56
q-22 36 -78 4q1 51 29 71q8 7 24 5.5t25 -11.5v21q0 81 86 155q-22 0 -65 20q-41 21 -62 21q-19 0 -30 -10q-4 -3 -9.5 -8.5t-12.5 -13t-9 -9.5z" />
    <glyph glyph-name="iogonek" unicode="&#x12f;" horiz-adv-x="227" 
d="M143 -145l-38 -71q-26 6 -42 27t-16 48q0 55 70 146l-44 44l-46 -49l-8 8l46 48v380l-8 8l-51 -49l-8 8l98 97l50 -48l48 47l8 -8l-75 -76v-321l36 -35l46 49l8 -8l-94 -100q-1 -2 -10 -19t-12 -23q-9 -27 -8 -44q3 -39 50 -59z" />
    <glyph glyph-name="Idot" unicode="&#x130;" horiz-adv-x="421" 
d="M67 644l-9 6q4 7 33 40l38 42q21 18 48 18q26 0 68 -21q43 -21 66 -21q14 0 31 11l8 -7l-32 -33q-15 -15 -25 -23q-52 -55 -52 -149v-279q0 -62 -65 -127q40 -11 65 -37q55 61 55 95l-1 371q0 70 36 117q54 71 113 103l5 -11q-49 -43 -66 -85q-16 -39 -16 -114v-319
q0 -50 -62 -118q-65 -71 -119 -103q-57 55 -116 49q-54 -8 -107 -61l1 12q89 96 159 104q4 1 20 1q27 37 27 61l-1 105q-19 46 -81 11q1 52 29 70q9 9 26.5 6t25.5 -15v56q-22 36 -78 4q1 51 29 71q8 7 24 5.5t25 -11.5v21q0 81 86 155q-22 0 -65 20q-41 21 -62 21
q-19 0 -30 -10q-4 -3 -9.5 -8.5t-12.5 -13t-9 -9.5zM274 811l-57 64l55 50l57 -63z" />
    <glyph glyph-name="dotlessi" unicode="&#x131;" horiz-adv-x="227" 
d="M-2 403l98 97l50 -48l48 47l8 -8l-75 -76v-321l36 -35l46 49l8 -8l-94 -100l-50 49l-46 -49l-8 8l46 48v380l-8 8l-51 -49z" />
    <glyph glyph-name="IJ" unicode="&#x132;" horiz-adv-x="792" 
d="M67 644l-9 6q4 7 33 40l38 42q21 18 48 18q26 0 68 -21q43 -21 66 -21q14 0 31 11l8 -7l-32 -33q-18 -18 -25 -22q-52 -55 -52 -150v-279q0 -62 -65 -127q40 -11 65 -37q55 61 55 95l-1 371q0 70 36 117q54 71 113 103l5 -11q-49 -43 -66 -85q-16 -39 -16 -114v-319
q0 -50 -62 -118q-65 -71 -119 -103q-57 55 -116 49q-54 -8 -107 -61l1 12q89 96 159 104q4 1 20 1q27 37 27 61l-1 105q-19 46 -81 11q1 52 29 70q9 9 26.5 6t25.5 -15v56q-22 36 -78 4q1 51 29 71q8 7 24 5.5t25 -11.5v21q0 81 86 155q-22 0 -65 20q-41 21 -62 21
q-19 0 -30 -10q-4 -3 -9.5 -8.5t-12.5 -13t-9 -9.5zM331 -152l1 12q89 96 159 104q71 11 118 -40q55 62 55 95l-1 511q0 70 36 117q54 71 113 103l5 -11q-49 -43 -66 -85q-16 -39 -16 -114v-459q0 -50 -62 -118q-65 -71 -119 -103q-57 55 -116 49q-54 -8 -107 -61zM490 33
l-13 11q61 67 61 102l-1 125q-19 46 -81 11q1 52 29 70q9 9 26.5 6t25.5 -15v56q-22 36 -78 4q1 51 29 71q8 7 24 5.5t25 -11.5v21q0 81 86 155q-22 0 -65 20q-41 21 -62 21q-19 0 -30 -10q-4 -3 -9.5 -8.5t-12.5 -13t-9 -9.5l-9 6q5 7 33 40l38 42q21 18 48 18q26 0 68 -21
q43 -21 66 -21q14 0 31 11l8 -7l-32 -33q-15 -15 -25 -23q-52 -55 -52 -149v-299q0 -80 -119 -175z" />
    <glyph glyph-name="ij" unicode="&#x133;" horiz-adv-x="406" 
d="M208 403l98 97l50 -48l48 47l8 -8l-76 -77v-436q0 -68 -8 -130q-5 -33 -50 -62q-39 -26 -92 -43l-8 7l49 29q37 24 40 44q9 52 9 154v458l-9 9l-51 -49zM-2 403l98 97l50 -48l48 47l8 -8l-75 -76v-321l36 -35l46 49l8 -8l-94 -100l-50 49l-46 -49l-8 8l46 48v380l-8 8
l-51 -49z" />
    <glyph glyph-name="Jcircumflex" unicode="&#x134;" horiz-adv-x="406" 
d="M-55 -152l1 12q89 96 159 104q71 11 118 -40q55 62 55 95l-1 511q0 70 36 117q54 71 113 103l5 -11q-49 -43 -66 -85q-16 -39 -16 -114v-459q0 -50 -62 -118q-65 -71 -119 -103q-57 55 -116 49q-54 -8 -107 -61zM104 33l-13 11q61 67 61 102l-1 125q-19 46 -81 11
q1 52 29 70q9 9 26.5 6t25.5 -15v56q-22 36 -78 4q1 51 29 71q8 7 24 5.5t25 -11.5v21q0 81 86 155q-22 0 -65 20q-40 21 -62 21q-19 0 -30 -10q-4 -3 -9.5 -8.5t-12.5 -13t-9 -9.5l-9 6q4 7 33 40l38 42q21 18 48 18q26 0 68 -21q43 -21 66 -21q14 0 31 11l8 -7l-32 -33
q-18 -18 -25 -22q-52 -55 -52 -150v-299q0 -80 -119 -175zM259 872l-87 -80l-16 12l139 125l105 -94l-50 -46z" />
    <glyph glyph-name="jcircumflex" unicode="&#x135;" horiz-adv-x="209" 
d="M10 403l98 97l50 -48l48 47l8 -8l-76 -77v-436q0 -68 -8 -130q-5 -33 -50 -62q-39 -26 -92 -43l-8 7l49 29q37 24 40 44q9 53 9 154v458l-9 9l-51 -49zM78 623l-87 -80l-16 12l139 125l105 -94l-50 -46z" />
    <glyph glyph-name="Kcommaaccent" unicode="&#x136;" horiz-adv-x="680" 
d="M-37 -12l1 12q89 96 159 104q7 1 30 1q27 37 27 61l-1 105q-19 46 -81 11q1 52 29 70q9 9 26.5 6t25.5 -15v51q-22 36 -78 4q1 51 29 71q8 7 24 6t25 -12q4 47 30.5 83t85.5 82l11 -8q-55 -58 -55 -153v-239q0 -62 -67 -129q34 -12 57 -35q55 61 55 95l-1 313
q0 74 36 114q30 34 99 94l82 70l97 -87v-116l-125 -116l91 -87l60 47l7 -7q-7 -8 -29 -30.5t-29 -30.5v-206q27 -30 54 -49l41 27l9 -10q-56 -42 -104 -85q-26 32 -54 53l-55 -47l-7 7q32 32 45 55l-1 217l-88 86q-23 -9 -57 -35v-115q0 -50 -62 -118q-65 -71 -119 -103
q-57 55 -116 49q-54 -8 -107 -61zM367 490v-137l6 6l167 155v110l-68 63l-59 -46q-46 -55 -46 -151zM129 644l-9 6q5 7 33 40l38 42q21 18 48 18q26 0 68 -21q43 -21 66 -21q14 0 31 11l8 -7l-32 -33q-35 -35 -62 -35q-22 0 -65 20q-41 21 -63 21q-19 0 -30 -10
q-4 -3 -9.5 -8.5t-12.5 -13t-9 -9.5zM401 -25q34 -19 34 -45q0 -36 -66 -109l-14 -1q21 38 21 55q-2 21 -29 51z" />
    <glyph glyph-name="kcommaaccent" unicode="&#x137;" horiz-adv-x="397" 
d="M92 0l-59 66l25 23v535l-16 15l-31 -30l-8 8l82 83l55 -54l41 40l8 -8l-68 -67l-1 -238l131 127l66 -120l-66 -50l66 -66v-178l30 -28l48 47l8 -8l-95 -97l-54 52v176l-59 56l-75 -59v-149l23 -25zM258 350l-52 92l-86 -84v-119zM212 -42q34 -19 34 -45q0 -35 -66 -109
l-14 -1q21 38 21 55q-2 21 -29 51z" />
    <glyph glyph-name="kgreenlandic" unicode="&#x138;" horiz-adv-x="397" 
d="M92 0l-59 66l25 23v535l-16 15l-31 -30l-8 8l82 83l55 -54l41 40l8 -8l-68 -67l-1 -238l131 127l66 -120l-66 -50l66 -66v-178l30 -28l48 47l8 -8l-95 -97l-54 52v176l-59 56l-75 -59v-149l23 -25zM258 350l-52 92l-86 -84v-119z" />
    <glyph glyph-name="Lacute" unicode="&#x139;" horiz-adv-x="526" 
d="M16 -7l-6 10q40 56 77 90q7 7 14 11q28 37 28 62l-1 105q-19 46 -81 11q1 52 29 70q9 9 26.5 6t25.5 -15v51q-22 36 -78 4q1 51 29 71q8 7 24 6t25 -12q4 47 30.5 83t85.5 82l11 -8q-55 -58 -55 -153v-239q0 -51 -46 -106q5 1 23 1q17 0 35 -3q33 42 33 69l-1 283
q0 74 36 114q30 34 99 94l14 -8q-77 -62 -77 -182v-239q0 -57 -79 -137q4 -1 86 -26q78 -24 114 -24q63 0 98 35l8 -4q-13 -41 -43 -68t-70 -27q-46 0 -151 27q-103 27 -150 27q-37 0 -63 -14q-24 -12 -50 -47zM78 644l-9 6q4 7 33 40l38 42q21 18 48 18q26 0 68 -21
q44 -21 66 -21q14 0 31 11l8 -7l-32 -33q-35 -35 -62 -35q-22 0 -65 20q-40 21 -63 21q-19 0 -30 -10q-4 -3 -9.5 -8.5t-12.5 -13t-9 -9.5zM209 806l133 124l14 -14l-133 -123z" />
    <glyph glyph-name="lacute" unicode="&#x13a;" horiz-adv-x="219" 
d="M-10 603l98 97l50 -48l48 47l8 -8l-75 -76v-521l36 -35l46 49l8 -8l-94 -100l-50 49l-46 -49l-8 8l46 48v580l-8 8l-51 -49zM19 756l133 124l14 -14l-133 -123z" />
    <glyph glyph-name="Lcommaaccent" unicode="&#x13b;" horiz-adv-x="526" 
d="M16 -7l-6 10q40 56 77 90q7 7 14 11q28 37 28 62l-1 105q-19 46 -81 11q1 52 29 70q9 9 26.5 6t25.5 -15v51q-22 36 -78 4q1 51 29 71q8 7 24 6t25 -12q4 47 30.5 83t85.5 82l11 -8q-55 -58 -55 -153v-239q0 -51 -46 -106q5 1 23 1q17 0 35 -3q33 42 33 69l-1 283
q0 74 36 114q30 34 99 94l14 -8q-77 -62 -77 -182v-239q0 -57 -79 -137q4 -1 86 -26q78 -24 114 -24q63 0 98 35l8 -4q-13 -41 -43 -68t-70 -27q-46 0 -151 27q-103 27 -150 27q-37 0 -63 -14q-24 -12 -50 -47zM78 644l-9 6q4 7 33 40l38 42q21 18 48 18q26 0 68 -21
q44 -21 66 -21q14 0 31 11l8 -7l-32 -33q-35 -35 -62 -35q-22 0 -65 20q-40 21 -63 21q-19 0 -30 -10q-4 -3 -9.5 -8.5t-12.5 -13t-9 -9.5zM282 -42q34 -19 34 -45q0 -35 -66 -109l-14 -1q21 38 21 55q-2 21 -29 51z" />
    <glyph glyph-name="lcommaaccent" unicode="&#x13c;" horiz-adv-x="219" 
d="M-10 603l98 97l50 -48l48 47l8 -8l-75 -76v-521l36 -35l46 49l8 -8l-94 -100l-50 49l-46 -49l-8 8l46 48v580l-8 8l-51 -49zM118 -42q34 -19 34 -45q0 -35 -66 -109l-14 -1q21 38 21 55q-2 21 -29 51z" />
    <glyph glyph-name="Lcaron" unicode="&#x13d;" horiz-adv-x="526" 
d="M16 -7l-6 10q40 56 77 90q7 7 14 11q28 37 28 62l-1 105q-19 46 -81 11q1 52 29 70q9 9 26.5 6t25.5 -15v51q-22 36 -78 4q1 51 29 71q8 7 24 6t25 -12q4 47 30.5 83t85.5 82l11 -8q-55 -58 -55 -153v-239q0 -51 -46 -106q5 1 23 1q17 0 35 -3q33 42 33 69l-1 283
q0 74 36 114q30 34 99 94l14 -8q-77 -62 -77 -182v-239q0 -57 -79 -137q4 -1 86 -26q78 -24 114 -24q63 0 98 35l8 -4q-13 -41 -43 -68t-70 -27q-46 0 -151 27q-103 27 -150 27q-37 0 -63 -14q-24 -12 -50 -47zM78 644l-9 6q4 7 33 40l38 42q21 18 48 18q26 0 68 -21
q44 -21 66 -21q14 0 31 11l8 -7l-32 -33q-35 -35 -62 -35q-22 0 -65 20q-40 21 -63 21q-19 0 -30 -10q-4 -3 -9.5 -8.5t-12.5 -13t-9 -9.5zM247 770l-127 91l55 45l111 -81l102 85l14 -12z" />
    <glyph glyph-name="lcaron" unicode="&#x13e;" horiz-adv-x="256" 
d="M-10 603l98 97l50 -48l48 47l8 -8l-75 -76v-521l36 -35l46 49l8 -8l-94 -100l-50 49l-46 -49l-8 8l46 48v580l-8 8l-51 -49zM260 698q34 -19 34 -45q0 -35 -66 -109l-14 -1q21 37 21 55q-2 21 -29 51z" />
    <glyph glyph-name="Ldot" unicode="&#x13f;" horiz-adv-x="526" 
d="M16 -7l-6 10q40 56 77 90q7 7 14 11q28 37 28 62l-1 105q-19 46 -81 11q1 52 29 70q9 9 26.5 6t25.5 -15v51q-22 36 -78 4q1 51 29 71q8 7 24 6t25 -12q4 47 30.5 83t85.5 82l11 -8q-55 -58 -55 -153v-239q0 -51 -46 -106q5 1 23 1q17 0 35 -3q33 42 33 69l-1 283
q0 74 36 114q30 34 99 94l14 -8q-77 -62 -77 -182v-239q0 -57 -79 -137q4 -1 86 -26q78 -24 114 -24q63 0 98 35l8 -4q-13 -41 -43 -68t-70 -27q-46 0 -151 27q-103 27 -150 27q-37 0 -63 -14q-24 -12 -50 -47zM78 644l-9 6q4 7 33 40l38 42q21 18 48 18q26 0 68 -21
q44 -21 66 -21q14 0 31 11l8 -7l-32 -33q-35 -35 -62 -35q-22 0 -65 20q-40 21 -63 21q-19 0 -30 -10q-4 -3 -9.5 -8.5t-12.5 -13t-9 -9.5zM464 240l-57 64l55 50l57 -63z" />
    <glyph glyph-name="ldot" unicode="&#x140;" horiz-adv-x="287" 
d="M-10 603l98 97l50 -48l48 47l8 -8l-75 -76v-521l36 -35l46 49l8 -8l-94 -100l-50 49l-46 -49l-8 8l46 48v580l-8 8l-51 -49zM233 210l-57 64l55 50l57 -63z" />
    <glyph glyph-name="Lslash" unicode="&#x141;" horiz-adv-x="524" 
d="M133 274l-67 -51l-12 12l79 61v153q0 53 27 92t89 87l11 -8q-55 -58 -55 -153v-116l44 34v87q0 74 36 114q30 34 99 94l14 -8q-77 -62 -77 -182v-50l85 65l17 -11l-102 -78v-165q0 -53 -75 -133q25 -8 60 -22q88 -32 129 -32q63 0 98 35l8 -4q-13 -41 -43 -68t-70 -27
q-46 0 -150 30q-102 31 -149 31q-23 0 -38 -4l-5 -4l-2 2q-4 -1 -18 -8q-24 -12 -50 -47l-6 10q40 56 77 90q10 8 29 19q18 25 18 47zM83 644l-9 6q4 7 33 40l38 42q21 18 48 18q26 0 68 -21q43 -21 66 -21q14 0 31 11l8 -7l-32 -33q-35 -35 -62 -35q-22 0 -65 20
q-41 21 -63 21q-19 0 -30 -10q-4 -3 -9.5 -8.5t-12.5 -13t-9 -9.5zM250 189l-1 173l-44 -34v-100q0 -49 -40 -98h12q21 0 43 -6q30 40 30 65z" />
    <glyph glyph-name="lslash" unicode="&#x142;" horiz-adv-x="227" 
d="M-10 603l98 97l50 -48l48 47l8 -8l-75 -76v-247l91 84l11 -10l-102 -93v-255l36 -35l46 49l8 -8l-94 -100l-50 49l-46 -49l-8 8l46 48v236l-54 -49l-10 9l64 59v325l-8 8l-51 -49z" />
    <glyph glyph-name="Nacute" unicode="&#x143;" horiz-adv-x="737" 
d="M-37 -12l1 12q89 96 159 104q7 1 30 1q27 37 27 61l-1 105q-19 46 -81 11q1 52 29 70q9 9 26.5 6t25.5 -15v51q-22 36 -78 4q1 51 29 71q8 7 24 6t25 -12q4 47 30.5 83t85.5 82l11 -8q-55 -58 -55 -153v-239q0 -62 -67 -129q34 -12 57 -35q55 61 55 95l-1 313
q0 74 36 114q30 34 99 94q52 43 95 70l97 -93l60 47l7 -7q-7 -8 -29 -30.5t-29 -30.5v-519q27 -30 54 -49l41 27l9 -10q-56 -42 -104 -85q-26 32 -54 53l-55 -47l-7 7q32 32 45 55l-1 530l-88 86q-20 -7 -41 -25q-63 -59 -63 -169v-269q0 -50 -62 -118q-65 -71 -119 -103
q-57 55 -116 49q-54 -8 -107 -61zM129 644l-9 6q5 7 33 40l38 42q21 18 48 18q26 0 68 -21q43 -21 66 -21q14 0 31 11l8 -7l-32 -33q-35 -35 -62 -35q-22 0 -65 20q-41 21 -63 21q-19 0 -30 -10q-4 -3 -9.5 -8.5t-12.5 -13t-9 -9.5zM360 806l133 124l14 -14l-133 -123z" />
    <glyph glyph-name="nacute" unicode="&#x144;" horiz-adv-x="435" 
d="M106 0l-59 66l25 23v335l-16 15l-31 -30l-8 8l82 83l55 -54l41 40l8 -8l-68 -67v-40l133 129l66 -54v-354l35 -34l48 47l8 -8l-95 -97l-50 49l-50 -49l-8 8l50 50v350l-42 36l-95 -90l-1 -278l23 -25zM131 556l133 124l14 -14l-133 -123z" />
    <glyph glyph-name="Ncommaaccent" unicode="&#x145;" horiz-adv-x="737" 
d="M-37 -12l1 12q89 96 159 104q7 1 30 1q27 37 27 61l-1 105q-19 46 -81 11q1 52 29 70q9 9 26.5 6t25.5 -15v51q-22 36 -78 4q1 51 29 71q8 7 24 6t25 -12q4 47 30.5 83t85.5 82l11 -8q-55 -58 -55 -153v-239q0 -62 -67 -129q34 -12 57 -35q55 61 55 95l-1 313
q0 74 36 114q30 34 99 94q52 43 95 70l97 -93l60 47l7 -7q-7 -8 -29 -30.5t-29 -30.5v-519q27 -30 54 -49l41 27l9 -10q-56 -42 -104 -85q-26 32 -54 53l-55 -47l-7 7q32 32 45 55l-1 530l-88 86q-20 -7 -41 -25q-63 -59 -63 -169v-269q0 -50 -62 -118q-65 -71 -119 -103
q-57 55 -116 49q-54 -8 -107 -61zM129 644l-9 6q5 7 33 40l38 42q21 18 48 18q26 0 68 -21q43 -21 66 -21q14 0 31 11l8 -7l-32 -33q-35 -35 -62 -35q-22 0 -65 20q-41 21 -63 21q-19 0 -30 -10q-4 -3 -9.5 -8.5t-12.5 -13t-9 -9.5zM440 -6q34 -19 34 -45q0 -35 -66 -109
l-14 -1q21 37 21 55q-2 21 -29 51z" />
    <glyph glyph-name="ncommaaccent" unicode="&#x146;" horiz-adv-x="435" 
d="M106 0l-59 66l25 23v335l-16 15l-31 -30l-8 8l82 83l55 -54l41 40l8 -8l-68 -67v-40l133 129l66 -54v-354l35 -34l48 47l8 -8l-95 -97l-50 49l-50 -49l-8 8l50 50v350l-42 36l-95 -90l-1 -278l23 -25zM207 -42q34 -19 34 -45q0 -35 -66 -109l-14 -1q21 38 21 55
q-2 21 -29 51z" />
    <glyph glyph-name="Ncaron" unicode="&#x147;" horiz-adv-x="737" 
d="M-37 -12l1 12q89 96 159 104q7 1 30 1q27 37 27 61l-1 105q-19 46 -81 11q1 52 29 70q9 9 26.5 6t25.5 -15v51q-22 36 -78 4q1 51 29 71q8 7 24 6t25 -12q4 47 30.5 83t85.5 82l11 -8q-55 -58 -55 -153v-239q0 -62 -67 -129q34 -12 57 -35q55 61 55 95l-1 313
q0 74 36 114q27 32 94 90q63 52 100 74l97 -93l60 47l7 -7q-7 -8 -29 -30.5t-29 -30.5v-519q27 -30 54 -49l41 27l9 -10q-56 -42 -104 -85q-26 32 -54 53l-55 -47l-7 7q32 32 45 55l-1 530l-88 86q-20 -7 -41 -25q-63 -59 -63 -169v-269q0 -50 -62 -118q-65 -71 -119 -103
q-57 55 -116 49q-54 -8 -107 -61zM129 644l-9 6q5 7 33 40l38 42q21 18 48 18q26 0 68 -21q43 -21 66 -21q14 0 31 11l8 -7l-32 -33q-35 -35 -62 -35q-22 0 -65 20q-41 21 -63 21q-19 0 -30 -10q-4 -3 -9.5 -8.5t-12.5 -13t-9 -9.5zM415 780l-127 91l55 45l111 -81l102 85
l14 -12z" />
    <glyph glyph-name="ncaron" unicode="&#x148;" horiz-adv-x="435" 
d="M106 0l-59 66l25 23v335l-16 15l-31 -30l-8 8l82 83l55 -54l41 40l8 -8l-68 -67v-40l133 129l66 -54v-354l35 -34l48 47l8 -8l-95 -97l-50 49l-50 -49l-8 8l50 50v350l-42 36l-95 -90l-1 -278l23 -25zM186 530l-127 91l55 45l111 -81l102 85l14 -12z" />
    <glyph glyph-name="napostrophe" unicode="&#x149;" horiz-adv-x="559" 
d="M230 0l-59 66l25 23v335l-16 15l-31 -30l-8 8l82 83l55 -54l41 40l8 -8l-68 -67v-40l133 129l66 -54v-354l35 -34l48 47l8 -8l-95 -97l-50 49l-50 -49l-8 8l50 50v350l-42 36l-95 -90l-1 -278l23 -25zM71 498q34 -19 34 -45q0 -35 -66 -109l-14 -1q21 37 21 55
q-2 21 -29 51z" />
    <glyph glyph-name="Eng" unicode="&#x14a;" horiz-adv-x="664" 
d="M227 -152l1 12q89 96 159 104q71 11 118 -40q55 62 55 95l-1 579l-88 86q-20 -7 -41 -25q-63 -59 -63 -169v-269q0 -50 -62 -118q-65 -71 -119 -103q-57 55 -116 49q-54 -8 -107 -61l1 12q89 96 159 104q7 1 30 1q27 37 27 61l-1 105q-19 46 -81 11q1 52 29 70
q9 9 26.5 6t25.5 -15v51q-22 36 -78 4q1 51 29 71q8 7 24 6t25 -12q4 47 30.5 83t85.5 82l11 -8q-55 -58 -55 -153v-239q0 -62 -67 -129q34 -12 57 -35q55 61 55 95l-1 313q0 74 36 114q30 34 99 94q52 43 95 70l97 -93l60 47l7 -7q-7 -8 -29 -30.5t-29 -30.5v-555
q0 -50 -62 -118q-65 -71 -119 -103q-57 55 -116 49q-54 -8 -107 -61zM129 644l-9 6q5 7 33 40l38 42q21 18 48 18q26 0 68 -21q43 -21 66 -21q14 0 31 11l8 -7l-32 -33q-35 -35 -62 -35q-22 0 -65 20q-41 21 -63 21q-19 0 -30 -10q-4 -3 -9.5 -8.5t-12.5 -13t-9 -9.5z" />
    <glyph glyph-name="eng" unicode="&#x14b;" horiz-adv-x="328" 
d="M106 0l-59 66l25 23v335l-16 15l-31 -30l-8 8l82 83l55 -54l41 40l8 -8l-68 -67v-40l133 129l66 -54v-368q0 -68 -8 -130q-5 -33 -50 -62q-39 -26 -92 -43l-8 7l49 29q37 24 40 44q9 53 9 154v329l-44 38l-95 -90l-1 -278l23 -25z" />
    <glyph glyph-name="Omacron" unicode="&#x14c;" horiz-adv-x="707" 
d="M267 438l-4 -62q-20 48 -82 12q1 51 29 71q8 7 24 6t25 -12v67q0 41 14 63q12 21 81 77q39 36 122 90q102 -13 160 -106q57 -91 57 -220q0 -184 -103 -305q-104 -120 -270 -120q-128 0 -219 88t-91 233q0 130 62 233t201 197h19q-121 -95 -168 -182q-48 -87 -48 -207
q0 -116 80 -207q81 -91 200 -89q138 2 207 91q69 90 69 242q0 101 -64 195q-65 95 -140 95q-5 0 -34 -20q-31 -21 -42 -31q-15 -13 -18.5 -19t-3.5 -21v-229q0 -81 -118 -175l-13 11q61 67 61 102l-1 77v70q5 -5 8 -15zM446 829l-177 -1l62 59h172z" />
    <glyph glyph-name="omacron" unicode="&#x14d;" horiz-adv-x="372" 
d="M314 128l-155 -128l-97 69l-53 -69l-8 8l52 69v286l152 137l100 -90l58 81l8 -8l-57 -81v-274zM115 115l83 -60l54 45v267l-83 76l-54 -50v-278zM267 579l-177 -1l62 59h172z" />
    <glyph glyph-name="Obreve" unicode="&#x14e;" horiz-adv-x="707" 
d="M267 438l-4 -62q-20 48 -82 12q1 51 29 71q8 7 24 6t25 -12v67q0 41 14 63q12 21 81 77q39 36 122 90q102 -13 160 -106q57 -91 57 -220q0 -184 -103 -305q-104 -120 -270 -120q-128 0 -219 88t-91 233q0 130 62 233t201 197h19q-121 -95 -168 -182q-48 -87 -48 -207
q0 -116 80 -207q81 -91 200 -89q138 2 207 91q69 90 69 242q0 101 -64 195q-65 95 -140 95q-5 0 -34 -20q-31 -21 -42 -31q-15 -13 -18.5 -19t-3.5 -21v-229q0 -81 -118 -175l-13 11q61 67 61 102l-1 77v70q5 -5 8 -15zM268 855l62 39q49 -25 91 -25q30 0 84 25l5 -5
q-92 -72 -150 -72q-48 0 -92 38z" />
    <glyph glyph-name="obreve" unicode="&#x14f;" horiz-adv-x="372" 
d="M314 128l-155 -128l-97 69l-53 -69l-8 8l52 69v286l152 137l100 -90l58 81l8 -8l-57 -81v-274zM115 115l83 -60l54 45v267l-83 76l-54 -50v-278zM89 605l62 39q49 -25 91 -25q30 0 84 25l5 -5q-91 -72 -150 -72q-48 0 -92 38z" />
    <glyph glyph-name="Ohungarumlaut" unicode="&#x150;" horiz-adv-x="707" 
d="M267 438l-4 -62q-20 48 -82 12q1 51 29 71q8 7 24 6t25 -12v67q0 41 14 63q12 21 81 77q39 36 122 90q102 -13 160 -106q57 -91 57 -220q0 -184 -103 -305q-104 -120 -270 -120q-128 0 -219 88t-91 233q0 130 62 233t201 197h19q-121 -95 -168 -182q-48 -87 -48 -207
q0 -116 80 -207q81 -91 200 -89q138 2 207 91q69 90 69 242q0 101 -64 195q-65 95 -140 95q-5 0 -34 -20q-31 -21 -42 -31q-15 -13 -18.5 -19t-3.5 -21v-229q0 -81 -118 -175l-13 11q61 67 61 102l-1 77v70q5 -5 8 -15zM376 816l133 124l14 -14l-133 -123zM272 816l133 124
l14 -14l-133 -123z" />
    <glyph glyph-name="ohungarumlaut" unicode="&#x151;" horiz-adv-x="372" 
d="M314 128l-155 -128l-97 69l-53 -69l-8 8l52 69v286l152 137l100 -90l58 81l8 -8l-57 -81v-274zM115 115l83 -60l54 45v267l-83 76l-54 -50v-278zM93 566l133 124l14 -14l-133 -123zM197 566l133 124l14 -14l-133 -123z" />
    <glyph glyph-name="OE" unicode="&#x152;" horiz-adv-x="716" 
d="M273 750h19q-120 -94 -168 -183t-48 -215q0 -111 79 -199t195 -88q90 0 143 38q54 40 107 124l13 -26q-27 -70 -118 -136t-174 -66q-123 0 -218 84q-93 85 -93 215q0 144 60 250q59 105 203 202zM374 136l-13 12q61 64 61 101v67q-21 44 -82 10q5 53 30 71q9 7 26.5 4.5
t25.5 -14.5v74q-23 38 -79 6q5 54 30 70q8 7 24 5.5t25 -10.5q2 42 23 76t63 70l48 50q19 17 44 17q23 0 61 -20q37 -19 59 -19q12 0 28 11l7 -7l-29 -30q-32 -32 -61 -32q-21 0 -52 18q-32 18 -52 18q-13 0 -29 -9q-40 -52 -40 -134v-110l42 45q16 16 43 16q24 0 59 -19
q36 -18 57 -18q14 0 27 10l7 -7l-29 -29q-28 -31 -58 -31q-19 0 -51 17q-31 18 -50 18q-23 0 -47 -24v-98q0 -81 -118 -175z" />
    <glyph glyph-name="oe" unicode="&#x153;" horiz-adv-x="480" 
d="M398 500l66 -120l-150 -120v-157l51 -47l43 34l9 -8l-96 -82l-61 58l-45 -58l-8 8l45 60v8l-93 -76l-97 69l-53 -69l-8 8l52 69v286l152 137l100 -90l58 81l8 -8l-21 -30zM115 115l83 -60l54 45v267l-83 76l-54 -50v-278zM405 350l-52 92l-35 -34l-4 -6v-126z" />
    <glyph glyph-name="Racute" unicode="&#x154;" horiz-adv-x="712" 
d="M547 68v238l-72 65l-108 -85v-65q0 -50 -62 -118q-65 -71 -119 -103q-57 55 -116 49q-54 -8 -107 -61l1 12q89 96 159 104q4 1 20 1q27 37 27 61l-1 105q-19 46 -81 11q1 52 29 70q9 9 26.5 6t25.5 -15v56q-22 36 -78 4q1 51 29 71q8 7 24 5.5t25 -11.5v21q0 81 86 155
q-22 0 -65 20q-41 21 -62 21q-19 0 -30 -10q-4 -3 -9.5 -8.5t-12.5 -13t-9 -9.5l-9 6q4 7 33 40l38 42q21 18 48 18q26 0 68 -21q43 -21 66 -21q14 0 31 11l8 -7l-32 -33q-18 -18 -25 -22q-52 -55 -52 -150v-279q0 -62 -65 -127q40 -11 65 -37q55 61 55 95l-1 345
q0 70 36 117q37 46 70 74q41 34 81 34q58 0 100 -39q43 -37 43 -94q0 -76 -95 -177l71 -64l62 50l7 -7q-19 -19 -55 -58v-223q27 -28 55 -49l41 27l9 -10q-44 -31 -105 -85q-24 29 -53 53l-55 -47l-7 7q38 38 47 55zM367 514v-204l113 96l4 3q83 74 83 148q0 51 -40 91
q-41 41 -90 41q-12 0 -15 -1q-32 -35 -43.5 -72.5t-11.5 -101.5zM339 793l133 124l14 -14l-133 -123z" />
    <glyph glyph-name="racute" unicode="&#x155;" horiz-adv-x="290" 
d="M218 500l62 -60l-56 -56l-54 50l-38 -38v-302l36 -35l46 49l8 -8l-94 -100l-50 49l-46 -49l-8 8l46 48v380l-8 8l-51 -49l-8 8l98 97l60 -57zM78 556l133 124l14 -14l-133 -123z" />
    <glyph glyph-name="Rcommaaccent" unicode="&#x156;" horiz-adv-x="712" 
d="M547 68v238l-72 65l-108 -85v-65q0 -50 -62 -118q-65 -71 -119 -103q-57 55 -116 49q-54 -8 -107 -61l1 12q89 96 159 104q4 1 20 1q27 37 27 61l-1 105q-19 46 -81 11q1 52 29 70q9 9 26.5 6t25.5 -15v56q-22 36 -78 4q1 51 29 71q8 7 24 5.5t25 -11.5v21q0 81 86 155
q-22 0 -65 20q-41 21 -62 21q-19 0 -30 -10q-4 -3 -9.5 -8.5t-12.5 -13t-9 -9.5l-9 6q4 7 33 40l38 42q21 18 48 18q26 0 68 -21q43 -21 66 -21q14 0 31 11l8 -7l-32 -33q-15 -15 -25 -23q-52 -55 -52 -149v-279q0 -62 -65 -127q40 -11 65 -37q55 61 55 95l-1 345
q0 70 36 117q37 46 70 74q41 34 81 34q58 0 100 -39q43 -37 43 -94q0 -76 -95 -177l71 -64l62 50l7 -7q-19 -19 -55 -58v-223q27 -28 55 -49l41 27l9 -10q-44 -31 -105 -85q-24 29 -53 53l-55 -47l-7 7q38 38 47 55zM367 514v-204l113 96l4 3q83 74 83 148q0 51 -40 91
q-41 41 -90 41q-12 0 -15 -1q-32 -35 -43.5 -72.5t-11.5 -101.5zM408 -25q34 -19 34 -45q0 -36 -66 -109l-14 -1q21 38 21 55q-2 21 -29 51z" />
    <glyph glyph-name="rcommaaccent" unicode="&#x157;" horiz-adv-x="290" 
d="M218 500l62 -60l-56 -56l-54 50l-38 -38v-302l36 -35l46 49l8 -8l-94 -100l-50 49l-46 -49l-8 8l46 48v380l-8 8l-51 -49l-8 8l98 97l60 -57zM126 -42q34 -19 34 -45q0 -35 -66 -109l-14 -1q21 38 21 55q-2 21 -29 51z" />
    <glyph glyph-name="Rcaron" unicode="&#x158;" horiz-adv-x="712" 
d="M547 68v238l-72 65l-108 -85v-65q0 -50 -62 -118q-65 -71 -119 -103q-57 55 -116 49q-54 -8 -107 -61l1 12q89 96 159 104q4 1 20 1q27 37 27 61l-1 105q-19 46 -81 11q1 52 29 70q9 9 26.5 6t25.5 -15v56q-22 36 -78 4q1 51 29 71q8 7 24 5.5t25 -11.5v21q0 81 86 155
q-22 0 -65 20q-41 21 -62 21q-19 0 -30 -10q-4 -3 -9.5 -8.5t-12.5 -13t-9 -9.5l-9 6q4 7 33 40l38 42q21 18 48 18q26 0 68 -21q43 -21 66 -21q14 0 31 11l8 -7l-32 -33q-18 -18 -25 -22q-52 -55 -52 -150v-279q0 -62 -65 -127q40 -11 65 -37q55 61 55 95l-1 345
q0 70 36 117q37 46 70 74q41 34 81 34q58 0 100 -39q43 -37 43 -94q0 -76 -95 -177l71 -64l62 50l7 -7q-19 -19 -55 -58v-223q27 -28 55 -49l41 27l9 -10q-44 -31 -105 -85q-24 29 -53 53l-55 -47l-7 7q38 38 47 55zM367 514v-204l113 96l4 3q83 74 83 148q0 51 -40 91
q-41 41 -90 41q-12 0 -15 -1q-32 -35 -43.5 -72.5t-11.5 -101.5zM394 767l-127 91l55 45l111 -81l102 85l14 -12z" />
    <glyph glyph-name="rcaron" unicode="&#x159;" horiz-adv-x="298" 
d="M218 500l62 -60l-56 -56l-54 50l-38 -38v-302l36 -35l46 49l8 -8l-94 -100l-50 49l-46 -49l-8 8l46 48v380l-8 8l-51 -49l-8 8l98 97l60 -57zM133 530l-127 91l55 45l111 -81l102 85l14 -12z" />
    <glyph glyph-name="Sacute" unicode="&#x15a;" horiz-adv-x="467" 
d="M416 762l-1 -12q-89 -96 -160 -104q-61 -7 -104 27q-21 -47 -21 -112v-111q54 -57 67 -67l93 78l105 -95l63 50l7 -7q-19 -19 -55 -58v-214l-147 -137q-70 55 -146 49q-55 -4 -118 -61l-7 12q104 95 187 104q76 7 128 -32l35 32v210l-90 83q-93 -71 -107 -84
q-41 48 -65 69l-21 -14v3l-68 -58l-8 7q59 59 76 83l-1 140q0 69 36 113q40 47 99 94q57 -57 116 -49q52 6 107 61zM191 806l133 124l14 -14l-133 -123z" />
    <glyph glyph-name="sacute" unicode="&#x15b;" horiz-adv-x="315" 
d="M248 490l5 -4q-32 -46 -72 -59q-45 -14 -83 17v-142l45 -49l55 42l70 -63v-124l55 -73l-8 -8l-56 73l-125 -100q-51 57 -128 0l-5 5q77 77 132 77q29 0 53 -15l18 8l2 2v120l-52 48l-59 -46l-59 66v149l-48 69l8 8l49 -70l79 74l4 5v-1l1 1v-2q30 -24 62 -24t57 16z
M78 556l133 124l14 -14l-133 -123z" />
    <glyph glyph-name="Scircumflex" unicode="&#x15c;" horiz-adv-x="467" 
d="M416 762l-1 -12q-89 -96 -160 -104q-61 -7 -104 27q-21 -47 -21 -112v-111q54 -57 67 -67l93 78l105 -95l63 50l7 -7q-19 -19 -55 -58v-214l-147 -137q-70 55 -146 49q-55 -4 -118 -61l-7 12q104 95 187 104q76 7 128 -32l35 32v210l-90 83q-93 -71 -107 -84
q-41 48 -65 69l-21 -14v3l-68 -58l-8 7q59 59 76 83l-1 140q0 69 36 113q40 47 99 94q57 -57 116 -49q52 6 107 61zM251 873l-87 -80l-16 12l139 125l105 -94l-50 -46z" />
    <glyph glyph-name="scircumflex" unicode="&#x15d;" horiz-adv-x="315" 
d="M248 490l5 -4q-32 -46 -72 -59q-45 -14 -83 17v-142l45 -49l55 42l70 -63v-124l55 -73l-8 -8l-56 73l-125 -100q-51 57 -128 0l-5 5q77 77 132 77q29 0 53 -15l18 8l2 2v120l-52 48l-59 -46l-59 66v149l-48 69l8 8l49 -70l79 74l4 5v-1l1 1v-2q30 -24 62 -24t57 16z
M138 623l-87 -80l-16 12l139 125l105 -94l-50 -46z" />
    <glyph glyph-name="Scedilla" unicode="&#x15e;" horiz-adv-x="467" 
d="M416 762l-1 -12q-89 -96 -160 -104q-61 -7 -104 27q-21 -47 -21 -112v-111q54 -57 67 -67l93 78l105 -95l63 50l7 -7q-19 -19 -55 -58v-214l-147 -137q-70 55 -146 49q-55 -4 -118 -61l-7 12q104 95 187 104q76 7 128 -32l35 32v210l-90 83q-93 -71 -107 -84
q-41 48 -65 69l-21 -14v3l-68 -58l-8 7q59 59 76 83l-1 140q0 69 36 113q40 47 99 94q57 -57 116 -49q52 6 107 61zM182 5l5 4q23 -21 51 -65q31 -46 31 -73q0 -29 -51 -58l-44 64q1 1 6.5 5t7.5 5.5t6.5 5.5t7 6.5t5.5 6.5t5 7.5t3 8t1 9.5q0 22 -34 74z" />
    <glyph glyph-name="scedilla" unicode="&#x15f;" horiz-adv-x="315" 
d="M248 490l5 -4q-32 -46 -72 -59q-45 -14 -83 17v-142l45 -49l55 42l70 -63v-124l55 -73l-8 -8l-56 73l-119 -95q24 -24 49 -65q27 -44 27 -67q0 -30 -51 -58l-44 64q1 1 6.5 5t7.5 5.5t6.5 5.5t7 6.5t5.5 6.5t5 7.5t3 8t1 9.5q0 20 -32 70q-50 53 -125 -3l-5 5
q77 77 132 77q29 0 53 -15l18 8l2 2v120l-52 48l-59 -46l-59 66v149l-48 69l8 8l49 -70l79 74l4 5v-1l1 1v-2q30 -24 62 -24t57 16z" />
    <glyph glyph-name="Scaron" unicode="&#x160;" horiz-adv-x="467" 
d="M416 762l-1 -12q-89 -96 -160 -104q-61 -7 -104 27q-21 -47 -21 -112v-111q54 -57 67 -67l93 78l105 -95l63 50l7 -7q-19 -19 -55 -58v-214l-147 -137q-70 55 -146 49q-55 -4 -118 -61l-7 12q104 95 187 104q76 7 128 -32l35 32v210l-90 83q-93 -71 -107 -84
q-41 48 -65 69l-21 -14v3l-68 -58l-8 7q59 59 76 83l-1 140q0 69 36 113q40 47 99 94q57 -57 116 -49q52 6 107 61zM246 780l-127 91l55 45l111 -81l102 85l14 -12z" />
    <glyph glyph-name="scaron" unicode="&#x161;" horiz-adv-x="315" 
d="M248 490l5 -4q-32 -46 -72 -59q-45 -14 -83 17v-142l45 -49l55 42l70 -63v-124l55 -73l-8 -8l-56 73l-125 -100q-51 57 -128 0l-5 5q77 77 132 77q29 0 53 -15l18 8l2 2v120l-52 48l-59 -46l-59 66v149l-48 69l8 8l49 -70l79 74l4 5v-1l1 1v-2q30 -24 62 -24t57 16z
M133 530l-127 91l55 45l111 -81l102 85l14 -12z" />
    <glyph glyph-name="Tcommaaccent" unicode="&#x162;" horiz-adv-x="510" 
d="M-20 -12l1 12q89 96 159 104q7 1 30 1q27 37 27 61l-1 105q-19 46 -81 11q1 52 29 70q9 9 26.5 6t25.5 -15v51q-22 36 -78 4q1 51 29 71q8 7 24 6t25 -12q4 47 30.5 83t85.5 82l11 -8q-56 -59 -56 -153v-239q0 -62 -66 -129q34 -12 57 -35q55 61 55 95l-1 303q0 53 27 92
t89 87l11 -8q-56 -59 -56 -153v-259q0 -51 -61 -118q-65 -71 -119 -103q-57 55 -116 49q-54 -8 -107 -61zM-11 602l-6 10q8 10 20 30q32 46 48 60q34 30 92 30q65 0 211 -9q155 -8 211 -8q63 0 98 35l7 -3q-12 -42 -42 -69t-70 -27q-70 0 -228 6t-228 6q-37 0 -63 -14
q-24 -12 -50 -47zM277 -42q34 -19 34 -45q0 -35 -66 -109l-14 -1q21 38 21 55q-2 21 -29 51z" />
    <glyph glyph-name="tcommaaccent" unicode="&#x163;" horiz-adv-x="257" 
d="M247 500l-53 -53h-57v-343l46 -45l46 49l8 -8l-94 -100l-60 59l-46 -49l-8 8l46 48v380h-58l120 112v-58h110zM133 -42q34 -19 34 -45q0 -35 -66 -109l-14 -1q21 38 21 55q-2 21 -29 51z" />
    <glyph glyph-name="Tcaron" unicode="&#x164;" horiz-adv-x="510" 
d="M-20 -12l1 12q89 96 159 104q7 1 30 1q27 37 27 61l-1 105q-19 46 -81 11q1 52 29 70q9 9 26.5 6t25.5 -15v51q-22 36 -78 4q1 51 29 71q8 7 24 6t25 -12q4 47 30.5 83t85.5 82l11 -8q-56 -59 -56 -153v-239q0 -62 -66 -129q34 -12 57 -35q55 61 55 95l-1 303q0 53 27 92
t89 87l11 -8q-56 -59 -56 -153v-259q0 -51 -61 -118q-65 -71 -119 -103q-57 55 -116 49q-54 -8 -107 -61zM-11 602l-6 10q8 10 20 30q32 46 48 60q34 30 92 30q65 0 211 -9q155 -8 211 -8q63 0 98 35l7 -3q-12 -42 -42 -69t-70 -27q-70 0 -228 6t-228 6q-37 0 -63 -14
q-24 -12 -50 -47zM308 777l-127 91l55 45l111 -81l102 85l14 -12z" />
    <glyph glyph-name="tcaron" unicode="&#x165;" horiz-adv-x="347" 
d="M247 500l-53 -53h-57v-343l46 -45l46 49l8 -8l-94 -100l-60 59l-46 -49l-8 8l46 48v380h-58l120 112v-58h110zM303 508q34 -19 34 -45q0 -36 -66 -109l-14 -1q21 37 21 55q-2 21 -29 51z" />
    <glyph glyph-name="Tbar" unicode="&#x166;" horiz-adv-x="510" 
d="M196 326h-118l62 59h56v64q0 53 27 92t89 87l11 -8q-56 -59 -56 -153v-82h45v77q0 53 27 92t89 87l11 -8q-56 -59 -56 -153v-95h118l-57 -58h-61v-106q0 -51 -61 -118q-65 -71 -119 -103q-57 55 -116 49q-54 -8 -107 -61l1 12q89 96 159 104q7 1 30 1q27 37 27 61z
M-11 602l-6 10q8 10 20 30q32 46 48 60q34 30 92 30q65 0 211 -9q155 -8 211 -8q63 0 98 35l7 -3q-12 -42 -42 -69t-70 -27q-70 0 -228 6t-228 6q-37 0 -63 -14q-24 -12 -50 -47zM267 326v-98q0 -62 -66 -129q34 -12 57 -35q55 61 55 95l-1 167h-45z" />
    <glyph glyph-name="tbar" unicode="&#x167;" horiz-adv-x="262" 
d="M80 260h-63l62 59h1v127h-58l120 112v-58h110l-53 -53h-57v-128h109l-57 -58h-52v-157l46 -45l46 49l8 -8l-94 -100l-60 59l-46 -49l-8 8l46 48v194z" />
    <glyph glyph-name="Utilde" unicode="&#x168;" horiz-adv-x="604" 
d="M119 91q0 35 2 179q-20 48 -82 12q1 52 29 70q9 10 28.5 6t25.5 -19q1 10 1 48q-19 46 -81 11q1 51 29 71q8 8 26.5 5t26.5 -16v29q0 154 -60 154h-23q-36 0 -63 9q-20 6 -26.5 22t5.5 33q7 11 64 73l14 1l-12 -14q-14 -18 -11.5 -35.5t23.5 -21.5q2 -1 75 -1
q85 0 85 -126q0 -85 -3 -222q-2 -180 -2 -222q56 -60 70 -69l167 111v445q-29 23 -53 38q34 26 81 68q41 -61 93 -86q-30 -24 -50 -41v-486q30 -31 55 -49l40 27l9 -10q-47 -34 -104 -85q-24 29 -53 53l-56 -47l-7 7q32 32 45 55v95q-130 -86 -222 -163q-39 50 -68 73
l-86 -73l-8 7q54 54 76 84zM269 877q19 0 48 -16t47 -16q19 0 47 19l7 -7q-62 -57 -73 -64q-13 -10 -30 -10t-48 16q-29 16 -48 16q-20 0 -46 -19l-7 8q71 61 73 63q13 10 30 10z" />
    <glyph glyph-name="utilde" unicode="&#x169;" horiz-adv-x="418" 
d="M286 500l62 -60l-30 -30l-3 -290l55 -62l46 49l8 -8l-93 -99l-79 91l-108 -91l-89 76v348l-16 15l-31 -30l-8 8l82 83l55 -54l41 40l8 -8l-68 -67l-1 -298l71 -57l65 53l2 309l-26 25zM176 647q19 0 48 -16t47 -16q19 0 47 19l7 -7q-62 -57 -73 -64q-13 -10 -30 -10
q-19 0 -48 16t-48 16q-20 0 -46 -19l-7 8q71 61 73 63q13 10 30 10z" />
    <glyph glyph-name="Umacron" unicode="&#x16a;" horiz-adv-x="604" 
d="M119 91q0 35 2 179q-20 48 -82 12q1 52 29 70q9 10 28.5 6t25.5 -19q1 10 1 48q-19 46 -81 11q1 51 29 71q8 8 26.5 5t26.5 -16v29q0 154 -60 154h-23q-36 0 -63 9q-20 6 -26.5 22t5.5 33q7 11 64 73l14 1l-12 -14q-14 -18 -11.5 -35.5t23.5 -21.5q2 -1 75 -1
q85 0 85 -126q0 -85 -3 -222q-2 -180 -2 -222q56 -60 70 -69l167 111v445q-29 23 -53 38q34 26 81 68q41 -61 93 -86q-30 -24 -50 -41v-486q30 -31 55 -49l40 27l9 -10q-47 -34 -104 -85q-24 29 -53 53l-56 -47l-7 7q32 32 45 55v95q-130 -86 -222 -163q-39 50 -68 73
l-86 -73l-8 7q54 54 76 84zM353 809l-177 -1l62 59h172z" />
    <glyph glyph-name="umacron" unicode="&#x16b;" horiz-adv-x="418" 
d="M286 500l62 -60l-30 -30l-3 -290l55 -62l46 49l8 -8l-93 -99l-79 91l-108 -91l-89 76v348l-16 15l-31 -30l-8 8l82 83l55 -54l41 40l8 -8l-68 -67l-1 -298l71 -57l65 53l2 309l-26 25zM260 579l-177 -1l62 59h172z" />
    <glyph glyph-name="Ubreve" unicode="&#x16c;" horiz-adv-x="604" 
d="M119 91q0 35 2 179q-20 48 -82 12q1 52 29 70q9 10 28.5 6t25.5 -19q1 10 1 48q-19 46 -81 11q1 51 29 71q8 8 26.5 5t26.5 -16v29q0 154 -60 154h-23q-36 0 -63 9q-20 6 -26.5 22t5.5 33q7 11 64 73l14 1l-12 -14q-14 -18 -11.5 -35.5t23.5 -21.5q2 -1 75 -1
q85 0 85 -126q0 -85 -3 -222q-2 -180 -2 -222q56 -60 70 -69l167 111v445q-29 23 -53 38q34 26 81 68q41 -61 93 -86q-30 -24 -50 -41v-486q30 -31 55 -49l40 27l9 -10q-47 -34 -104 -85q-24 29 -53 53l-56 -47l-7 7q32 32 45 55v95q-130 -86 -222 -163q-39 50 -68 73
l-86 -73l-8 7q54 54 76 84zM175 835l62 39q49 -25 91 -25q30 0 84 25l5 -5q-91 -72 -150 -72q-48 0 -92 38z" />
    <glyph glyph-name="ubreve" unicode="&#x16d;" horiz-adv-x="418" 
d="M286 500l62 -60l-30 -30l-3 -290l55 -62l46 49l8 -8l-93 -99l-79 91l-108 -91l-89 76v348l-16 15l-31 -30l-8 8l82 83l55 -54l41 40l8 -8l-68 -67l-1 -298l71 -57l65 53l2 309l-26 25zM82 605l62 39q49 -25 91 -25q30 0 84 25l5 -5q-92 -72 -150 -72q-48 0 -92 38z" />
    <glyph glyph-name="Uring" unicode="&#x16e;" horiz-adv-x="604" 
d="M119 91q0 35 2 179q-20 48 -82 12q1 52 29 70q9 10 28.5 6t25.5 -19q1 10 1 48q-19 46 -81 11q1 51 29 71q8 8 26.5 5t26.5 -16v29q0 154 -60 154h-23q-36 0 -63 9q-20 6 -26.5 22t5.5 33q7 11 64 73l14 1l-12 -14q-14 -18 -11.5 -35.5t23.5 -21.5q2 -1 75 -1
q85 0 85 -126q0 -85 -3 -222q-2 -180 -2 -222q56 -60 70 -69l167 111v445q-29 23 -53 38q34 26 81 68q41 -61 93 -86q-30 -24 -50 -41v-486q30 -31 55 -49l40 27l9 -10q-47 -34 -104 -85q-24 29 -53 53l-56 -47l-7 7q32 32 45 55v95q-130 -86 -222 -163q-39 50 -68 73
l-86 -73l-8 7q54 54 76 84zM242 806q-19 18 -19 43t19 42q20 18 48 18t47 -18q20 -17 20 -42t-20 -43q-19 -17 -47 -17t-48 17zM290 809q18 0 30 12t12 28t-12 27.5t-30 11.5q-17 0 -29.5 -11.5t-12.5 -27.5t12.5 -28t29.5 -12z" />
    <glyph glyph-name="uring" unicode="&#x16f;" horiz-adv-x="418" 
d="M286 500l62 -60l-30 -30l-3 -290l55 -62l46 49l8 -8l-93 -99l-79 91l-108 -91l-89 76v348l-16 15l-31 -30l-8 8l82 83l55 -54l41 40l8 -8l-68 -67l-1 -298l71 -57l65 53l2 309l-26 25zM149 576q-19 18 -19 43t19 42q20 18 48 18t47 -18q20 -17 20 -42t-20 -43
q-19 -17 -47 -17t-48 17zM197 579q18 0 30 12t12 28t-12 27.5t-30 11.5q-17 0 -29.5 -11.5t-12.5 -27.5t12.5 -28t29.5 -12z" />
    <glyph glyph-name="Uhungarumlaut" unicode="&#x170;" horiz-adv-x="604" 
d="M119 91q0 35 2 179q-20 48 -82 12q1 52 29 70q9 10 28.5 6t25.5 -19q1 10 1 48q-19 46 -81 11q1 51 29 71q8 8 26.5 5t26.5 -16v29q0 154 -60 154h-23q-36 0 -63 9q-20 6 -26.5 22t5.5 33q7 11 64 73l14 1l-12 -14q-14 -18 -11.5 -35.5t23.5 -21.5q2 -1 75 -1
q85 0 85 -126q0 -85 -3 -222q-2 -180 -2 -222q56 -60 70 -69l167 111v445q-29 23 -53 38q34 26 81 68q41 -61 93 -86q-30 -24 -50 -41v-486q30 -31 55 -49l40 27l9 -10q-47 -34 -104 -85q-24 29 -53 53l-56 -47l-7 7q32 32 45 55v95q-130 -86 -222 -163q-39 50 -68 73
l-86 -73l-8 7q54 54 76 84zM283 796l133 124l14 -14l-133 -123zM179 796l133 124l14 -14l-133 -123z" />
    <glyph glyph-name="uhungarumlaut" unicode="&#x171;" horiz-adv-x="418" 
d="M286 500l62 -60l-30 -30l-3 -290l55 -62l46 49l8 -8l-93 -99l-79 91l-108 -91l-89 76v348l-16 15l-31 -30l-8 8l82 83l55 -54l41 40l8 -8l-68 -67l-1 -298l71 -57l65 53l2 309l-26 25zM96 566l133 124l14 -14l-133 -123zM200 566l133 124l14 -14l-133 -123z" />
    <glyph glyph-name="Uogonek" unicode="&#x172;" horiz-adv-x="604" 
d="M119 91q0 35 2 179q-20 48 -82 12q1 52 29 70q9 10 28.5 6t25.5 -19q1 10 1 48q-19 46 -81 11q1 51 29 71q8 8 26.5 5t26.5 -16v29q0 154 -60 154h-23q-36 0 -63 9q-20 6 -26.5 22t5.5 33q7 11 64 73l14 1l-12 -14q-14 -18 -11.5 -35.5t23.5 -21.5q2 -1 75 -1
q85 0 85 -126q0 -85 -3 -222q-2 -180 -2 -222q56 -60 70 -69l167 111v445q-29 23 -53 38q34 26 81 68q41 -61 93 -86q-30 -24 -50 -41v-486q30 -31 55 -49l40 27l9 -10q-47 -34 -104 -85q-1 -2 -10 -19t-12 -23q-9 -27 -8 -44q3 -39 50 -59l-38 -71q-26 6 -42 27t-16 48
q0 49 71 147q-24 27 -48 47l-56 -47l-7 7q32 32 45 55v95q-130 -86 -222 -163q-39 50 -68 73l-86 -73l-8 7q54 54 76 84zM493 6l5 -6l-4 4z" />
    <glyph glyph-name="uogonek" unicode="&#x173;" horiz-adv-x="418" 
d="M351 -145l-38 -71q-26 6 -42 27t-16 48q0 49 71 147l-74 85l-108 -91l-89 76v348l-16 15l-31 -30l-8 8l82 83l55 -54l41 40l8 -8l-68 -67l-1 -298l71 -57l65 53l2 309l-26 25l57 57l62 -60l-30 -30l-3 -290l55 -62l46 49l8 -8l-93 -99q-1 -2 -10 -19t-12 -23
q-9 -27 -8 -44q3 -39 50 -59z" />
    <glyph glyph-name="Wcircumflex" unicode="&#x174;" horiz-adv-x="744" 
d="M119 121q0 119 1 150q-21 47 -81 11q1 52 29 70q9 10 28.5 6t25.5 -19q1 11 1 48q-19 46 -81 11q1 51 29 71q8 8 26.5 5t26.5 -16v29q0 154 -60 154h-23q-36 0 -63 9q-20 6 -26.5 22t5.5 33q7 11 64 73l14 1l-12 -14q-14 -18 -11.5 -35.5t23.5 -21.5q2 -1 75 -1
q85 0 85 -126q0 -89 -3 -215q-2 -166 -2 -199q47 -50 121 -99l76 54v210h-84q-30 0 -47 -29l-12 8q37 67 37 93q0 8 -8 29l9 4l17 -28q48 -3 88 -3v238q-29 23 -53 38q34 26 81 68q41 -61 93 -86q-30 -24 -50 -41v-218l88 2q30 0 48 46l12 -7q-5 -10 -12 -25q-5 -10 -14 -31
q-14 -36 -14 -59q-26 1 -108 1v-183q52 -49 100 -80l105 77v446q-28 31 -86 70q34 26 81 68q41 -61 93 -86q-33 -25 -67 -56v-442q-80 -52 -182 -146q-20 24 -118 105q-74 -49 -132 -105q-29 35 -115 103l-86 -73l-8 7q54 54 76 84zM413 873l-87 -80l-16 12l139 125l105 -94
l-50 -46z" />
    <glyph glyph-name="wcircumflex" unicode="&#x175;" horiz-adv-x="551" 
d="M471 500l62 -60l-49 -49v-285l-107 -106l-104 88l-88 -88l-105 89l-46 -49l-8 8l46 48v312l-36 36l-51 -49l-8 8l98 97l59 -57v-307l91 -77l39 37v310l-39 37l57 57l62 -60l-18 -18v-286l91 -77l52 48v284l-55 52zM288 623l-87 -80l-16 12l139 125l105 -94l-50 -46z" />
    <glyph glyph-name="Ycircumflex" unicode="&#x176;" horiz-adv-x="447" 
d="M271 682q3 2 81 68q40 -59 93 -86q-25 -20 -48 -39v-404q0 -50 -62 -118q-65 -71 -119 -103l2 3l-3 -3q-57 55 -116 49q-54 -8 -107 -61l1 12q89 96 160 104q33 4 64.5 -6.5t52.5 -33.5q56 62 56 95l-1 268q-102 -71 -168 -127q-39 48 -69 73l-86 -73l-7 7q54 54 76 84
q0 51 1 85q0 14 0.5 29t1 23t0.5 11q-9 102 -58 102h-24q-35 0 -62 9q-21 6 -27 22t6 33q6 9 63 73l15 1l-13 -14q-15 -18 -11.5 -35.5t23.5 -21.5q3 -1 76 -1q85 0 85 -126q0 -29 -3 -72q-2 -58 -2 -72q49 -55 70 -69l113 76v199q-21 17 -54 39zM192 851l-87 -80l-16 12
l139 125l105 -94l-50 -46z" />
    <glyph glyph-name="ycircumflex" unicode="&#x177;" horiz-adv-x="381" 
d="M281 500l62 -60l-30 -30l-3 -569q-32 -56 -80 -96q-49 -43 -92 -43q-36 0 -63 21t-27 55q0 82 52 143.5t149 114.5v57l-103 -88l-80 68l-57 -73l-8 8l56 74v342l-16 15l-31 -30l-8 8l82 83l55 -54l41 40l8 -8l-68 -67l-1 -293l71 -57l59 48l2 309l-27 25zM172 -254
q33 0 71 37q8 18 8 41v194q-70 -42 -105 -89t-36 -113q0 -33 17 -51.5t45 -18.5zM172 623l-87 -80l-16 12l139 125l105 -94l-50 -46z" />
    <glyph glyph-name="Ydieresis" unicode="&#x178;" horiz-adv-x="447" 
d="M271 682q3 2 81 68q40 -59 93 -86q-25 -20 -48 -39v-404q0 -50 -62 -118q-65 -71 -119 -103l2 3l-3 -3q-57 55 -116 49q-54 -8 -107 -61l1 12q89 96 160 104q33 4 64.5 -6.5t52.5 -33.5q56 62 56 95l-1 268q-102 -71 -168 -127q-39 48 -69 73l-86 -73l-7 7q54 54 76 84
q0 51 1 85q0 14 0.5 29t1 23t0.5 11q-9 102 -58 102h-24q-35 0 -62 9q-21 6 -27 22t6 33q6 9 63 73l15 1l-13 -14q-15 -18 -11.5 -35.5t23.5 -21.5q3 -1 76 -1q85 0 85 -126q0 -29 -3 -72q-2 -58 -2 -72q49 -55 70 -69l113 76v199q-21 17 -54 39zM144 782l-57 64l55 50
l57 -63zM274 782l-57 64l55 50l57 -63z" />
    <glyph glyph-name="Zacute" unicode="&#x179;" horiz-adv-x="529" 
d="M402 395q30 0 48 46l12 -7q-5 -10 -12 -25q-5 -10 -14 -31q-14 -36 -14 -59q-38 1 -162 1l-136 -195q18 5 43 5q39 0 129 -33t129 -33q63 0 98 35l8 -4q-13 -41 -43 -68t-70 -27q-46 0 -150 30q-102 31 -149 31q-37 0 -63 -14q-24 -12 -50 -47l-6 10l6 8l215 302h-88
q-30 0 -47 -29l-12 8q37 67 37 93q0 8 -8 29l9 4l17 -28q92 -4 144 -4l184 260q-18 -2 -22 -2q-47 0 -138 6t-138 6q-37 0 -63 -14q-24 -12 -50 -47l-6 10q8 10 20 30q32 46 48 60q34 30 92 30q40 0 121 -9q86 -8 121 -8q63 0 98 35l7 -3q-7 -25 -25 -51l-211 -303q5 0 91 2
zM252 806l133 124l14 -14l-133 -123z" />
    <glyph glyph-name="zacute" unicode="&#x17a;" horiz-adv-x="322" 
d="M35 36q22 17 64 37q37 19 64 19q65 0 98 -33l53 52l10 -11l-111 -109q-47 42 -97 42q-33 0 -115 -33l-12 15l264 395l-196 -2q-15 0 -27 8.5t-12 20.5q0 17 23 43q23 24 36 29l6 -6q-10 -19 -10 -24q0 -16 23 -16l178 1q27 0 27 -22q0 -10 -15 -30zM99 556l133 124
l14 -14l-133 -123z" />
    <glyph glyph-name="Zdotaccent" unicode="&#x17b;" horiz-adv-x="529" 
d="M402 395q30 0 48 46l12 -7q-5 -10 -12 -25q-5 -10 -14 -31q-14 -36 -14 -59q-38 1 -162 1l-136 -195q18 5 43 5q39 0 129 -33t129 -33q63 0 98 35l8 -4q-13 -41 -43 -68t-70 -27q-46 0 -150 30q-102 31 -149 31q-37 0 -63 -14q-24 -12 -50 -47l-6 10l6 8l215 302h-88
q-30 0 -47 -29l-12 8q37 67 37 93q0 8 -8 29l9 4l17 -28q92 -4 144 -4l184 260q-18 -2 -22 -2q-47 0 -138 6t-138 6q-37 0 -63 -14q-24 -12 -50 -47l-6 10q8 10 20 30q32 46 48 60q34 30 92 30q40 0 121 -9q86 -8 121 -8q63 0 98 35l7 -3q-7 -25 -25 -51l-211 -303q5 0 91 2
zM327 811l-57 64l55 50l57 -63z" />
    <glyph glyph-name="zdotaccent" unicode="&#x17c;" horiz-adv-x="322" 
d="M35 36q22 17 64 37q37 19 64 19q65 0 98 -33l53 52l10 -11l-111 -109q-47 42 -97 42q-33 0 -115 -33l-12 15l264 395l-196 -2q-15 0 -27 8.5t-12 20.5q0 17 23 43q23 24 36 29l6 -6q-10 -19 -10 -24q0 -16 23 -16l178 1q27 0 27 -22q0 -10 -15 -30zM174 561l-57 64l55 50
l57 -63z" />
    <glyph glyph-name="Zcaron" unicode="&#x17d;" horiz-adv-x="529" 
d="M402 395q30 0 48 46l12 -7q-5 -10 -12 -25q-5 -10 -14 -31q-14 -36 -14 -59q-38 1 -162 1l-136 -195q18 5 43 5q39 0 129 -33t129 -33q63 0 98 35l8 -4q-13 -41 -43 -68t-70 -27q-46 0 -150 30q-102 31 -149 31q-37 0 -63 -14q-24 -12 -50 -47l-6 10l6 8l215 302h-88
q-30 0 -47 -29l-12 8q37 67 37 93q0 8 -8 29l9 4l17 -28q92 -4 144 -4l184 260q-18 -2 -22 -2q-47 0 -138 6t-138 6q-37 0 -63 -14q-24 -12 -50 -47l-6 10q8 10 20 30q32 46 48 60q34 30 92 30q40 0 121 -9q86 -8 121 -8q63 0 98 35l7 -3q-7 -25 -25 -51l-211 -303q5 0 91 2
zM307 780l-127 91l55 45l111 -81l102 85l14 -12z" />
    <glyph glyph-name="zcaron" unicode="&#x17e;" horiz-adv-x="322" 
d="M35 36q22 17 64 37q37 19 64 19q65 0 98 -33l53 52l10 -11l-111 -109q-47 42 -97 42q-33 0 -115 -33l-12 15l264 395l-196 -2q-15 0 -27 8.5t-12 20.5q0 17 23 43q23 24 36 29l6 -6q-10 -19 -10 -24q0 -16 23 -16l178 1q27 0 27 -22q0 -10 -15 -30zM154 530l-127 91
l55 45l111 -81l102 85l14 -12z" />
    <glyph glyph-name="longs" unicode="&#x17f;" horiz-adv-x="229" 
d="M284 690l5 -4q-32 -47 -74 -61q-44 -15 -85 17v-548l36 -35l46 49l8 -8l-94 -100l-50 49l-46 -49l-8 8l46 48v391l-98 -1l58 54h40v113l-49 70l8 8l49 -69l84 78q31 -27 65 -27q28 0 59 17z" />
    <glyph glyph-name="DZcaron" unicode="&#x1c4;" horiz-adv-x="1074" 
d="M947 395q30 0 48 46l12 -7q-5 -10 -12 -25q-5 -10 -14 -31q-14 -36 -14 -59q-38 1 -162 1l-136 -195q18 5 43 5q40 0 128 -33q90 -33 130 -33q63 0 98 35l8 -4q-13 -41 -43 -68t-70 -27q-47 0 -150 30q-102 31 -149 31q-37 0 -63 -14q-24 -12 -50 -47l-6 10l6 8l215 302
h-88q-30 0 -47 -29l-12 8q37 67 37 93q0 8 -8 29l9 4l17 -28q92 -4 144 -4l184 260q-18 -2 -22 -2q-46 0 -138 6t-138 6q-37 0 -63 -14q-24 -12 -50 -47l-6 10q8 10 20 30q32 46 48 60q35 30 92 30q41 0 121 -9q85 -8 121 -8q63 0 98 35l7 -3q-7 -25 -25 -51l-211 -303
q5 0 91 2zM548 551v-330q0 -51 -61 -118q-65 -71 -119 -103q-85 55 -176 49q-68 -6 -142 -61l-7 12q122 96 217 104q46 4 90.5 -7t71.5 -34q56 61 56 96l-1 307q2 60 -3 101q-4 26 -16.5 36.5t-39.5 9.5q-56 0 -134 -1t-133 -1q-36 0 -63 9q-21 6 -27 22t6 33q9 14 64 73
l14 1l-12 -14q-15 -16 -12 -31.5t23 -19.5q32 -7 76 -7h244q84 0 84 -126zM64 93l-13 11q61 67 61 102v64q-20 48 -82 12q1 52 29 70q9 9 26.5 6t25.5 -15v51q-22 36 -78 4q1 51 29 71q9 9 27 5.5t26 -17.5q9 39 35.5 71t76.5 70l11 -8q-55 -58 -55 -153v-169
q0 -80 -119 -175zM178 103l-13 11q61 67 61 102l-1 203q0 53 27 92t89 87l11 -8q-55 -58 -55 -153v-159q0 -80 -119 -175zM852 780l-127 91l55 45l111 -81l102 85l14 -12z" />
    <glyph glyph-name="Dzcaron" unicode="&#x1c5;" horiz-adv-x="921" 
d="M548 551v-330q0 -51 -61 -118q-65 -71 -119 -103q-85 55 -176 49q-68 -6 -142 -61l-7 12q122 96 217 104q46 4 90.5 -7t71.5 -34q56 61 56 96l-1 307q2 60 -3 101q-4 26 -16.5 36.5t-39.5 9.5q-56 0 -134 -1t-133 -1q-36 0 -63 9q-21 6 -27 22t6 33q9 14 64 73l14 1
l-12 -14q-15 -16 -12 -31.5t23 -19.5q32 -7 76 -7h244q84 0 84 -126zM616 36q22 17 64 37q37 19 64 19q65 0 98 -33l53 52l10 -11l-111 -109q-46 42 -97 42q-33 0 -115 -33l-12 15l264 395l-196 -2q-15 0 -27 8.5t-12 20.5q0 17 23 43q23 24 36 29l6 -6q-10 -19 -10 -24
q0 -16 23 -16l178 1q27 0 27 -22q0 -10 -15 -30zM64 93l-13 11q61 67 61 102v64q-20 48 -82 12q1 52 29 70q9 9 26.5 6t25.5 -15v51q-22 36 -78 4q1 51 29 71q9 9 27 5.5t26 -17.5q9 39 35.5 71t76.5 70l11 -8q-55 -58 -55 -153v-169q0 -80 -119 -175zM178 103l-13 11
q61 67 61 102l-1 203q0 53 27 92t89 87l11 -8q-55 -58 -55 -153v-159q0 -80 -119 -175zM751 530l-127 91l55 45l111 -81l102 85l14 -12z" />
    <glyph glyph-name="dzcaron" unicode="&#x1c6;" horiz-adv-x="777" 
d="M185 603l98 97l50 -48l48 47l8 -8l-75 -76v-487l61 -70l46 49l8 -8l-93 -99l-74 85l-103 -85l-97 69l-53 -69l-8 8l52 69v286l152 137l47 -48v184l-8 8l-51 -49zM115 115l83 -60l54 45v269l-83 74l-54 -50v-278zM478 36q22 17 64 37q37 19 64 19q65 0 98 -33l53 52
l10 -11l-111 -109q-46 42 -97 42q-33 0 -115 -33l-12 15l264 395l-196 -2q-15 0 -27 8.5t-12 20.5q0 17 23 43q23 24 36 29l6 -6q-10 -19 -10 -24q0 -16 23 -16l178 1q27 0 27 -22q0 -10 -15 -30zM573 530l-127 91l55 45l111 -81l102 85l14 -12z" />
    <glyph glyph-name="LJ" unicode="&#x1c7;" horiz-adv-x="876" 
d="M16 -7l-6 10q40 56 77 90q7 7 14 11q28 37 28 62l-1 105q-19 46 -81 11q1 52 29 70q9 9 26.5 6t25.5 -15v51q-22 36 -78 4q1 51 29 71q8 7 24 6t25 -12q4 47 30.5 83t85.5 82l11 -8q-55 -58 -55 -153v-239q0 -51 -46 -106q5 1 23 1q17 0 35 -3q33 42 33 69l-1 283
q0 74 36 114q30 34 99 94l14 -8q-77 -62 -77 -182v-239q0 -57 -79 -137q4 -1 86 -26q78 -24 114 -24q63 0 98 35l8 -4q-13 -41 -43 -68t-70 -27q-46 0 -151 27q-103 27 -150 27q-37 0 -63 -14q-24 -12 -50 -47zM415 -152l1 12q89 96 159 104q71 11 118 -40q55 62 55 95
l-1 511q0 70 36 117q54 71 113 103l5 -11q-49 -43 -66 -85q-16 -39 -16 -114v-459q0 -50 -62 -118q-65 -71 -119 -103q-57 55 -116 49q-54 -8 -107 -61zM574 33l-13 11q61 67 61 102l-1 125q-19 46 -81 11q1 52 29 70q9 9 26.5 6t25.5 -15v56q-22 36 -78 4q1 51 29 71
q8 7 24 5.5t25 -11.5v21q0 81 86 155q-22 0 -65 20q-40 21 -62 21q-19 0 -30 -10q-4 -3 -9.5 -8.5t-12.5 -13t-9 -9.5l-9 6q5 7 33 40l38 42q21 18 48 18q26 0 68 -21q43 -21 66 -21q14 0 31 11l8 -7l-32 -33q-18 -18 -25 -22q-52 -55 -52 -150v-299q0 -80 -119 -175z
M78 644l-9 6q4 7 33 40l38 42q21 18 48 18q26 0 68 -21q44 -21 66 -21q14 0 31 11l8 -7l-32 -33q-35 -35 -62 -35q-22 0 -65 20q-40 21 -63 21q-19 0 -30 -10q-4 -3 -9.5 -8.5t-12.5 -13t-9 -9.5z" />
    <glyph glyph-name="Lj" unicode="&#x1c8;" horiz-adv-x="703" 
d="M16 -7l-6 10q40 56 77 90q7 7 14 11q28 37 28 62l-1 105q-19 46 -81 11q1 52 29 70q9 9 26.5 6t25.5 -15v51q-22 36 -78 4q1 51 29 71q8 7 24 6t25 -12q4 47 30.5 83t85.5 82l11 -8q-55 -58 -55 -153v-239q0 -51 -46 -106q5 1 23 1q17 0 35 -3q33 42 33 69l-1 283
q0 74 36 114q30 34 99 94l14 -8q-77 -62 -77 -182v-239q0 -57 -79 -137q4 -1 86 -26q78 -24 114 -24q63 0 98 35l8 -4q-13 -41 -43 -68t-70 -27q-46 0 -151 27q-103 27 -150 27q-37 0 -63 -14q-24 -12 -50 -47zM505 403l98 97l50 -48l48 47l8 -8l-76 -77v-436q0 -68 -8 -130
q-5 -33 -50 -62q-39 -26 -92 -43l-8 7l49 29q37 24 40 44q9 52 9 154v458l-9 9l-51 -49zM78 644l-9 6q4 7 33 40l38 42q21 18 48 18q26 0 68 -21q44 -21 66 -21q14 0 31 11l8 -7l-32 -33q-35 -35 -62 -35q-22 0 -65 20q-40 21 -63 21q-19 0 -30 -10q-4 -3 -9.5 -8.5
t-12.5 -13t-9 -9.5z" />
    <glyph glyph-name="lj" unicode="&#x1c9;" horiz-adv-x="397" 
d="M-10 603l98 97l50 -48l48 47l8 -8l-75 -76v-521l36 -35l46 49l8 -8l-94 -100l-50 49l-46 -49l-8 8l46 48v580l-8 8l-51 -49zM199 403l98 97l50 -48l48 47l8 -8l-76 -77v-436q0 -68 -8 -130q-5 -33 -50 -62q-39 -26 -92 -43l-8 7l49 29q37 24 40 44q9 52 9 154v458l-9 9
l-51 -49z" />
    <glyph glyph-name="NJ" unicode="&#x1ca;" horiz-adv-x="1096" 
d="M-37 -12l1 12q89 96 159 104q7 1 30 1q27 37 27 61l-1 105q-19 46 -81 11q1 52 29 70q9 9 26.5 6t25.5 -15v51q-22 36 -78 4q1 51 29 71q8 7 24 6t25 -12q4 47 30.5 83t85.5 82l11 -8q-55 -58 -55 -153v-239q0 -62 -67 -129q34 -12 57 -35q55 61 55 95l-1 313
q0 74 36 114q27 32 94 90q63 52 100 74l97 -93l60 47l7 -7q-7 -8 -29 -30.5t-29 -30.5v-519q27 -30 54 -49l41 27l9 -10q-56 -42 -104 -85q-26 32 -54 53l-55 -47l-7 7q32 32 45 55l-1 530l-88 86q-20 -7 -42 -26q-62 -59 -62 -168v-269q0 -50 -62 -118q-65 -71 -119 -103
q-57 55 -116 49q-54 -8 -107 -61zM635 -152l1 12q89 96 159 104q71 11 118 -40q55 62 55 95l-1 511q0 70 36 117q54 71 113 103l5 -11q-49 -43 -66 -85q-16 -39 -16 -114v-459q0 -50 -62 -118q-65 -71 -119 -103q-57 55 -116 49q-54 -8 -107 -61zM794 33l-13 11
q61 67 61 102l-1 125q-19 46 -81 11q1 52 29 70q9 9 26.5 6t25.5 -15v56q-22 36 -78 4q1 51 29 71q8 7 24 5.5t25 -11.5v21q0 81 86 155q-22 0 -65 20q-40 21 -62 21q-19 0 -30 -10q-4 -3 -9.5 -8.5t-12.5 -13t-9 -9.5l-9 6q4 7 33 40l38 42q21 18 48 18q26 0 68 -21
q43 -21 66 -21q14 0 31 11l8 -7l-32 -33q-18 -18 -25 -22q-52 -55 -52 -150v-299q0 -80 -119 -175zM129 644l-9 6q5 7 33 40l38 42q21 18 48 18q26 0 68 -21q43 -21 66 -21q14 0 31 11l8 -7l-32 -33q-35 -35 -62 -35q-22 0 -65 20q-41 21 -63 21q-19 0 -30 -10
q-4 -3 -9.5 -8.5t-12.5 -13t-9 -9.5z" />
    <glyph glyph-name="Nj" unicode="&#x1cb;" horiz-adv-x="928" 
d="M-37 -12l1 12q89 96 159 104q7 1 30 1q27 37 27 61l-1 105q-19 46 -81 11q1 52 29 70q9 9 26.5 6t25.5 -15v51q-22 36 -78 4q1 51 29 71q8 7 24 6t25 -12q4 47 30.5 83t85.5 82l11 -8q-55 -58 -55 -153v-239q0 -62 -67 -129q34 -12 57 -35q55 61 55 95l-1 313
q0 74 36 114q27 32 94 90q63 52 100 74l97 -93l60 47l7 -7q-7 -8 -29 -30.5t-29 -30.5v-519q27 -30 54 -49l41 27l9 -10q-56 -42 -104 -85q-26 32 -54 53l-55 -47l-7 7q32 32 45 55l-1 530l-88 86q-20 -7 -41 -25q-63 -59 -63 -169v-269q0 -50 -62 -118q-65 -71 -119 -103
q-57 55 -116 49q-54 -8 -107 -61zM730 403l98 97l50 -48l48 47l8 -8l-76 -77v-436q0 -68 -8 -130q-5 -33 -50 -62q-39 -26 -92 -43l-8 7l49 29q37 24 40 44q9 52 9 154v458l-9 9l-51 -49zM129 644l-9 6q5 7 33 40l38 42q21 18 48 18q26 0 68 -21q43 -21 66 -21q14 0 31 11
l8 -7l-32 -33q-35 -35 -62 -35q-22 0 -65 20q-41 21 -63 21q-19 0 -30 -10q-4 -3 -9.5 -8.5t-12.5 -13t-9 -9.5z" />
    <glyph glyph-name="nj" unicode="&#x1cc;" horiz-adv-x="615" 
d="M106 0l-59 66l25 23v335l-16 15l-31 -30l-8 8l82 83l55 -54l41 40l8 -8l-68 -67v-40l133 129l66 -54v-354l35 -34l48 47l8 -8l-95 -97l-50 49l-50 -49l-8 8l50 50v350l-42 36l-95 -90l-1 -278l23 -25zM417 403l98 97l50 -48l48 47l8 -8l-76 -77v-436q0 -68 -8 -130
q-5 -33 -50 -62q-39 -26 -92 -43l-8 7l49 29q37 24 40 44q9 52 9 154v458l-9 9l-51 -49z" />
    <glyph glyph-name="Oogonek" unicode="&#x1ea;" horiz-adv-x="707" 
d="M421 -132l-38 -71q-26 6 -42 27t-16 48q0 48 60 132q-38 -5 -65 -5q-128 0 -219 88t-91 233q0 130 62 233t201 197h19q-121 -95 -168 -182q-48 -87 -48 -207q0 -116 80 -207q81 -91 200 -89q138 2 207 91q69 90 69 242q0 101 -64 195q-65 95 -140 95q-5 0 -34 -20
q-31 -21 -42 -31q-15 -13 -18.5 -19t-3.5 -21v-229q0 -81 -118 -175l-13 11q61 67 61 102l-1 77q-21 37 -78 5q1 51 29 71q8 7 24 6t25 -12v67q0 41 14 63q12 21 81 77q39 36 122 90q102 -13 160 -106q57 -91 57 -220q0 -161 -81 -275q-79 -113 -214 -142q-2 -3 -8.5 -15.5
t-8.5 -15.5q-12 -33 -10 -49q3 -39 50 -59z" />
    <glyph glyph-name="oogonek" unicode="&#x1eb;" horiz-adv-x="372" 
d="M179 -145l-38 -71q-26 6 -42 27t-16 48q0 51 70 145l-91 65l-53 -69l-8 8l52 69v286l152 137l100 -90l58 81l8 -8l-57 -81v-274l-155 -128q-1 -2 -10 -19t-12 -23q-9 -27 -8 -44q3 -39 50 -59zM115 115l83 -60l54 45v267l-83 76l-54 -50v-278z" />
    <glyph glyph-name="DZ" unicode="&#x1f1;" horiz-adv-x="1074" 
d="M947 395q30 0 48 46l12 -7q-5 -10 -12 -25q-5 -10 -14 -31q-14 -36 -14 -59q-38 1 -162 1l-136 -195q18 5 43 5q40 0 128 -33q90 -33 130 -33q63 0 98 35l8 -4q-13 -41 -43 -68t-70 -27q-47 0 -150 30q-102 31 -149 31q-37 0 -63 -14q-24 -12 -50 -47l-6 10l6 8l215 302
h-88q-30 0 -47 -29l-12 8q37 67 37 93q0 8 -8 29l9 4l17 -28q92 -4 144 -4l184 260q-18 -2 -22 -2q-46 0 -138 6t-138 6q-37 0 -63 -14q-24 -12 -50 -47l-6 10q8 10 20 30q32 46 48 60q35 30 92 30q41 0 121 -9q85 -8 121 -8q63 0 98 35l7 -3q-7 -25 -25 -51l-211 -303
q5 0 91 2zM548 551v-330q0 -51 -61 -118q-65 -71 -119 -103q-85 55 -176 49q-68 -6 -142 -61l-7 12q122 96 217 104q46 4 90.5 -7t71.5 -34q56 61 56 96l-1 307q2 60 -3 101q-4 26 -16.5 36.5t-39.5 9.5q-56 0 -134 -1t-133 -1q-36 0 -63 9q-21 6 -27 22t6 33q9 14 64 73
l14 1l-12 -14q-15 -16 -12 -31.5t23 -19.5q32 -7 76 -7h244q84 0 84 -126zM64 93l-13 11q61 67 61 102v64q-20 48 -82 12q1 52 29 70q9 9 26.5 6t25.5 -15v51q-22 36 -78 4q1 51 29 71q9 9 27 5.5t26 -17.5q9 39 35.5 71t76.5 70l11 -8q-55 -58 -55 -153v-169
q0 -80 -119 -175zM178 103l-13 11q61 67 61 102l-1 203q0 53 27 92t89 87l11 -8q-55 -58 -55 -153v-159q0 -80 -119 -175z" />
    <glyph glyph-name="Dz" unicode="&#x1f2;" horiz-adv-x="915" 
d="M548 551v-330q0 -51 -61 -118q-65 -71 -119 -103q-85 55 -176 49q-68 -6 -142 -61l-7 12q122 96 217 104q46 4 90.5 -7t71.5 -34q56 61 56 96l-1 307q2 60 -3 101q-4 26 -16.5 36.5t-39.5 9.5q-56 0 -134 -1t-133 -1q-36 0 -63 9q-21 6 -27 22t6 33q9 14 64 73l14 1
l-12 -14q-15 -16 -12 -31.5t23 -19.5q32 -7 76 -7h244q84 0 84 -126zM616 36q22 17 64 37q37 19 64 19q65 0 98 -33l53 52l10 -11l-111 -109q-46 42 -97 42q-33 0 -115 -33l-12 15l264 395l-196 -2q-15 0 -27 8.5t-12 20.5q0 17 23 43q23 24 36 29l6 -6q-10 -19 -10 -24
q0 -16 23 -16l178 1q27 0 27 -22q0 -10 -15 -30zM64 93l-13 11q61 67 61 102v64q-20 48 -82 12q1 52 29 70q9 9 26.5 6t25.5 -15v51q-22 36 -78 4q1 51 29 71q9 9 27 5.5t26 -17.5q9 39 35.5 71t76.5 70l11 -8q-55 -58 -55 -153v-169q0 -80 -119 -175zM178 103l-13 11
q61 67 61 102l-1 203q0 53 27 92t89 87l11 -8q-55 -58 -55 -153v-159q0 -80 -119 -175z" />
    <glyph glyph-name="dz" unicode="&#x1f3;" horiz-adv-x="767" 
d="M185 603l98 97l50 -48l48 47l8 -8l-75 -76v-487l61 -70l46 49l8 -8l-93 -99l-74 85l-103 -85l-97 69l-53 -69l-8 8l52 69v286l152 137l47 -48v184l-8 8l-51 -49zM115 115l83 -60l54 45v269l-83 74l-54 -50v-278zM468 36q22 17 64 37q37 19 64 19q65 0 98 -33l53 52
l10 -11l-111 -109q-46 42 -97 42q-33 0 -115 -33l-12 15l264 395l-196 -2q-15 0 -27 8.5t-12 20.5q0 17 23 43q23 24 36 29l6 -6q-10 -19 -10 -24q0 -16 23 -16l178 1q27 0 27 -22q0 -10 -15 -30z" />
    <glyph glyph-name="Gacute" unicode="&#x1f4;" horiz-adv-x="681" 
d="M184 186l-13 12q61 64 61 101v17q-21 44 -82 10q5 53 30 71q8 8 26 5t26 -16v75q-23 38 -79 6q5 54 30 70q8 7 24 5.5t25 -10.5q2 42 23 76t63 70l48 50q19 17 44 17q23 0 61 -20q37 -19 59 -19q12 0 28 11l7 -7l-29 -30q-32 -32 -61 -32q-21 0 -52 18q-32 18 -52 18
q-13 0 -29 -9q-40 -52 -40 -134v-97l27 32q16 16 37 16t52 -19q33 -18 51 -18q13 0 24 10l20 -1q74 0 114 -48.5t40 -135.5q0 -110 -104 -196q-103 -85 -243 -85q-128 0 -219 88t-91 233q0 130 62 233t201 197h19q-121 -95 -168 -182q-48 -87 -48 -207q0 -115 80 -206
q80 -90 200 -90q234 0 234 215q0 56 -27 105t-64 49h-21l-4 -5q-25 -31 -52 -31q-17 0 -45 17q-27 18 -44 18q-14 0 -31 -14v-58q0 -81 -118 -175zM290 806l133 124l14 -14l-133 -123z" />
    <glyph glyph-name="gacute" unicode="&#x1f5;" horiz-adv-x="376" 
d="M1 29l51 68v266l152 137l101 -91l45 63l8 -8l-45 -64v-4l-1 -272l-1 -1l-1 -279q-30 -52 -78 -93q-48 -42 -90 -42q-35 0 -62 21t-28 55q-1 82 49.5 143t147.5 113v42l-112 -73l-77 78l-51 -67zM168 443l-54 -50v-262l68 -71l67 44l2 263zM176 -247q31 0 67 33q8 18 8 41
v196q-69 -43 -103 -89t-34 -111q0 -33 17 -51.5t45 -18.5zM129 556l133 124l14 -14l-133 -123z" />
    <glyph glyph-name="Aacutering" unicode="&#x1fa;" horiz-adv-x="727" 
d="M-37 -12l1 12q89 96 159 104q7 1 30 1q27 37 27 61l-1 105q-19 46 -81 11q1 52 29 70q9 9 26.5 6t25.5 -15v51q-22 36 -78 4q1 51 29 71q8 7 24 6t25 -12q4 47 30.5 83t85.5 82l11 -8q-55 -58 -55 -153v-239q0 -62 -67 -129q34 -12 57 -35q55 61 55 95l-1 313
q0 74 36 114q30 34 99 94q52 43 95 70l97 -93l60 47l7 -7q-7 -8 -29 -30.5t-29 -30.5v-519q27 -30 54 -49l41 27l9 -10q-56 -42 -104 -85q-26 32 -54 53l-55 -47l-7 7q32 32 45 55l-1 294q-9 -13 -19 -43q-33 3 -83 1q-30 0 -47 -29l-12 8q37 67 37 93q0 8 -8 29l9 4l17 -28
q41 -5 106 -3v204l-88 86q-20 -7 -42 -26q-62 -59 -62 -168v-269q0 -50 -62 -118q-65 -71 -119 -103q-57 55 -116 49q-54 -8 -107 -61zM129 644l-9 6q5 7 33 40l38 42q21 18 48 18q26 0 68 -21q43 -21 66 -21q14 0 31 11l8 -7l-32 -33q-35 -35 -62 -35q-22 0 -65 20
q-41 21 -63 21q-19 0 -30 -10q-4 -3 -9.5 -8.5t-12.5 -13t-9 -9.5zM397 849q0 29 26 47l1 1l122 114l14 -14l-95 -88q27 -1 46.5 -18.5t19.5 -41.5q0 -25 -19.5 -42.5t-47.5 -17.5t-47.5 17.5t-19.5 42.5zM464 809q18 0 30 12t12 28t-12 27.5t-30 11.5q-17 0 -29.5 -11.5
t-12.5 -27.5t12.5 -28t29.5 -12z" />
    <glyph glyph-name="aacutering" unicode="&#x1fb;" horiz-adv-x="404" 
d="M429 99l-93 -99l-74 85l-103 -85l-97 69l-53 -69l-8 8l52 69v286l152 137l100 -90l58 81l8 -8l-57 -81v-274l61 -70l46 49zM115 115l83 -60l54 45v267l-83 76l-54 -50v-278zM138 599q0 30 26 48l122 113l14 -14l-94 -87q27 -1 46.5 -18.5t19.5 -41.5q0 -25 -19.5 -42.5
t-47.5 -17.5t-47.5 17.5t-19.5 42.5zM205 559q18 0 30 12t12 28t-12 27.5t-30 11.5q-17 0 -29.5 -11.5t-12.5 -27.5t12.5 -28t29.5 -12z" />
    <glyph glyph-name="AEacute" unicode="&#x1fc;" horiz-adv-x="769" 
d="M-35 -12l1 12q89 96 159 104q7 1 30 1q27 37 27 61l-1 105q-19 46 -81 11q1 52 29 70q9 9 26.5 6t25.5 -15v51q-22 36 -78 4q1 51 29 71q8 7 24 6t25 -12q4 47 30.5 83t85.5 82l11 -8q-55 -58 -55 -153v-239q0 -62 -67 -129q34 -12 57 -35q55 61 55 95l-1 313
q0 74 36 114q30 34 99 94q52 43 95 70l69 -74q28 31 81 74q23 -45 63 -45q29 0 81 35l5 -6q-30 -30 -68 -55q-38 -26 -63 -26q-39 0 -61 16q-20 -46 -20 -108v-168q1 0 81 2q32 2 48 46l12 -7q-5 -10 -12 -25q-5 -10 -14 -31q-14 -36 -14 -59h-53q-22 1 -48 1v-203
q30 -31 55 -49l40 27l9 -10q-56 -42 -104 -85q-24 29 -53 53l-56 -47l-7 7q32 32 45 55l-1 252h-86q-30 0 -47 -29l-12 8q37 67 37 93q0 8 -8 29l9 4l17 -28q48 -3 90 -3v149q0 43 11 71l-80 70q-20 -7 -41 -25q-63 -59 -63 -169v-269q0 -50 -62 -118q-65 -71 -119 -103
q-57 55 -116 49q-54 -8 -107 -61zM131 644l-9 6q4 7 33 40l38 42q21 18 48 18q26 0 68 -21q43 -21 66 -21q14 0 31 11l8 -7l-32 -33q-35 -35 -62 -35q-22 0 -65 20q-41 21 -63 21q-19 0 -30 -10q-4 -3 -9.5 -8.5t-12.5 -13t-9 -9.5zM541 806l133 124l14 -14l-133 -123z" />
    <glyph glyph-name="aeacute" unicode="&#x1fd;" horiz-adv-x="439" 
d="M354 500l66 -120l-153 -122v-130l61 -70l46 49l8 -8l-93 -99l-74 85l-103 -85l-70 50l-33 -44l-8 8l33 44v145l73 65q-40 4 -53 33t-0.5 65.5t40.5 65.5q37 38 76 68l95 -86zM114 275l23 -2l-41 -38v-140l55 -40l54 45v278l-77 71l-37 -37q-18 -17 -24 -47t6 -57t41 -33z
M361 350l-52 92l-42 -41v-128zM166 556l133 124l14 -14l-133 -123z" />
    <glyph glyph-name="Oslashacute" unicode="&#x1fe;" horiz-adv-x="707" 
d="M267 438l-4 -62q-20 48 -82 12q1 51 29 71q8 7 24 6t25 -12v67q0 41 14 63q12 21 81 77q39 36 122 90q1 0 8.5 -1.5t14.5 -3.5l20 66l31 20l-28 -92q82 -30 126 -116q45 -86 45 -199q0 -184 -103 -305q-104 -120 -270 -120q-2 0 -12 0.5t-13 0.5l-22 -73l-33 -21l30 97
q-111 17 -186 102q-74 86 -74 215q0 130 62 233t201 197h19q-121 -95 -168 -182q-48 -87 -48 -207q0 -99 60 -182t155 -107l186 604q-24 12 -49 12q-5 0 -34 -20q-31 -21 -42 -31q-15 -13 -18.5 -19t-3.5 -21v-229q0 -81 -118 -175l-13 11q61 67 61 102l-1 77v70q5 -5 8 -15
zM632 398q0 74 -39 151q-39 78 -94 115l-183 -597q18 -2 40 -2q138 2 207 91q69 90 69 242zM329 786l133 124l14 -14l-133 -123z" />
    <glyph glyph-name="oslashacute" unicode="&#x1ff;" horiz-adv-x="372" 
d="M189 -88h-15v100l-15 -12l-97 69l-53 -69l-8 8l52 69v286l121 109v66h15v-53l16 15l100 -90l58 81l8 -8l-57 -81v-274l-125 -103v-113zM189 61l9 -6l54 45v267l-63 57v-363zM169 443l-54 -50v-278l59 -43v366zM111 556l133 124l14 -14l-133 -123z" />
    <glyph glyph-name="Adblgrave" unicode="&#x200;" horiz-adv-x="727" 
d="M-37 -12l1 12q89 96 159 104q7 1 30 1q27 37 27 61l-1 105q-19 46 -81 11q1 52 29 70q9 9 26.5 6t25.5 -15v51q-22 36 -78 4q1 51 29 71q8 7 24 6t25 -12q4 47 30.5 83t85.5 82l11 -8q-55 -58 -55 -153v-239q0 -62 -67 -129q34 -12 57 -35q55 61 55 95l-1 313
q0 74 36 114q30 34 99 94q52 43 95 70l97 -93l60 47l7 -7q-7 -8 -29 -30.5t-29 -30.5v-519q27 -30 54 -49l41 27l9 -10q-56 -42 -104 -85q-26 32 -54 53l-55 -47l-7 7q32 32 45 55l-1 294q-9 -13 -19 -43q-33 3 -83 1q-30 0 -47 -29l-12 8q37 67 37 93q0 8 -8 29l9 4l17 -28
q41 -5 106 -3v204l-88 86q-20 -7 -41 -25q-63 -59 -63 -169v-269q0 -50 -62 -118q-65 -71 -119 -103q-57 55 -116 49q-54 -8 -107 -61zM129 644l-9 6q5 7 33 40l38 42q21 18 48 18q26 0 68 -21q43 -21 66 -21q14 0 31 11l8 -7l-32 -33q-35 -35 -62 -35q-22 0 -65 20
q-41 21 -63 21q-19 0 -30 -10q-4 -3 -9.5 -8.5t-12.5 -13t-9 -9.5zM343 946l111 -81l-39 -55l-120 86zM503 946l111 -81l-39 -55l-120 86z" />
    <glyph glyph-name="adblgrave" unicode="&#x201;" horiz-adv-x="404" 
d="M429 99l-93 -99l-74 85l-103 -85l-97 69l-53 -69l-8 8l52 69v286l152 137l100 -90l58 81l8 -8l-57 -81v-274l61 -70l46 49zM115 115l83 -60l54 45v267l-83 76l-54 -50v-278zM244 696l111 -81l-39 -55l-120 86zM84 696l111 -81l-39 -55l-120 86z" />
    <glyph glyph-name="Abreveinverted" unicode="&#x202;" horiz-adv-x="727" 
d="M-37 -12l1 12q89 96 159 104q7 1 30 1q27 37 27 61l-1 105q-19 46 -81 11q1 52 29 70q9 9 26.5 6t25.5 -15v51q-22 36 -78 4q1 51 29 71q8 7 24 6t25 -12q4 47 30.5 83t85.5 82l11 -8q-55 -58 -55 -153v-239q0 -62 -67 -129q34 -12 57 -35q55 61 55 95l-1 313
q0 74 36 114q30 34 99 94q52 43 95 70l97 -93l60 47l7 -7q-7 -8 -29 -30.5t-29 -30.5v-519q27 -30 54 -49l41 27l9 -10q-56 -42 -104 -85q-26 32 -54 53l-55 -47l-7 7q32 32 45 55l-1 294q-9 -13 -19 -43q-33 3 -83 1q-30 0 -47 -29l-12 8q37 67 37 93q0 8 -8 29l9 4l17 -28
q41 -5 106 -3v204l-88 86q-20 -7 -42 -26q-62 -59 -62 -168v-269q0 -50 -62 -118q-65 -71 -119 -103q-57 55 -116 49q-54 -8 -107 -61zM129 644l-9 6q5 7 33 40l38 42q21 18 48 18q26 0 68 -21q43 -21 66 -21q14 0 31 11l8 -7l-32 -33q-35 -35 -62 -35q-22 0 -65 20
q-41 21 -63 21q-19 0 -30 -10q-4 -3 -9.5 -8.5t-12.5 -13t-9 -9.5zM563 834l-68 -44q-23 45 -63 45q-20 0 -42 -12q-3 -1 -41 -23l-3 6q92 81 144 81q25 0 45.5 -14.5t27.5 -38.5z" />
    <glyph glyph-name="abreveinverted" unicode="&#x203;" horiz-adv-x="404" 
d="M429 99l-93 -99l-74 85l-103 -85l-97 69l-53 -69l-8 8l52 69v286l152 137l100 -90l58 81l8 -8l-57 -81v-274l61 -70l46 49zM115 115l83 -60l54 45v267l-83 76l-54 -50v-278zM304 584l-68 -44q-22 45 -63 45q-20 0 -42 -12q-3 -1 -41 -23l-3 6q91 81 144 81
q25 0 45.5 -14.5t27.5 -38.5z" />
    <glyph glyph-name="Edblgrave" unicode="&#x204;" horiz-adv-x="593" 
d="M273 750h19q-120 -94 -168 -183t-48 -215q0 -111 79 -199q80 -89 195 -88q64 0 110 21q48 23 75 53q28 31 65 88l13 -26q-27 -70 -118 -136t-174 -66q-123 0 -218 84q-93 85 -93 215q0 144 60 250q59 105 203 202zM184 186l-13 12q61 64 61 101v17q-21 44 -82 10
q5 53 30 71q8 8 26 5t26 -16v75q-23 38 -79 6q5 54 30 70q8 7 24 5.5t25 -10.5q2 42 23 76t63 70l48 50q19 17 44 17q23 0 61 -20q37 -19 59 -19q12 0 28 11l7 -7l-29 -30q-32 -32 -61 -32q-21 0 -52 18q-32 18 -52 18q-13 0 -29 -9q-40 -52 -40 -134v-110l42 45
q16 16 43 16q24 0 59 -19q36 -18 57 -18q14 0 27 10l7 -7l-29 -29q-28 -31 -58 -31q-19 0 -51 17q-31 18 -50 18q-23 0 -47 -24v-48q0 -81 -118 -175zM392 946l111 -81l-39 -55l-120 86zM232 946l111 -81l-39 -55l-120 86z" />
    <glyph glyph-name="edblgrave" unicode="&#x205;" horiz-adv-x="336" 
d="M211 500l66 -120l-150 -120v-157l51 -47l43 34l9 -8l-96 -82l-61 58l-45 -58l-8 8l45 60v290zM49 696l111 -81l-39 -55l-120 86zM209 696l111 -81l-39 -55l-120 86zM124 401l3 2v-127l91 74l-52 92z" />
    <glyph glyph-name="Ebreveinverted" unicode="&#x206;" horiz-adv-x="593" 
d="M273 750h19q-120 -94 -168 -183t-48 -215q0 -111 79 -199q80 -89 195 -88q64 0 110 21q48 23 75 53q28 31 65 88l13 -26q-27 -70 -118 -136t-174 -66q-123 0 -218 84q-93 85 -93 215q0 144 60 250q59 105 203 202zM184 186l-13 12q61 64 61 101v17q-21 44 -82 10
q5 53 30 71q8 8 26 5t26 -16v75q-23 38 -79 6q5 54 30 70q8 7 24 5.5t25 -10.5q2 42 23 76t63 70l48 50q19 17 44 17q23 0 61 -20q37 -19 59 -19q12 0 28 11l7 -7l-29 -30q-32 -32 -61 -32q-21 0 -52 18q-32 18 -52 18q-13 0 -29 -9q-40 -52 -40 -134v-110l42 45
q16 16 43 16q24 0 59 -19q36 -18 57 -18q14 0 27 10l7 -7l-29 -29q-28 -31 -58 -31q-19 0 -51 17q-31 18 -50 18q-23 0 -47 -24v-48q0 -81 -118 -175zM452 834l-68 -44q-22 45 -63 45q-20 0 -42 -12q-3 -1 -41 -23l-3 6q91 81 144 81q25 0 45.5 -14.5t27.5 -38.5z" />
    <glyph glyph-name="ebreveinverted" unicode="&#x207;" horiz-adv-x="274" 
d="M192 500l66 -120l-150 -120v-157l51 -47l43 34l9 -8l-96 -82l-61 58l-45 -58l-8 8l45 60v290zM250 584l-68 -44q-22 45 -63 45q-20 0 -42 -12q-3 -1 -41 -23l-3 6q91 81 144 81q25 0 45.5 -14.5t27.5 -38.5zM105 401l3 2v-127l91 74l-52 92z" />
    <glyph glyph-name="Idblgrave" unicode="&#x208;" horiz-adv-x="421" 
d="M67 644l-9 6q4 7 33 40l38 42q21 18 48 18q26 0 68 -21q43 -21 66 -21q14 0 31 11l8 -7l-32 -33q-15 -15 -25 -23q-52 -55 -52 -149v-279q0 -62 -65 -127q40 -11 65 -37q55 61 55 95l-1 371q0 70 36 117q54 71 113 103l5 -11q-49 -43 -66 -85q-16 -39 -16 -114v-319
q0 -50 -62 -118q-65 -71 -119 -103q-57 55 -116 49q-54 -8 -107 -61l1 12q89 96 159 104q4 1 20 1q27 37 27 61l-1 105q-19 46 -81 11q1 52 29 70q9 9 26.5 6t25.5 -15v56q-22 36 -78 4q1 51 29 71q8 7 24 5.5t25 -11.5v21q0 81 86 155q-22 0 -65 20q-41 21 -62 21
q-19 0 -30 -10q-4 -3 -9.5 -8.5t-12.5 -13t-9 -9.5zM312 946l111 -81l-39 -55l-120 86zM152 946l111 -81l-39 -55l-120 86z" />
    <glyph glyph-name="idblgrave" unicode="&#x209;" horiz-adv-x="289" 
d="M20 403l98 97l50 -48l48 47l8 -8l-75 -76v-321l36 -35l46 49l8 -8l-94 -100l-50 49l-46 -49l-8 8l46 48v380l-8 8l-51 -49zM177 696l111 -81l-39 -55l-120 86zM17 696l111 -81l-39 -55l-120 86z" />
    <glyph glyph-name="Ibreveinverted" unicode="&#x20a;" horiz-adv-x="421" 
d="M67 644l-9 6q4 7 33 40l38 42q21 18 48 18q26 0 68 -21q43 -21 66 -21q14 0 31 11l8 -7l-32 -33q-15 -15 -25 -23q-52 -55 -52 -149v-279q0 -62 -65 -127q40 -11 65 -37q55 61 55 95l-1 371q0 70 36 117q54 71 113 103l5 -11q-49 -43 -66 -85q-16 -39 -16 -114v-319
q0 -50 -62 -118q-65 -71 -119 -103q-57 55 -116 49q-54 -8 -107 -61l1 12q89 96 159 104q4 1 20 1q27 37 27 61l-1 105q-19 46 -81 11q1 52 29 70q9 9 26.5 6t25.5 -15v56q-22 36 -78 4q1 51 29 71q8 7 24 5.5t25 -11.5v21q0 81 86 155q-22 0 -65 20q-41 21 -62 21
q-19 0 -30 -10q-4 -3 -9.5 -8.5t-12.5 -13t-9 -9.5zM372 834l-68 -44q-22 45 -63 45q-20 0 -42 -12q-3 -1 -41 -23l-3 6q91 81 144 81q25 0 45.5 -14.5t27.5 -38.5z" />
    <glyph glyph-name="ibreveinverted" unicode="&#x20b;" horiz-adv-x="227" 
d="M-2 403l98 97l50 -48l48 47l8 -8l-75 -76v-321l36 -35l46 49l8 -8l-94 -100l-50 49l-46 -49l-8 8l46 48v380l-8 8l-51 -49zM215 584l-68 -44q-23 45 -63 45q-20 0 -42 -12q-3 -1 -41 -23l-3 6q92 81 144 81q25 0 45.5 -14.5t27.5 -38.5z" />
    <glyph glyph-name="Odblgrave" unicode="&#x20c;" horiz-adv-x="707" 
d="M267 438l-4 -62q-20 48 -82 12q1 51 29 71q8 7 24 6t25 -12v67q0 41 14 63q12 21 81 77q39 36 122 90q102 -13 160 -106q57 -91 57 -220q0 -184 -103 -305q-104 -120 -270 -120q-128 0 -219 88t-91 233q0 130 62 233t201 197h19q-121 -95 -168 -182q-48 -87 -48 -207
q0 -116 80 -207q81 -91 200 -89q138 2 207 91q69 90 69 242q0 101 -64 195q-65 95 -140 95q-5 0 -34 -20q-31 -21 -42 -31q-15 -13 -18.5 -19t-3.5 -21v-229q0 -81 -118 -175l-13 11q61 67 61 102l-1 77v70q5 -5 8 -15zM422 946l111 -81l-39 -55l-120 86zM262 946l111 -81
l-39 -55l-120 86z" />
    <glyph glyph-name="odblgrave" unicode="&#x20d;" horiz-adv-x="372" 
d="M314 128l-155 -128l-97 69l-53 -69l-8 8l52 69v286l152 137l100 -90l58 81l8 -8l-57 -81v-274zM115 115l83 -60l54 45v267l-83 76l-54 -50v-278zM83 696l111 -81l-39 -55l-120 86zM243 696l111 -81l-39 -55l-120 86z" />
    <glyph glyph-name="Obreveinverted" unicode="&#x20e;" horiz-adv-x="707" 
d="M267 438l-4 -62q-20 48 -82 12q1 51 29 71q8 7 24 6t25 -12v67q0 41 14 63q12 21 81 77q39 36 122 90q102 -13 160 -106q57 -91 57 -220q0 -184 -103 -305q-104 -120 -270 -120q-128 0 -219 88t-91 233q0 130 62 233t201 197h19q-121 -95 -168 -182q-48 -87 -48 -207
q0 -116 80 -207q81 -91 200 -89q138 2 207 91q69 90 69 242q0 101 -64 195q-65 95 -140 95q-5 0 -34 -20q-31 -21 -42 -31q-15 -13 -18.5 -19t-3.5 -21v-229q0 -81 -118 -175l-13 11q61 67 61 102l-1 77v70q5 -5 8 -15zM482 834l-68 -44q-22 45 -63 45q-20 0 -42 -12
q-3 -1 -41 -23l-3 6q91 81 144 81q25 0 45.5 -14.5t27.5 -38.5z" />
    <glyph glyph-name="obreveinverted" unicode="&#x20f;" horiz-adv-x="372" 
d="M314 128l-155 -128l-97 69l-53 -69l-8 8l52 69v286l152 137l100 -90l58 81l8 -8l-57 -81v-274zM115 115l83 -60l54 45v267l-83 76l-54 -50v-278zM303 584l-68 -44q-23 45 -63 45q-20 0 -42 -12q-3 -1 -41 -23l-3 6q92 81 144 81q25 0 45.5 -14.5t27.5 -38.5z" />
    <glyph glyph-name="Rdblgrave" unicode="&#x210;" horiz-adv-x="712" 
d="M547 68v238l-72 65l-108 -85v-65q0 -50 -62 -118q-65 -71 -119 -103q-57 55 -116 49q-54 -8 -107 -61l1 12q89 96 159 104q4 1 20 1q27 37 27 61l-1 105q-19 46 -81 11q1 52 29 70q9 9 26.5 6t25.5 -15v56q-22 36 -78 4q1 51 29 71q8 7 24 5.5t25 -11.5v21q0 81 86 155
q-22 0 -65 20q-41 21 -62 21q-19 0 -30 -10q-4 -3 -9.5 -8.5t-12.5 -13t-9 -9.5l-9 6q4 7 33 40l38 42q21 18 48 18q26 0 68 -21q43 -21 66 -21q14 0 31 11l8 -7l-32 -33q-18 -18 -25 -22q-52 -55 -52 -150v-279q0 -62 -65 -127q40 -11 65 -37q55 61 55 95l-1 345
q0 70 36 117q37 46 70 74q41 34 81 34q58 0 100 -39q43 -37 43 -94q0 -76 -95 -177l71 -64l62 50l7 -7q-19 -19 -55 -58v-223q27 -28 55 -49l41 27l9 -10q-44 -31 -105 -85q-24 29 -53 53l-55 -47l-7 7q38 38 47 55zM367 514v-204l113 96l4 3q83 74 83 148q0 51 -40 91
q-41 41 -90 41q-12 0 -15 -1q-32 -35 -43.5 -72.5t-11.5 -101.5zM292 933l111 -81l-39 -55l-120 86zM452 933l111 -81l-39 -55l-120 86z" />
    <glyph glyph-name="rdblgrave" unicode="&#x211;" horiz-adv-x="346" 
d="M252 500l62 -60l-56 -56l-54 50l-38 -38v-302l36 -35l46 49l8 -8l-94 -100l-50 49l-46 -49l-8 8l46 48v380l-8 8l-51 -49l-8 8l98 97l60 -57zM65 696l111 -81l-39 -55l-120 86zM225 696l111 -81l-39 -55l-120 86z" />
    <glyph glyph-name="Rbreveinverted" unicode="&#x212;" horiz-adv-x="712" 
d="M547 68v238l-72 65l-108 -85v-65q0 -50 -62 -118q-65 -71 -119 -103q-57 55 -116 49q-54 -8 -107 -61l1 12q89 96 159 104q4 1 20 1q27 37 27 61l-1 105q-19 46 -81 11q1 52 29 70q9 9 26.5 6t25.5 -15v56q-22 36 -78 4q1 51 29 71q8 7 24 5.5t25 -11.5v21q0 81 86 155
q-22 0 -65 20q-41 21 -62 21q-19 0 -30 -10q-4 -3 -9.5 -8.5t-12.5 -13t-9 -9.5l-9 6q4 7 33 40l38 42q21 18 48 18q26 0 68 -21q43 -21 66 -21q14 0 31 11l8 -7l-32 -33q-15 -15 -25 -23q-52 -55 -52 -149v-279q0 -62 -65 -127q40 -11 65 -37q55 61 55 95l-1 345
q0 70 36 117q37 46 70 74q41 34 81 34q58 0 100 -39q43 -37 43 -94q0 -76 -95 -177l71 -64l62 50l7 -7q-19 -19 -55 -58v-223q27 -28 55 -49l41 27l9 -10q-44 -31 -105 -85q-24 29 -53 53l-55 -47l-7 7q38 38 47 55zM367 514v-204l113 96l4 3q83 74 83 148q0 51 -40 91
q-41 41 -90 41q-12 0 -15 -1q-32 -35 -43.5 -72.5t-11.5 -101.5zM512 821l-68 -44q-22 45 -63 45q-20 0 -42 -12q-3 -2 -41 -23l-3 6q91 81 144 81q25 0 45.5 -14.5t27.5 -38.5z" />
    <glyph glyph-name="rbreveinverted" unicode="&#x213;" horiz-adv-x="304" 
d="M232 500l62 -60l-56 -56l-54 50l-38 -38v-302l36 -35l46 49l8 -8l-94 -100l-50 49l-46 -49l-8 8l46 48v380l-8 8l-51 -49l-8 8l98 97l60 -57zM265 584l-68 -44q-23 45 -63 45q-20 0 -42 -12q-3 -1 -41 -23l-3 6q92 81 144 81q25 0 45.5 -14.5t27.5 -38.5z" />
    <glyph glyph-name="Udblgrave" unicode="&#x214;" horiz-adv-x="604" 
d="M119 91q0 35 2 179q-20 48 -82 12q1 52 29 70q9 10 28.5 6t25.5 -19q1 10 1 48q-19 46 -81 11q1 51 29 71q8 8 26.5 5t26.5 -16v29q0 154 -60 154h-23q-36 0 -63 9q-20 6 -26.5 22t5.5 33q7 11 64 73l14 1l-12 -14q-14 -18 -11.5 -35.5t23.5 -21.5q2 -1 75 -1
q85 0 85 -126q0 -85 -3 -222q-2 -180 -2 -222q56 -60 70 -69l167 111v445q-29 23 -53 38q34 26 81 68q41 -61 93 -86q-30 -24 -50 -41v-486q30 -31 55 -49l40 27l9 -10q-47 -34 -104 -85q-24 29 -53 53l-56 -47l-7 7q32 32 45 55v95q-130 -86 -222 -163q-39 50 -68 73
l-86 -73l-8 7q54 54 76 84zM329 926l111 -81l-39 -55l-120 86zM169 926l111 -81l-39 -55l-120 86z" />
    <glyph glyph-name="udblgrave" unicode="&#x215;" horiz-adv-x="418" 
d="M286 500l62 -60l-30 -30l-3 -290l55 -62l46 49l8 -8l-93 -99l-79 91l-108 -91l-89 76v348l-16 15l-31 -30l-8 8l82 83l55 -54l41 40l8 -8l-68 -67l-1 -298l71 -57l65 53l2 309l-26 25zM76 696l111 -81l-39 -55l-120 86zM236 696l111 -81l-39 -55l-120 86z" />
    <glyph glyph-name="Ubreveinverted" unicode="&#x216;" horiz-adv-x="604" 
d="M119 91q0 35 2 179q-20 48 -82 12q1 52 29 70q9 10 28.5 6t25.5 -19q1 10 1 48q-19 46 -81 11q1 51 29 71q8 8 26.5 5t26.5 -16v29q0 154 -60 154h-23q-36 0 -63 9q-20 6 -26.5 22t5.5 33q7 11 64 73l14 1l-12 -14q-14 -18 -11.5 -35.5t23.5 -21.5q2 -1 75 -1
q85 0 85 -126q0 -85 -3 -222q-2 -180 -2 -222q56 -60 70 -69l167 111v445q-29 23 -53 38q34 26 81 68q41 -61 93 -86q-30 -24 -50 -41v-486q30 -31 55 -49l40 27l9 -10q-47 -34 -104 -85q-24 29 -53 53l-56 -47l-7 7q32 32 45 55v95q-130 -86 -222 -163q-39 50 -68 73
l-86 -73l-8 7q54 54 76 84zM389 814l-68 -44q-23 45 -63 45q-20 0 -42 -12q-3 -1 -41 -23l-3 6q92 81 144 81q25 0 45.5 -14.5t27.5 -38.5z" />
    <glyph glyph-name="ubreveinverted" unicode="&#x217;" horiz-adv-x="418" 
d="M286 500l62 -60l-30 -30l-3 -290l55 -62l46 49l8 -8l-93 -99l-79 91l-108 -91l-89 76v348l-16 15l-31 -30l-8 8l82 83l55 -54l41 40l8 -8l-68 -67l-1 -298l71 -57l65 53l2 309l-26 25zM296 584l-68 -44q-22 45 -63 45q-20 0 -42 -12q-3 -1 -41 -23l-3 6q91 81 144 81
q25 0 45.5 -14.5t27.5 -38.5z" />
    <glyph glyph-name="Scommaaccent" unicode="&#x218;" horiz-adv-x="467" 
d="M416 762l-1 -12q-89 -96 -160 -104q-61 -7 -104 27q-21 -47 -21 -112v-111q54 -57 67 -67l93 78l105 -95l63 50l7 -7q-19 -19 -55 -58v-214l-147 -137q-70 55 -146 49q-55 -4 -118 -61l-7 12q104 95 187 104q76 7 128 -32l35 32v210l-90 83q-93 -71 -107 -84
q-41 48 -65 69l-21 -14v3l-68 -58l-8 7q59 59 76 83l-1 140q0 69 36 113q40 47 99 94q57 -57 116 -49q52 6 107 61zM214 -42q34 -19 34 -45q0 -35 -66 -109l-14 -1q21 38 21 55q-2 21 -29 51z" />
    <glyph glyph-name="scommaaccent" unicode="&#x219;" horiz-adv-x="315" 
d="M248 490l5 -4q-32 -46 -72 -59q-45 -14 -83 17v-142l45 -49l55 42l70 -63v-124l55 -73l-8 -8l-56 73l-125 -100q-51 57 -128 0l-5 5q77 77 132 77q29 0 53 -15l18 8l2 2v120l-52 48l-59 -46l-59 66v149l-48 69l8 8l49 -70l79 74l4 5v-1l1 1v-2q30 -24 62 -24t57 16z
M140 -42q34 -19 34 -45q0 -35 -66 -109l-14 -1q21 38 21 55q-2 21 -29 51z" />
    <glyph glyph-name="uni021A" unicode="&#x21a;" horiz-adv-x="510" 
d="M-20 -12l1 12q89 96 159 104q7 1 30 1q27 37 27 61l-1 105q-19 46 -81 11q1 52 29 70q9 9 26.5 6t25.5 -15v51q-22 36 -78 4q1 51 29 71q8 7 24 6t25 -12q4 47 30.5 83t85.5 82l11 -8q-56 -59 -56 -153v-239q0 -62 -66 -129q34 -12 57 -35q55 61 55 95l-1 303q0 53 27 92
t89 87l11 -8q-56 -59 -56 -153v-259q0 -51 -61 -118q-65 -71 -119 -103q-57 55 -116 49q-54 -8 -107 -61zM-11 602l-6 10q8 10 20 30q32 46 48 60q34 30 92 30q65 0 211 -9q155 -8 211 -8q63 0 98 35l7 -3q-12 -42 -42 -69t-70 -27q-70 0 -228 6t-228 6q-37 0 -63 -14
q-24 -12 -50 -47zM277 -42q34 -19 34 -45q0 -35 -66 -109l-14 -1q21 38 21 55q-2 21 -29 51z" />
    <glyph glyph-name="uni021B" unicode="&#x21b;" horiz-adv-x="257" 
d="M247 500l-53 -53h-57v-343l46 -45l46 49l8 -8l-94 -100l-60 59l-46 -49l-8 8l46 48v380h-58l120 112v-58h110zM133 -42q34 -19 34 -45q0 -35 -66 -109l-14 -1q21 38 21 55q-2 21 -29 51z" />
    <glyph glyph-name="dotlessj" unicode="&#x237;" horiz-adv-x="203" 
d="M5 403l98 97l50 -48l48 47l8 -8l-76 -77v-436q0 -68 -8 -130q-5 -33 -50 -62q-39 -26 -92 -43l-8 7l49 29q37 24 40 44q9 53 9 154v458l-9 9l-51 -49z" />
    <glyph glyph-name="circumflex" unicode="&#x2c6;" 
d="M183 623l-87 -80l-16 12l139 125l105 -94l-50 -46z" />
    <glyph glyph-name="caron" unicode="&#x2c7;" 
d="M195 530l-127 91l55 45l111 -81l102 85l14 -12z" />
    <glyph glyph-name="breve" unicode="&#x2d8;" 
d="M94 605l62 39q49 -25 91 -25q30 0 84 25l5 -5q-92 -72 -150 -72q-48 0 -92 38z" />
    <glyph glyph-name="dotaccent" unicode="&#x2d9;" 
d="M197 561l-57 64l55 50l57 -63z" />
    <glyph glyph-name="ring" unicode="&#x2da;" 
d="M157 576q-19 18 -19 43t19 42q20 18 48 18t47 -18q20 -17 20 -42t-20 -43q-19 -17 -47 -17t-48 17zM205 579q18 0 30 12t12 28t-12 27.5t-30 11.5q-17 0 -29.5 -11.5t-12.5 -27.5t12.5 -28t29.5 -12z" />
    <glyph glyph-name="ogonek" unicode="&#x2db;" 
d="M351 -145l-38 -71q-26 6 -42 27t-16 48q0 49 71 147l5 -6q-1 -2 -10 -19t-12 -23q-9 -27 -8 -44q3 -39 50 -59z" />
    <glyph glyph-name="tilde" unicode="&#x2dc;" 
d="M183 647q19 0 48 -16t47 -16q19 0 47 19l7 -7q-62 -57 -73 -64q-13 -10 -30 -10t-48 16t-48 16q-20 0 -46 -19l-7 8q71 61 73 63q13 10 30 10z" />
    <glyph glyph-name="hungarumlaut" unicode="&#x2dd;" 
d="M118 566l133 124l14 -14l-133 -123zM222 566l133 124l14 -14l-133 -123z" />
    <glyph glyph-name="brevecmb" unicode="&#x306;" 
d="M308 584l-68 -44q-22 45 -63 45q-20 0 -42 -12q-3 -1 -41 -23l-3 6q91 81 144 81q25 0 45.5 -14.5t27.5 -38.5z" />
    <glyph glyph-name="breveinverted" unicode="&#x311;" 
d="M308 584l-68 -44q-22 45 -63 45q-20 0 -42 -12q-3 -1 -41 -23l-3 6q91 81 144 81q25 0 45.5 -14.5t27.5 -38.5z" />
    <glyph glyph-name="dotbelowcomb" unicode="&#x323;" 
d="M197 -149l-57 64l55 50l57 -63z" />
    <glyph glyph-name="afii10023" unicode="&#x401;" horiz-adv-x="593" 
d="M273 750h19q-120 -94 -168 -183t-48 -215q0 -111 79 -199q80 -89 195 -88q64 0 110 21q48 23 75 53q28 31 65 88l13 -26q-27 -70 -118 -136t-174 -66q-123 0 -218 84q-93 85 -93 215q0 144 60 250q59 105 203 202zM184 186l-13 12q61 64 61 101v17q-21 44 -82 10
q5 53 30 71q8 8 26 5t26 -16v75q-23 38 -79 6q5 54 30 70q8 7 24 5.5t25 -10.5q2 42 23 76t63 70l48 50q19 17 44 17q23 0 61 -20q37 -19 59 -19q12 0 28 11l7 -7l-29 -30q-32 -32 -61 -32q-21 0 -52 18q-32 18 -52 18q-13 0 -29 -9q-40 -52 -40 -134v-110l42 45
q16 16 43 16q24 0 59 -19q36 -18 57 -18q14 0 27 10l7 -7l-29 -29q-28 -31 -58 -31q-19 0 -51 17q-31 18 -50 18q-23 0 -47 -24v-48q0 -81 -118 -175zM433 804l-57 64l55 50l57 -63zM303 804l-57 64l55 50l57 -63z" />
    <glyph glyph-name="afii10051" unicode="&#x402;" horiz-adv-x="682" 
d="M-37 -12l1 12q89 96 159 104q7 1 30 1q27 37 27 61l-1 105q-19 46 -81 11q1 52 29 70q9 9 26.5 6t25.5 -15v51q-22 36 -78 4q1 51 29 71q8 7 24 6t25 -12q4 47 30.5 83t85.5 82l11 -8q-56 -59 -56 -153v-239q0 -62 -66 -129q34 -12 57 -35q55 61 55 95l-1 269
q0 74 36 114q30 34 99 94l14 -8q-78 -63 -78 -182v-103l129 108l106 -96l62 50l7 -7q-19 -19 -55 -58v-259q0 -50 -60 -116q-56 -65 -118 -103l-2 -2q-57 55 -117 49q-52 -7 -106 -61v12q89 96 160 104q70 10 117 -40q57 63 57 95v291l-90 78l-90 -71v-96q0 -51 -61 -118
q-65 -71 -119 -103q-57 55 -116 49q-54 -8 -107 -61zM112 602l-6 10q8 10 20 30q32 46 48 60q35 30 92 30q40 0 120 -9q86 -8 122 -8q63 0 98 35l7 -3q-12 -42 -42 -69t-70 -27q-47 0 -138 6t-138 6q-37 0 -63 -14q-24 -12 -50 -47z" />
    <glyph glyph-name="afii10052" unicode="&#x403;" horiz-adv-x="463" 
d="M-37 -12l1 12q89 96 159 104q7 1 30 1q27 37 27 61l-1 105q-19 46 -81 11q1 52 29 70q9 9 26.5 6t25.5 -15v51q-22 36 -78 4q1 51 29 71q8 7 24 6t25 -12q4 47 30.5 83t85.5 82l11 -8q-56 -59 -56 -153v-239q0 -62 -66 -129q34 -12 57 -35q55 61 55 95l-1 269
q0 74 36 114q30 34 99 94l14 -8q-78 -63 -78 -182v-225q0 -51 -61 -118q-65 -71 -119 -103q-57 55 -116 49q-54 -8 -107 -61zM112 602l-6 10q8 10 20 30q32 46 48 60q35 30 92 30q40 0 120 -9q86 -8 122 -8q63 0 98 35l7 -3q-12 -42 -42 -69t-70 -27q-47 0 -138 6t-138 6
q-37 0 -63 -14q-24 -12 -50 -47zM288 793l133 124l14 -14l-133 -123z" />
    <glyph glyph-name="afii10053" unicode="&#x404;" horiz-adv-x="593" 
d="M273 750h19q-120 -94 -168 -183t-48 -215q0 -111 79 -199q80 -89 195 -88q64 0 110 21q48 23 75 53q28 31 65 88l13 -26q-27 -70 -118 -136t-174 -66q-123 0 -218 84q-93 85 -93 215q0 144 60 250q59 105 203 202zM184 186l-13 12q61 64 61 101v17q-21 44 -82 10
q5 53 30 71q8 8 26 5t26 -16v75q-23 38 -79 6q5 54 30 70q8 7 24 5.5t25 -10.5q2 42 23 76t63 70l48 50q19 17 44 17q23 0 61 -20q37 -19 59 -19q12 0 28 11l7 -7l-29 -30q-32 -32 -61 -32q-21 0 -52 18q-32 18 -52 18q-13 0 -29 -9q-40 -52 -40 -134v-110l42 45
q16 16 43 16q24 0 59 -19q36 -18 57 -18q14 0 27 10l7 -7l-29 -29q-28 -31 -58 -31q-19 0 -51 17q-31 18 -50 18q-23 0 -47 -24v-48q0 -81 -118 -175z" />
    <glyph glyph-name="afii10054" unicode="&#x405;" horiz-adv-x="467" 
d="M416 762l-1 -12q-89 -96 -160 -104q-61 -7 -104 27q-21 -47 -21 -112v-111q54 -57 67 -67l93 78l105 -95l63 50l7 -7q-19 -19 -55 -58v-214l-147 -137q-70 55 -146 49q-55 -4 -118 -61l-7 12q104 95 187 104q76 7 128 -32l35 32v210l-90 83q-93 -71 -107 -84
q-41 48 -65 69l-21 -14v3l-68 -58l-8 7q59 59 76 83l-1 140q0 69 36 113q40 47 99 94q57 -57 116 -49q52 6 107 61z" />
    <glyph glyph-name="afii10055" unicode="&#x406;" horiz-adv-x="421" 
d="M67 644l-9 6q4 7 33 40l38 42q21 18 48 18q26 0 68 -21q43 -21 66 -21q14 0 31 11l8 -7l-32 -33q-15 -15 -25 -23q-52 -55 -52 -149v-279q0 -62 -65 -127q40 -11 65 -37q55 61 55 95l-1 371q0 70 36 117q54 71 113 103l5 -11q-49 -43 -66 -85q-16 -39 -16 -114v-319
q0 -50 -62 -118q-65 -71 -119 -103q-57 55 -116 49q-54 -8 -107 -61l1 12q89 96 159 104q4 1 20 1q27 37 27 61l-1 105q-19 46 -81 11q1 52 29 70q9 9 26.5 6t25.5 -15v56q-22 36 -78 4q1 51 29 71q8 7 24 5.5t25 -11.5v21q0 81 86 155q-22 0 -65 20q-41 21 -62 21
q-19 0 -30 -10q-4 -3 -9.5 -8.5t-12.5 -13t-9 -9.5z" />
    <glyph glyph-name="afii10056" unicode="&#x407;" horiz-adv-x="421" 
d="M67 644l-9 6q4 7 33 40l38 42q21 18 48 18q26 0 68 -21q43 -21 66 -21q14 0 31 11l8 -7l-32 -33q-18 -18 -25 -22q-52 -55 -52 -150v-279q0 -62 -65 -127q40 -11 65 -37q55 61 55 95l-1 371q0 70 36 117q54 71 113 103l5 -11q-49 -43 -66 -85q-16 -39 -16 -114v-319
q0 -50 -62 -118q-65 -71 -119 -103q-57 55 -116 49q-54 -8 -107 -61l1 12q89 96 159 104q4 1 20 1q27 37 27 61l-1 105q-19 46 -81 11q1 52 29 70q9 9 26.5 6t25.5 -15v56q-22 36 -78 4q1 51 29 71q8 7 24 5.5t25 -11.5v21q0 81 86 155q-22 0 -65 20q-41 21 -62 21
q-19 0 -30 -10q-4 -3 -9.5 -8.5t-12.5 -13t-9 -9.5zM341 804l-57 64l55 50l57 -63zM211 804l-57 64l55 50l57 -63z" />
    <glyph glyph-name="afii10057" unicode="&#x408;" horiz-adv-x="406" 
d="M-55 -152l1 12q89 96 159 104q71 11 118 -40q55 62 55 95l-1 511q0 70 36 117q54 71 113 103l5 -11q-49 -43 -66 -85q-16 -39 -16 -114v-459q0 -50 -62 -118q-65 -71 -119 -103q-57 55 -116 49q-54 -8 -107 -61zM104 33l-13 11q61 67 61 102l-1 125q-19 46 -81 11
q1 52 29 70q9 9 26.5 6t25.5 -15v56q-22 36 -78 4q1 51 29 71q8 7 24 5.5t25 -11.5v21q0 81 86 155q-22 0 -65 20q-40 21 -62 21q-19 0 -30 -10q-4 -3 -9.5 -8.5t-12.5 -13t-9 -9.5l-9 6q4 7 33 40l38 42q21 18 48 18q26 0 68 -21q43 -21 66 -21q14 0 31 11l8 -7l-32 -33
q-18 -18 -25 -22q-52 -55 -52 -150v-299q0 -80 -119 -175z" />
    <glyph glyph-name="afii10058" unicode="&#x409;" horiz-adv-x="871" 
d="M-37 -12l1 12q89 96 159 104q7 1 30 1q27 37 27 61l-1 105q-19 46 -81 11q1 52 29 70q9 9 26.5 6t25.5 -15v51q-22 36 -78 4q1 51 29 71q8 7 24 6t25 -12q4 47 30.5 83t85.5 82l11 -8q-55 -58 -55 -153v-239q0 -62 -67 -129q34 -12 57 -35q55 61 55 95l-1 333
q0 74 36 114q30 35 90 85q44 36 81 59l62 -60l61 47l6 -6q0 -1 -27 -29q-17 -17 -31 -33v-293l121 101l95 -85l63 49l7 -6q-5 -6 -27 -28q-16 -16 -28 -30v-236q-127 -70 -220 -141q-34 39 -56 61l-63 -53l-8 7q32 32 45 55l-1 562l-53 52q-19 -9 -29 -16q-52 -56 -52 -158
v-289q0 -50 -62 -118q-65 -71 -119 -103q-57 55 -116 49q-54 -8 -107 -61zM736 341l-82 73l-81 -65v-217q41 -47 65 -64l98 52v221zM89 644l-9 6q4 7 33 40l38 42q21 18 48 18q26 0 68 -21q43 -21 66 -21q14 0 31 11l8 -7l-32 -33q-35 -35 -62 -35q-22 0 -65 20
q-41 21 -63 21q-19 0 -30 -10q-4 -3 -9.5 -8.5t-12.5 -13t-9 -9.5z" />
    <glyph glyph-name="afii10059" unicode="&#x40a;" horiz-adv-x="901" 
d="M427 421l9 4l17 -28q31 -4 80 -4v150q0 73 36 113q32 39 99 94l5 -14q-68 -63 -68 -175v-183l119 99l95 -85l63 49l7 -6q-5 -6 -27 -28q-16 -16 -28 -30v-236q-127 -70 -220 -141l-4 4t-8.5 9.5t-11.5 12.5q-20 23 -31 34l-63 -54l-7 7q32 32 45 55l-1 251q-30 3 -76 1
q-30 0 -47 -29l-12 8q37 67 37 93q0 8 -8 29zM-37 -12l1 12q89 96 159 104q7 1 30 1q27 37 27 61l-1 105q-19 46 -81 11q1 52 29 70q9 9 26.5 6t25.5 -15v51q-22 36 -78 4q1 51 29 71q8 7 24 6t25 -12q4 47 30.5 83t85.5 82l11 -8q-55 -58 -55 -153v-239q0 -62 -67 -129
q34 -12 57 -35q55 61 55 95l-1 313q0 74 36 114q30 34 99 94l14 -8q-77 -62 -77 -182v-269q0 -50 -62 -118q-65 -71 -119 -103q-57 55 -116 49q-54 -8 -107 -61zM766 341l-82 73l-79 -63v-222q39 -44 63 -61l98 52v221zM129 644l-9 6q5 7 33 40l38 42q21 18 48 18
q26 0 68 -21q43 -21 66 -21q14 0 31 11l8 -7l-32 -33q-35 -35 -62 -35q-22 0 -65 20q-41 21 -63 21q-19 0 -30 -10q-4 -3 -9.5 -8.5t-12.5 -13t-9 -9.5z" />
    <glyph glyph-name="afii10060" unicode="&#x40b;" horiz-adv-x="712" 
d="M-37 -12l1 12q89 96 159 104q7 1 30 1q27 37 27 61l-1 105q-19 46 -81 11q1 52 29 70q9 9 26.5 6t25.5 -15v51q-22 36 -78 4q1 51 29 71q8 7 24 6t25 -12q4 47 30.5 83t85.5 82l11 -8q-56 -59 -56 -153v-239q0 -62 -66 -129q34 -12 57 -35q55 61 55 95l-1 269
q0 74 36 114q30 34 99 94l14 -8q-78 -63 -78 -182v-103l129 108l106 -96l62 50l7 -7q-19 -19 -55 -58v-223q27 -28 55 -49l41 27l9 -10q-44 -31 -105 -85q-24 29 -53 53l-55 -47l-7 7q38 38 47 55v238l-91 82l-90 -71v-96q0 -51 -61 -118q-65 -71 -119 -103q-57 55 -116 49
q-54 -8 -107 -61zM112 602l-6 10q8 10 20 30q32 46 48 60q35 30 92 30q40 0 120 -9q86 -8 122 -8q63 0 98 35l7 -3q-12 -42 -42 -69t-70 -27q-47 0 -138 6t-138 6q-37 0 -63 -14q-24 -12 -50 -47z" />
    <glyph glyph-name="afii10061" unicode="&#x40c;" horiz-adv-x="680" 
d="M-37 -12l1 12q89 96 159 104q7 1 30 1q27 37 27 61l-1 105q-19 46 -81 11q1 52 29 70q9 9 26.5 6t25.5 -15v51q-22 36 -78 4q1 51 29 71q8 7 24 6t25 -12q4 47 30.5 83t85.5 82l11 -8q-55 -58 -55 -153v-239q0 -62 -67 -129q34 -12 57 -35q55 61 55 95l-1 313
q0 74 36 114q30 34 99 94l82 70l97 -87v-116l-125 -116l91 -87l60 47l7 -7q-7 -8 -29 -30.5t-29 -30.5v-206q27 -30 54 -49l41 27l9 -10q-56 -42 -104 -85q-26 32 -54 53l-55 -47l-7 7q32 32 45 55l-1 217l-88 86q-23 -9 -57 -35v-115q0 -50 -62 -118q-65 -71 -119 -103
q-57 55 -116 49q-54 -8 -107 -61zM367 490v-137l3 3l3 3l167 155v110l-68 63l-59 -46q-46 -55 -46 -151zM129 644l-9 6q5 7 33 40l38 42q21 18 48 18q26 0 68 -21q43 -21 66 -21q14 0 31 11l8 -7l-32 -33q-35 -35 -62 -35q-22 0 -65 20q-41 21 -63 21q-19 0 -30 -10
q-4 -3 -9.5 -8.5t-12.5 -13t-9 -9.5zM361 803l133 124l14 -14l-133 -123z" />
    <glyph glyph-name="afii10062" unicode="&#x40e;" horiz-adv-x="447" 
d="M271 682q3 2 81 68q40 -59 93 -86q-25 -20 -48 -39v-404q0 -50 -62 -118q-65 -71 -119 -103l2 3l-3 -3q-57 55 -116 49q-54 -8 -107 -61l1 12q89 96 160 104q33 4 64.5 -6.5t52.5 -33.5q56 62 56 95l-1 268q-102 -71 -168 -127q-39 48 -69 73l-86 -73l-7 7q54 54 76 84
q0 51 1 85q0 14 0.5 29t1 23t0.5 11q-9 102 -58 102h-24q-35 0 -62 9q-21 6 -27 22t6 33q6 9 63 73l15 1l-13 -14q-15 -18 -11.5 -35.5t23.5 -21.5q3 -1 76 -1q85 0 85 -126q0 -29 -3 -72q-2 -58 -2 -72q49 -55 70 -69l113 76v199q-21 17 -54 39zM103 803l68 44
q23 -45 63 -45q17 0 42 11q5 3 22 13t19 11l3 -6q-92 -81 -144 -81q-25 0 -45.5 14.5t-27.5 38.5z" />
    <glyph glyph-name="afii10145" unicode="&#x40f;" horiz-adv-x="671" 
d="M7 0l-6 10q40 56 77 90q10 8 29 19q18 25 18 47l-1 105q-19 46 -81 11q1 52 29 70q9 9 26.5 6t25.5 -15v51q-22 36 -78 4q1 51 29 71q8 7 24 6t25 -12q4 47 30.5 83t85.5 82l11 -8q-55 -58 -55 -153v-239q0 -49 -40 -98h12q20 0 43 -6q30 40 30 65l-1 341q0 70 36 117
q54 71 113 103l5 -11q-49 -43 -66 -85q-16 -39 -16 -114v-289q0 -53 -75 -133q25 -8 60 -22q88 -32 129 -32q62 0 96 33q14 26 14 42v404q0 72 35 113q40 47 99 94l14 -7q-77 -63 -77 -182v-360q0 -71 -116 -173q-31 -28 -72 -28q-19 0 -47 4v-53q0 -41 -42 -94
q-44 -55 -96 -97l-13 7q80 83 80 122l-1 132q-2 0 -7 1.5t-13 4t-16 4.5q-30 10 -40 12q-72 20 -104 18q-23 0 -38 -4l-5 -4l-2 2q-4 -1 -18 -8q-24 -12 -50 -47zM-6 644l-9 6q4 7 33 40l38 42q21 18 48 18q26 0 68 -21q44 -21 66 -21q14 0 31 11l8 -7l-32 -33
q-35 -35 -62 -35q-22 0 -65 20q-40 21 -63 21q-19 0 -30 -10q-4 -3 -9.5 -8.5t-12.5 -13t-9 -9.5z" />
    <glyph glyph-name="afii10017" unicode="&#x410;" horiz-adv-x="727" 
d="M-37 -12l1 12q89 96 159 104q7 1 30 1q27 37 27 61l-1 105q-19 46 -81 11q1 52 29 70q9 9 26.5 6t25.5 -15v51q-22 36 -78 4q1 51 29 71q8 7 24 6t25 -12q4 47 30.5 83t85.5 82l11 -8q-55 -58 -55 -153v-239q0 -62 -67 -129q34 -12 57 -35q55 61 55 95l-1 313
q0 74 36 114q30 34 99 94q52 43 95 70l97 -93l60 47l7 -7q-7 -8 -29 -30.5t-29 -30.5v-519q27 -30 54 -49l41 27l9 -10q-56 -42 -104 -85q-26 32 -54 53l-55 -47l-7 7q32 32 45 55l-1 294q-9 -13 -19 -43q-33 3 -83 1q-30 0 -47 -29l-12 8q37 67 37 93q0 8 -8 29l9 4l17 -28
q41 -5 106 -3v204l-88 86q-20 -7 -41 -25q-63 -59 -63 -169v-269q0 -50 -62 -118q-65 -71 -119 -103q-57 55 -116 49q-54 -8 -107 -61zM129 644l-9 6q5 7 33 40l38 42q21 18 48 18q26 0 68 -21q43 -21 66 -21q14 0 31 11l8 -7l-32 -33q-35 -35 -62 -35q-22 0 -65 20
q-41 21 -63 21q-19 0 -30 -10q-4 -3 -9.5 -8.5t-12.5 -13t-9 -9.5z" />
    <glyph glyph-name="afii10018" unicode="&#x411;" horiz-adv-x="672" 
d="M-37 -12l1 12q89 96 159 104q7 1 30 1q27 37 27 61l-1 105q-19 46 -81 11q1 52 29 70q9 9 26.5 6t25.5 -15v51q-22 36 -78 4q1 51 29 71q8 7 24 6t25 -12q4 47 30.5 83t85.5 82l11 -8q-56 -59 -56 -153v-239q0 -62 -66 -129q34 -12 57 -35q55 61 55 95l-1 293
q0 74 36 114q25 32 90 87q-3 0 -13 1t-31 2t-41 2q-71 6 -111 5t-63 -14q-24 -12 -50 -47l-6 10q8 10 20 30q32 46 48 60q35 30 92 30q40 0 120 -9q86 -8 122 -8q63 0 98 35l7 -3q-12 -42 -42 -69t-70 -27q-44 0 -57 1q-78 -63 -78 -182v-117l129 108l105 -95l63 50l7 -7
q-19 -19 -55 -58v-214l-147 -137q-45 60 -96 60q-43 0 -92 -52l-8 9q72 93 131 93t96 -51l1 2l47 43v210l-91 84l-90 -71v-106q0 -51 -61 -118q-65 -71 -119 -103q-57 55 -116 49q-54 -8 -107 -61z" />
    <glyph glyph-name="afii10019" unicode="&#x412;" horiz-adv-x="604" 
d="M136 -12l-7 12q106 97 187 104q75 9 128 -32l35 32v210l-91 84l-89 -70v-66q0 -42 -42 -96t-96 -96l-13 12q80 83 80 122l-1 268q0 74 36 114q28 33 98 93l1 1l82 70l97 -87v-116l-104 -96l95 -85l63 50l7 -7q-19 -19 -55 -58v-214l-147 -137q-70 55 -146 49
q-55 -4 -118 -61zM64 53l-13 11q61 67 61 102l-1 105q-19 46 -81 11q1 52 29 70q9 9 26.5 6t25.5 -15v51q-22 36 -78 4q1 51 29 71q8 7 24 6t25 -12q4 47 30.5 83t85.5 82l11 -8q-55 -58 -55 -153v-239q0 -80 -119 -175zM299 490v-137l7 7l166 154v110l-68 63l-59 -46
q-46 -55 -46 -151zM61 644l-9 6q4 7 33 40l38 42q21 18 48 18q26 0 68 -21q43 -21 66 -21q14 0 31 11l8 -7l-32 -33q-35 -35 -62 -35q-22 0 -65 20q-41 21 -63 21q-19 0 -30 -10q-4 -3 -9.5 -8.5t-12.5 -13t-9 -9.5z" />
    <glyph glyph-name="afii10020" unicode="&#x413;" horiz-adv-x="463" 
d="M-37 -12l1 12q89 96 159 104q7 1 30 1q27 37 27 61l-1 105q-19 46 -81 11q1 52 29 70q9 9 26.5 6t25.5 -15v51q-22 36 -78 4q1 51 29 71q8 7 24 6t25 -12q4 47 30.5 83t85.5 82l11 -8q-56 -59 -56 -153v-239q0 -62 -66 -129q34 -12 57 -35q55 61 55 95l-1 269
q0 74 36 114q30 34 99 94l14 -8q-78 -63 -78 -182v-225q0 -51 -61 -118q-65 -71 -119 -103q-57 55 -116 49q-54 -8 -107 -61zM112 602l-6 10q8 10 20 30q32 46 48 60q35 30 92 30q40 0 120 -9q86 -8 122 -8q63 0 98 35l7 -3q-12 -42 -42 -69t-70 -27q-47 0 -138 6t-138 6
q-37 0 -63 -14q-24 -12 -50 -47z" />
    <glyph glyph-name="afii10021" unicode="&#x414;" horiz-adv-x="592" 
d="M548 551v-330q0 -51 -61 -118q-65 -71 -119 -103q-85 55 -176 49q-68 -6 -142 -61l-7 12q122 96 217 104q46 4 90.5 -7t71.5 -34q56 61 56 96l-1 307q2 60 -3 101q-4 26 -16.5 36.5t-39.5 9.5q-56 0 -134 -1t-133 -1q-36 0 -63 9q-21 6 -27 22t6 33q9 14 64 73l14 1
l-12 -14q-15 -16 -12 -31.5t23 -19.5q32 -7 76 -7h244q84 0 84 -126zM64 93l-13 11q61 67 61 102v64q-20 48 -82 12q1 52 29 70q9 9 26.5 6t25.5 -15v51q-22 36 -78 4q1 51 29 71q9 9 27 5.5t26 -17.5q9 39 35.5 71t76.5 70l11 -8q-55 -58 -55 -153v-169q0 -80 -119 -175z
M178 103l-13 11q61 67 61 102l-1 203q0 53 27 92t89 87l11 -8q-55 -58 -55 -153v-159q0 -80 -119 -175z" />
    <glyph glyph-name="afii10022" unicode="&#x415;" horiz-adv-x="593" 
d="M273 750h19q-120 -94 -168 -183t-48 -215q0 -111 79 -199q80 -89 195 -88q64 0 110 21q48 23 75 53q28 31 65 88l13 -26q-27 -70 -118 -136t-174 -66q-123 0 -218 84q-93 85 -93 215q0 144 60 250q59 105 203 202zM184 186l-13 12q61 64 61 101v17q-21 44 -82 10
q5 53 30 71q8 8 26 5t26 -16v75q-23 38 -79 6q5 54 30 70q8 7 24 5.5t25 -10.5q2 42 23 76t63 70l48 50q19 17 44 17q23 0 61 -20q37 -19 59 -19q12 0 28 11l7 -7l-29 -30q-32 -32 -61 -32q-21 0 -52 18q-32 18 -52 18q-13 0 -29 -9q-40 -52 -40 -134v-110l42 45
q16 16 43 16q24 0 59 -19q36 -18 57 -18q14 0 27 10l7 -7l-29 -29q-28 -31 -58 -31q-19 0 -51 17q-31 18 -50 18q-23 0 -47 -24v-48q0 -81 -118 -175z" />
    <glyph glyph-name="afii10024" unicode="&#x416;" horiz-adv-x="875" 
d="M590 395q32 0 47 46l12 -7q-1 -1 -15 -31q-25 -57 -25 -84q-14 1 -67 1v-218q19 -19 53 -37q-26 -21 -77 -65q-37 46 -97 83q11 9 50 40l-1 197h-29q-31 0 -48 -29l-12 8q37 67 37 93q0 8 -7 29l8 4l18 -28l33 -3v250q-23 20 -52 38q34 26 81 68q41 -61 93 -86
q-30 -24 -50 -41v-230q6 0 48 2zM-60 -12v12q89 96 160 104q74 9 118 -41q55 62 55 96v307q0 61 -8 98q-10 47 -52 47h-63q-36 0 -63 9q-20 6 -26.5 22t5.5 33q7 11 64 73l14 1l-12 -14q-15 -16 -11.5 -31.5t23.5 -19.5q32 -7 75 -7h40q85 0 85 -126v-330q0 -50 -62 -118
q-65 -71 -119 -103q-57 55 -117 49q-52 -7 -106 -61zM697 68l-1 475q0 73 36 113q32 39 99 94q23 -45 63 -45q29 0 81 35l5 -6q-30 -30 -68 -55q-38 -26 -63 -26q-39 0 -61 16q-20 -46 -20 -108v-444q30 -31 55 -49l40 27l9 -10q-56 -42 -104 -85q-24 29 -53 53l-56 -47
l-7 7q32 32 45 55z" />
    <glyph glyph-name="afii10025" unicode="&#x417;" horiz-adv-x="377" 
d="M174 348l-49 -38l-14 16l102 85l46 38v118q0 47 -60 46l-63 -2q-36 0 -63 9q-20 6 -26.5 22t5.5 33q7 11 64 73l14 1l-12 -14q-15 -16 -11.5 -31.5t23.5 -19.5q32 -7 75 -7h40q84 0 84 -126v-60q0 -14 -22 -40q-2 -3 -8.5 -8.5t-14 -11.5t-10.5 -8q-4 -2 -20.5 -15.5
t-20.5 -15.5l100 -89v-166l-147 -137q-57 55 -117 49q-52 -7 -106 -61v12q89 96 160 104q63 7 108 -31l34 31v160z" />
    <glyph glyph-name="afii10026" unicode="&#x418;" horiz-adv-x="604" 
d="M119 91q0 35 2 179q-20 48 -82 12q1 52 29 70q9 10 28.5 6t25.5 -19q1 10 1 48q-19 46 -81 11q1 51 29 71q8 8 26.5 5t26.5 -16v29q0 154 -60 154h-23q-36 0 -63 9q-20 6 -26.5 22t5.5 33q7 11 64 73l14 1l-12 -14q-14 -18 -11.5 -35.5t23.5 -21.5q2 -1 75 -1
q85 0 85 -126q0 -85 -3 -222q-2 -180 -2 -222q56 -60 70 -69l167 111v445q-29 23 -53 38q34 26 81 68q41 -61 93 -86q-30 -24 -50 -41v-486q30 -31 55 -49l40 27l9 -10q-47 -34 -104 -85q-24 29 -53 53l-56 -47l-7 7q32 32 45 55v95q-130 -86 -222 -163q-39 50 -68 73
l-86 -73l-8 7q54 54 76 84z" />
    <glyph glyph-name="afii10027" unicode="&#x419;" horiz-adv-x="604" 
d="M119 91q0 35 2 179q-20 48 -82 12q1 52 29 70q9 10 28.5 6t25.5 -19q1 10 1 48q-19 46 -81 11q1 51 29 71q8 8 26.5 5t26.5 -16v29q0 154 -60 154h-23q-36 0 -63 9q-20 6 -26.5 22t5.5 33q7 11 64 73l14 1l-12 -14q-14 -18 -11.5 -35.5t23.5 -21.5q2 -1 75 -1
q85 0 85 -126q0 -85 -3 -222q-2 -180 -2 -222q56 -60 70 -69l167 111v445q-29 23 -53 38q34 26 81 68q41 -61 93 -86q-30 -24 -50 -41v-486q30 -31 55 -49l40 27l9 -10q-47 -34 -104 -85q-24 29 -53 53l-56 -47l-7 7q32 32 45 55v95q-130 -86 -222 -163q-39 50 -68 73
l-86 -73l-8 7q54 54 76 84zM193 803l68 44q23 -45 63 -45q17 0 42 11q5 3 22 13t19 11l3 -6q-92 -81 -144 -81q-25 0 -45.5 14.5t-27.5 38.5z" />
    <glyph glyph-name="afii10028" unicode="&#x41a;" horiz-adv-x="680" 
d="M-37 -12l1 12q89 96 159 104q7 1 30 1q27 37 27 61l-1 105q-19 46 -81 11q1 52 29 70q9 9 26.5 6t25.5 -15v51q-22 36 -78 4q1 51 29 71q8 7 24 6t25 -12q4 47 30.5 83t85.5 82l11 -8q-55 -58 -55 -153v-239q0 -62 -67 -129q34 -12 57 -35q55 61 55 95l-1 313
q0 74 36 114q28 33 98 93l1 1l82 70l97 -87v-116l-125 -116l91 -87l60 47l7 -7q-7 -8 -29 -30.5t-29 -30.5v-206q27 -30 54 -49l41 27l9 -10q-56 -42 -104 -85q-26 32 -54 53l-55 -47l-7 7q32 32 45 55l-1 217l-88 86q-23 -9 -57 -35v-115q0 -50 -62 -118q-65 -71 -119 -103
q-57 55 -116 49q-54 -8 -107 -61zM367 490v-137l3 3l3 3l167 155v110l-68 63l-59 -46q-46 -55 -46 -151zM129 644l-9 6q5 7 33 40l38 42q21 18 48 18q26 0 68 -21q43 -21 66 -21q14 0 31 11l8 -7l-32 -33q-35 -35 -62 -35q-22 0 -65 20q-41 21 -63 21q-19 0 -30 -10
q-4 -3 -9.5 -8.5t-12.5 -13t-9 -9.5z" />
    <glyph glyph-name="afii10029" unicode="&#x41b;" horiz-adv-x="737" 
d="M-37 -12l1 12q89 96 159 104q7 1 30 1q27 37 27 61l-1 105q-19 46 -81 11q1 52 29 70q9 9 26.5 6t25.5 -15v51q-22 36 -78 4q1 51 29 71q8 7 24 6t25 -12q4 47 30.5 83t85.5 82l11 -8q-55 -58 -55 -153v-239q0 -62 -67 -129q34 -12 57 -35q55 61 55 95l-1 313
q0 74 36 114q30 34 99 94q52 43 95 70l97 -93l60 47l7 -7q-7 -8 -29 -30.5t-29 -30.5v-519q27 -30 54 -49l41 27l9 -10q-56 -42 -104 -85q-26 32 -54 53l-55 -47l-7 7q32 32 45 55l-1 530l-88 86q-20 -7 -42 -26q-62 -59 -62 -168v-269q0 -50 -62 -118q-65 -71 -119 -103
q-57 55 -116 49q-54 -8 -107 -61zM129 644l-9 6q5 7 33 40l38 42q21 18 48 18q26 0 68 -21q43 -21 66 -21q14 0 31 11l8 -7l-32 -33q-35 -35 -62 -35q-22 0 -65 20q-41 21 -63 21q-19 0 -30 -10q-4 -3 -9.5 -8.5t-12.5 -13t-9 -9.5z" />
    <glyph glyph-name="afii10030" unicode="&#x41c;" horiz-adv-x="1021" 
d="M738 395q30 0 48 46l12 -7q-5 -10 -12 -25q-5 -10 -14 -31q-14 -36 -14 -59q-29 1 -124 1v-203q27 -30 54 -49l41 27l9 -10q-56 -42 -104 -85q-26 32 -54 53l-55 -47l-7 7q32 32 45 55l-1 252h-93q-30 0 -47 -29l-12 8q37 67 37 93q0 8 -8 29l9 4l17 -28q51 -3 97 -3v204
l-88 86q-20 -7 -41 -25q-66 -61 -66 -172v-266q0 -50 -62 -118q-65 -71 -119 -103q-57 55 -116 49q-54 -8 -107 -61l1 12q89 96 159 104q7 1 30 1q27 37 27 61l-1 105q-19 46 -81 11q1 52 29 70q9 9 26.5 6t25.5 -15v51q-22 36 -78 4q1 51 29 71q8 7 24 6t25 -12
q4 47 30.5 83t85.5 82l11 -8q-55 -58 -55 -153v-239q0 -62 -67 -129q34 -12 57 -35q55 61 55 95l-1 310q0 73 36 114q32 37 79 77q72 62 118 90l106 -115v-1q67 50 175 116l97 -93l60 47l7 -7q-7 -8 -29 -30.5t-29 -30.5v-519q27 -30 54 -49l41 27l9 -10q-56 -42 -104 -85
q-26 32 -54 53l-55 -47l-7 7q32 32 45 55l-1 530l-88 86q-50 -19 -121 -70v-221q6 0 104 2zM139 644l-9 6q4 7 33 40l38 42q21 18 48 18q26 0 68 -21q43 -21 66 -21q14 0 31 11l8 -7l-32 -33q-35 -35 -62 -35q-22 0 -65 20q-41 21 -63 21q-19 0 -30 -10q-4 -3 -9.5 -8.5
t-12.5 -13t-9 -9.5z" />
    <glyph glyph-name="afii10031" unicode="&#x41d;" horiz-adv-x="722" 
d="M-37 -12l1 12q89 96 159 104q7 1 30 1q27 37 27 61l-1 105q-19 46 -81 11q1 52 29 70q9 9 26.5 6t25.5 -15v51q-22 36 -78 4q1 51 29 71q8 7 24 6t25 -12q4 47 30.5 83t85.5 82l11 -8q-55 -58 -55 -153v-239q0 -62 -67 -129q34 -12 57 -35q55 61 55 95l-1 313
q0 74 36 114q30 34 99 94l14 -8q-77 -62 -77 -182v-269q0 -50 -62 -118q-65 -71 -119 -103q-57 55 -116 49q-54 -8 -107 -61zM544 68l-1 250q-30 4 -86 2q-30 0 -47 -29l-12 8q37 67 37 93q0 8 -8 29l9 4l17 -28q35 -4 90 -4v150q0 73 36 113q32 39 99 94q22 -45 63 -45
q29 0 81 35l5 -6q-30 -30 -68 -55q-38 -26 -63 -26q-39 0 -61 16q-20 -46 -20 -108v-444q30 -31 55 -49l40 27l9 -10q-56 -42 -104 -85q-24 29 -53 53l-56 -47l-7 7q32 32 45 55zM129 644l-9 6q5 7 33 40l38 42q21 18 48 18q26 0 68 -21q43 -21 66 -21q14 0 31 11l8 -7
l-32 -33q-35 -35 -62 -35q-22 0 -65 20q-41 21 -63 21q-19 0 -30 -10q-4 -3 -9.5 -8.5t-12.5 -13t-9 -9.5z" />
    <glyph glyph-name="afii10032" unicode="&#x41e;" horiz-adv-x="707" 
d="M267 438l-4 -62q-20 48 -82 12q1 51 29 71q8 7 24 6t25 -12v67q0 41 14 63q12 21 81 77q39 36 122 90q102 -13 160 -106q57 -91 57 -220q0 -184 -103 -305q-104 -120 -270 -120q-128 0 -219 88t-91 233q0 130 62 233t201 197h19q-121 -95 -168 -182q-48 -87 -48 -207
q0 -116 80 -207q81 -91 200 -89q138 2 207 91q69 90 69 242q0 101 -64 195q-65 95 -140 95q-5 0 -34 -20q-31 -21 -42 -31q-15 -13 -18.5 -19t-3.5 -21v-229q0 -81 -118 -175l-13 11q61 67 61 102l-1 77v70q5 -5 8 -15z" />
    <glyph glyph-name="afii10033" unicode="&#x41f;" horiz-adv-x="708" 
d="M-37 -12l1 12q89 96 159 104q7 1 30 1q27 37 27 61l-1 105q-19 46 -81 11q1 52 29 70q9 9 26.5 6t25.5 -15v51q-22 36 -78 4q1 51 29 71q8 7 24 6t25 -12q4 47 30.5 83t85.5 82l11 -8q-56 -59 -56 -153v-239q0 -62 -66 -129q34 -12 57 -35q55 61 55 95l-1 303q0 53 27 92
t89 87l11 -8q-56 -59 -56 -153v-259q0 -51 -61 -118q-65 -71 -119 -103q-57 55 -116 49q-54 -8 -107 -61zM599 481v-364q30 -31 55 -49l40 27l9 -10q-56 -42 -104 -85q-24 29 -53 53l-56 -47l-7 7q32 32 45 55l-1 395q0 52 27.5 91t88.5 87l11 -8q-55 -58 -55 -152zM112 602
l-6 10q8 10 20 30q32 46 48 60q35 30 92 30q66 0 211 -9q155 -8 211 -8q63 0 98 35l7 -3q-12 -42 -42 -69t-70 -27q-71 0 -228 6t-228 6q-37 0 -63 -14q-24 -12 -50 -47z" />
    <glyph glyph-name="afii10034" unicode="&#x420;" horiz-adv-x="497" 
d="M32 -12l-7 12q54 50 96 73q0 23 2 167q-20 48 -82 12q1 52 29 70q9 10 27 6.5t26 -17.5q0 8 0.5 33.5t0.5 31.5q-20 48 -82 12q1 51 29 71q8 8 26.5 5t26.5 -16v10q0 154 -60 154h-23q-36 0 -63 9q-20 6 -26.5 22t5.5 33q7 11 64 73l14 1l-12 -14q-15 -16 -11.5 -31.5
t23.5 -19.5q32 -7 75 -7q70 0 82 -87l131 109l106 -96l63 50l7 -7q-44 -44 -56 -59v-451l-147 -137q-53 40 -105 47q0 -37 -1 -66v-62q0 -73 -35 -114q-37 -43 -99 -93l-14 7q78 63 78 182q0 109 1 142q-40 -12 -89 -55zM375 553l-91 84l-89 -70v-15q0 -2 -2 -230
q-1 -114 -1 -221l20 3q75 9 128 -32l35 32v449z" />
    <glyph glyph-name="afii10035" unicode="&#x421;" horiz-adv-x="593" 
d="M273 750h19q-120 -94 -168 -183t-48 -215q0 -111 79 -199q80 -89 195 -88q64 0 110 21q48 23 75 53q28 31 65 88l13 -26q-27 -70 -118 -136t-174 -66q-123 0 -218 84q-93 85 -93 215q0 144 60 250q59 105 203 202zM184 186l-13 12q61 64 61 101v17q-21 44 -82 10
q5 53 30 71q8 8 26 5t26 -16v75q-23 38 -79 6q5 54 30 70q8 7 24 5.5t25 -10.5q2 42 23 76t63 70l48 50q19 17 44 17q23 0 61 -20q37 -19 59 -19q12 0 28 11l7 -7l-29 -30q-32 -32 -61 -32q-21 0 -52 18q-32 18 -52 18q-13 0 -29 -9q-40 -52 -40 -134v-180q0 -81 -118 -175z
" />
    <glyph glyph-name="afii10036" unicode="&#x422;" horiz-adv-x="903" 
d="M-37 -12l1 12q89 96 159 104q7 1 30 1q27 37 27 61l-1 105q-19 46 -81 11q1 52 29 70q9 9 26.5 6t25.5 -15v51q-22 36 -78 4q1 51 29 71q8 7 24 6t25 -12q4 47 30.5 83t85.5 82l11 -8q-56 -59 -56 -153v-239q0 -62 -66 -129q34 -12 57 -35q55 61 55 95l-1 303q0 53 27 92
t89 87l11 -8q-56 -59 -56 -153v-259q0 -51 -61 -118q-65 -71 -119 -103q-57 55 -116 49q-54 -8 -107 -61zM112 602l-6 10q8 10 20 30q32 46 48 60q35 30 92 30q86 0 291 -9q219 -8 291 -8q63 0 98 35l7 -3q-12 -42 -42 -69t-70 -27q-91 0 -308 6t-308 6q-37 0 -63 -14
q-24 -12 -50 -47zM798 481v-364q30 -31 55 -49l40 27l9 -10q-56 -42 -104 -85q-24 29 -53 53l-56 -47l-7 7q32 32 45 55l-1 395q0 52 27.5 91t88.5 87l11 -8q-55 -58 -55 -152zM461 0l-13 12q61 64 61 101l-1 336q0 53 27 92t89 87l11 -8q-56 -59 -56 -153v-292
q0 -81 -118 -175z" />
    <glyph glyph-name="afii10037" unicode="&#x423;" horiz-adv-x="447" 
d="M271 682q3 2 81 68q40 -59 93 -86q-25 -20 -48 -39v-404q0 -50 -62 -118q-65 -71 -119 -103l2 3l-3 -3q-57 55 -116 49q-54 -8 -107 -61l1 12q89 96 160 104q33 4 64.5 -6.5t52.5 -33.5q56 62 56 95l-1 268q-102 -71 -168 -127q-39 48 -69 73l-86 -73l-7 7q54 54 76 84
q0 51 1 85q0 14 0.5 29t1 23t0.5 11q-9 102 -58 102h-24q-35 0 -62 9q-21 6 -27 22t6 33q6 9 63 73l15 1l-13 -14q-15 -18 -11.5 -35.5t23.5 -21.5q3 -1 76 -1q85 0 85 -126q0 -29 -3 -72q-2 -58 -2 -72q49 -55 70 -69l113 76v199q-21 17 -54 39z" />
    </font>
</defs>
</svg>
